dosis_bold.sfdir
StartChar: exclam
Encoding: 33 33 214
Width: 220
Flags: W
LayerCount: 2
Back
Fore
SplineSet
172 680 m 0,0,1
 172 630 172 630 170 574 c 128,-1,2
 168 518 168 518 165 460 c 128,-1,3
 162 402 162 402 160 345.5 c 128,-1,4
 158 289 158 289 158 240 c 0,5,6
 158 220 158 220 141 211 c 128,-1,7
 124 202 124 202 109 202 c 0,8,9
 89 202 89 202 74.5 211 c 128,-1,10
 60 220 60 220 60 240 c 0,11,12
 60 289 60 289 58 345.5 c 128,-1,13
 56 402 56 402 53.5 460 c 128,-1,14
 51 518 51 518 49 574 c 128,-1,15
 47 630 47 630 47 680 c 0,16,17
 47 706 47 706 65 720.5 c 128,-1,18
 83 735 83 735 109 735 c 256,19,20
 135 735 135 735 153.5 720.5 c 128,-1,21
 172 706 172 706 172 680 c 0,0,1
110 130 m 0,22,23
 138 130 138 130 158 110 c 128,-1,24
 178 90 178 90 178 62 c 0,25,26
 178 35 178 35 158 14.5 c 128,-1,27
 138 -6 138 -6 110 -6 c 0,28,29
 81 -6 81 -6 61.5 14.5 c 128,-1,30
 42 35 42 35 42 62 c 0,31,32
 42 90 42 90 61.5 110 c 128,-1,33
 81 130 81 130 110 130 c 0,22,23
EndSplineSet
EndChar
StartChar: quotedbl
Encoding: 34 34 331
Width: 303
Flags: W
LayerCount: 2
Back
Fore
SplineSet
75 768 m 256,0,1
 93 768 93 768 108.5 759 c 128,-1,2
 124 750 124 750 124 735 c 2,3,-1
 114 597 l 2,4,5
 114 585 114 585 104.5 574.5 c 128,-1,6
 95 564 95 564 75 564 c 256,7,8
 55 564 55 564 46.5 574.5 c 128,-1,9
 38 585 38 585 38 597 c 2,10,-1
 28 735 l 2,11,12
 28 750 28 750 42.5 759 c 128,-1,13
 57 768 57 768 75 768 c 256,0,1
226 768 m 256,14,15
 244 768 244 768 259.5 759 c 128,-1,16
 275 750 275 750 275 735 c 2,17,-1
 265 597 l 2,18,19
 265 585 265 585 256 574.5 c 128,-1,20
 247 564 247 564 226 564 c 0,21,22
 206 564 206 564 197.5 574.5 c 128,-1,23
 189 585 189 585 189 597 c 2,24,-1
 179 735 l 2,25,26
 179 750 179 750 193.5 759 c 128,-1,27
 208 768 208 768 226 768 c 256,14,15
EndSplineSet
EndChar
StartChar: numbersign
Encoding: 35 35 290
Width: 678
Flags: W
LayerCount: 2
Back
Fore
SplineSet
278 713 m 0,0,1
 301 713 301 713 319 701.5 c 128,-1,2
 337 690 337 690 337 664 c 1,3,-1
 314 536 l 1,4,-1
 424 536 l 1,5,-1
 451 686 l 2,6,7
 453 699 453 699 469 706 c 128,-1,8
 485 713 485 713 504 713 c 0,9,10
 527 713 527 713 545 701.5 c 128,-1,11
 563 690 563 690 564 664 c 1,12,-1
 540 536 l 1,13,-1
 618 536 l 2,14,15
 632 536 632 536 644 522.5 c 128,-1,16
 656 509 656 509 656 488 c 256,17,18
 656 467 656 467 644.5 453.5 c 128,-1,19
 633 440 633 440 619 440 c 2,20,-1
 523 440 l 1,21,-1
 500 317 l 1,22,-1
 578 317 l 2,23,24
 592 317 592 317 604.5 303 c 128,-1,25
 617 289 617 289 617 269 c 0,26,27
 617 247 617 247 605 233.5 c 128,-1,28
 593 220 593 220 579 220 c 2,29,-1
 482 220 l 1,30,-1
 453 60 l 2,31,32
 451 46 451 46 435 38 c 128,-1,33
 419 30 419 30 402 30 c 0,34,35
 381 30 381 30 359.5 42 c 128,-1,36
 338 54 338 54 338 78 c 1,37,-1
 363 220 l 1,38,-1
 255 220 l 1,39,-1
 226 60 l 2,40,41
 224 46 224 46 207.5 38 c 128,-1,42
 191 30 191 30 176 30 c 0,43,44
 155 30 155 30 134 42 c 128,-1,45
 113 54 113 54 113 78 c 2,46,-1
 137 220 l 1,47,-1
 59 220 l 2,48,49
 42 220 42 220 32.5 233 c 128,-1,50
 23 246 23 246 23 267 c 256,51,52
 23 288 23 288 33 302.5 c 128,-1,53
 43 317 43 317 59 317 c 2,54,-1
 156 317 l 1,55,-1
 178 440 l 1,56,-1
 100 440 l 2,57,58
 83 440 83 440 73 452.5 c 128,-1,59
 63 465 63 465 63 487 c 0,60,61
 63 508 63 508 72.5 522 c 128,-1,62
 82 536 82 536 99 536 c 2,63,-1
 197 536 l 1,64,-1
 224 686 l 2,65,66
 227 699 227 699 243 706 c 128,-1,67
 259 713 259 713 278 713 c 0,0,1
274 317 m 1,68,-1
 382 317 l 1,69,-1
 405 440 l 1,70,-1
 296 440 l 1,71,-1
 274 317 l 1,68,-1
EndSplineSet
EndChar
StartChar: dollar
Encoding: 36 36 190
Width: 525
Flags: W
LayerCount: 2
Back
Fore
SplineSet
238 1 m 1,0,1
 193 2 193 2 154 13.5 c 128,-1,2
 115 25 115 25 86.5 43 c 128,-1,3
 58 61 58 61 42 82.5 c 128,-1,4
 26 104 26 104 26 125 c 0,5,6
 26 135 26 135 30.5 147.5 c 128,-1,7
 35 160 35 160 42.5 170.5 c 128,-1,8
 50 181 50 181 60 188 c 128,-1,9
 70 195 70 195 82 195 c 0,10,11
 96 195 96 195 110 184.5 c 128,-1,12
 124 174 124 174 141.5 161 c 128,-1,13
 159 148 159 148 182 136 c 128,-1,14
 205 124 205 124 238 120 c 1,15,-1
 238 319 l 1,16,17
 204 332 204 332 169.5 347 c 128,-1,18
 135 362 135 362 107 384.5 c 128,-1,19
 79 407 79 407 61.5 439.5 c 128,-1,20
 44 472 44 472 44 520 c 256,21,22
 44 568 44 568 60 602.5 c 128,-1,23
 76 637 76 637 103 660.5 c 128,-1,24
 130 684 130 684 165 697 c 128,-1,25
 200 710 200 710 238 715 c 1,26,-1
 238 743 l 2,27,28
 238 753 238 753 248 760.5 c 128,-1,29
 258 768 258 768 272 768 c 0,30,31
 285 768 285 768 295.5 760.5 c 128,-1,32
 306 753 306 753 306 743 c 2,33,-1
 306 717 l 1,34,35
 330 716 330 716 360 712 c 128,-1,36
 390 708 390 708 416 698.5 c 128,-1,37
 442 689 442 689 459.5 674.5 c 128,-1,38
 477 660 477 660 477 638 c 0,39,40
 477 629 477 629 474 617.5 c 128,-1,41
 471 606 471 606 464.5 595 c 128,-1,42
 458 584 458 584 448 576.5 c 128,-1,43
 438 569 438 569 424 569 c 0,44,45
 413 569 413 569 403 574 c 128,-1,46
 393 579 393 579 379.5 585.5 c 128,-1,47
 366 592 366 592 348.5 598 c 128,-1,48
 331 604 331 604 306 606 c 1,49,-1
 306 430 l 1,50,51
 339 418 339 418 373 402 c 128,-1,52
 407 386 407 386 434 361.5 c 128,-1,53
 461 337 461 337 478 302 c 128,-1,54
 495 267 495 267 495 216 c 0,55,56
 495 124 495 124 442.5 70.5 c 128,-1,57
 390 17 390 17 306 4 c 1,58,-1
 306 -27 l 2,59,60
 306 -37 306 -37 295.5 -44.5 c 128,-1,61
 285 -52 285 -52 272 -52 c 0,62,63
 258 -52 258 -52 248 -44.5 c 128,-1,64
 238 -37 238 -37 238 -27 c 2,65,-1
 238 1 l 1,0,1
373 203 m 0,66,67
 373 240 373 240 351.5 260.5 c 128,-1,68
 330 281 330 281 298 295 c 1,69,-1
 298 121 l 1,70,71
 331 128 331 128 352 148 c 128,-1,72
 373 168 373 168 373 203 c 0,66,67
166 533 m 0,73,74
 166 500 166 500 188.5 483 c 128,-1,75
 211 466 211 466 246 452 c 1,76,-1
 246 603 l 1,77,78
 208 597 208 597 187 579.5 c 128,-1,79
 166 562 166 562 166 533 c 0,73,74
EndSplineSet
EndChar
StartChar: percent
Encoding: 37 37 319
Width: 787
Flags: W
LayerCount: 2
Back
Fore
SplineSet
168 328 m 256,0,1
 138 328 138 328 111.5 335 c 128,-1,2
 85 342 85 342 66 357.5 c 128,-1,3
 47 373 47 373 36 397.5 c 128,-1,4
 25 422 25 422 25 457 c 2,5,-1
 25 602 l 2,6,7
 25 637 25 637 36 661.5 c 128,-1,8
 47 686 47 686 66 701.5 c 128,-1,9
 85 717 85 717 111.5 724 c 128,-1,10
 138 731 138 731 168 731 c 256,11,12
 198 731 198 731 224 724 c 128,-1,13
 250 717 250 717 269 701.5 c 128,-1,14
 288 686 288 686 299 661.5 c 128,-1,15
 310 637 310 637 310 602 c 2,16,-1
 310 457 l 2,17,18
 310 422 310 422 299 397.5 c 128,-1,19
 288 373 288 373 269 357.5 c 128,-1,20
 250 342 250 342 224 335 c 128,-1,21
 198 328 198 328 168 328 c 256,0,1
225 602 m 2,22,23
 225 630 225 630 209.5 643 c 128,-1,24
 194 656 194 656 168 656 c 256,25,26
 142 656 142 656 127 643 c 128,-1,27
 112 630 112 630 112 602 c 2,28,-1
 112 457 l 2,29,30
 112 429 112 429 127 416 c 128,-1,31
 142 403 142 403 168 403 c 256,32,33
 194 403 194 403 209.5 416 c 128,-1,34
 225 429 225 429 225 457 c 2,35,-1
 225 602 l 2,22,23
619 -3 m 256,36,37
 589 -3 589 -3 562.5 4 c 128,-1,38
 536 11 536 11 517 26 c 128,-1,39
 498 41 498 41 487 65.5 c 128,-1,40
 476 90 476 90 476 126 c 2,41,-1
 476 271 l 2,42,43
 476 306 476 306 487 330.5 c 128,-1,44
 498 355 498 355 517 370.5 c 128,-1,45
 536 386 536 386 562.5 393 c 128,-1,46
 589 400 589 400 619 400 c 256,47,48
 649 400 649 400 675 393 c 128,-1,49
 701 386 701 386 720 370.5 c 128,-1,50
 739 355 739 355 750 330.5 c 128,-1,51
 761 306 761 306 761 271 c 2,52,-1
 761 126 l 2,53,54
 761 90 761 90 750 65.5 c 128,-1,55
 739 41 739 41 720 26 c 128,-1,56
 701 11 701 11 675 4 c 128,-1,57
 649 -3 649 -3 619 -3 c 256,36,37
676 271 m 2,58,59
 676 299 676 299 660.5 312 c 128,-1,60
 645 325 645 325 619 325 c 256,61,62
 593 325 593 325 578 312 c 128,-1,63
 563 299 563 299 563 271 c 2,64,-1
 563 126 l 2,65,66
 563 98 563 98 578 85 c 128,-1,67
 593 72 593 72 619 72 c 256,68,69
 645 72 645 72 660.5 85 c 128,-1,70
 676 98 676 98 676 126 c 2,71,-1
 676 271 l 2,58,59
571 771 m 0,72,73
 588 771 588 771 604.5 758.5 c 128,-1,74
 621 746 621 746 621 726 c 0,75,76
 621 716 621 716 617 708 c 2,77,-1
 257 -18 l 2,78,79
 252 -29 252 -29 241.5 -34.5 c 128,-1,80
 231 -40 231 -40 218 -40 c 0,81,82
 197 -40 197 -40 184 -26 c 128,-1,83
 171 -12 171 -12 171 4 c 0,84,85
 171 11 171 11 175 21 c 2,86,-1
 535 750 l 2,87,88
 540 761 540 761 550 766 c 128,-1,89
 560 771 560 771 571 771 c 0,72,73
EndSplineSet
Ligature2: "'frac' Diagonal Fractions in Latin lookup 9 subtable" zero slash zero
EndChar
StartChar: ampersand
Encoding: 38 38 142
Width: 642
Flags: W
LayerCount: 2
Back
Fore
SplineSet
273 -10 m 0,0,1
 215 -10 215 -10 168.5 8 c 128,-1,2
 122 26 122 26 89.5 56 c 128,-1,3
 57 86 57 86 39.5 126 c 128,-1,4
 22 166 22 166 22 210 c 0,5,6
 22 244 22 244 32 275 c 128,-1,7
 42 306 42 306 59.5 332.5 c 128,-1,8
 77 359 77 359 99.5 379 c 128,-1,9
 122 399 122 399 147 413 c 1,10,11
 118 445 118 445 97.5 481 c 128,-1,12
 77 517 77 517 77 567 c 0,13,14
 77 610 77 610 93.5 643.5 c 128,-1,15
 110 677 110 677 138.5 700.5 c 128,-1,16
 167 724 167 724 205 736 c 128,-1,17
 243 748 243 748 287 748 c 0,18,19
 332 748 332 748 368.5 736.5 c 128,-1,20
 405 725 405 725 430.5 707.5 c 128,-1,21
 456 690 456 690 469.5 669.5 c 128,-1,22
 483 649 483 649 483 631 c 0,23,24
 483 608 483 608 464 589.5 c 128,-1,25
 445 571 445 571 422 571 c 0,26,27
 405 571 405 571 393.5 582.5 c 128,-1,28
 382 594 382 594 368.5 607.5 c 128,-1,29
 355 621 355 621 336.5 632.5 c 128,-1,30
 318 644 318 644 288 644 c 0,31,32
 250 644 250 644 224.5 622.5 c 128,-1,33
 199 601 199 601 199 561 c 0,34,35
 199 538 199 538 209 516.5 c 128,-1,36
 219 495 219 495 234.5 475 c 128,-1,37
 250 455 250 455 268 436 c 128,-1,38
 286 417 286 417 302 401 c 2,39,-1
 463 231 l 1,40,41
 479 269 479 269 481 304 c 128,-1,42
 483 339 483 339 485 364 c 0,43,44
 487 384 487 384 498 394 c 128,-1,45
 509 404 509 404 543 404 c 256,46,47
 577 404 577 404 587.5 388.5 c 128,-1,48
 598 373 598 373 598 344 c 0,49,50
 598 306 598 306 585 253.5 c 128,-1,51
 572 201 572 201 542 150 c 1,52,-1
 623 66 l 2,53,54
 631 57 631 57 631 44 c 0,55,56
 631 34 631 34 626 24.5 c 128,-1,57
 621 15 621 15 612.5 7.5 c 128,-1,58
 604 0 604 0 593 -4.5 c 128,-1,59
 582 -9 582 -9 571 -9 c 0,60,61
 563 -9 563 -9 555.5 -6 c 128,-1,62
 548 -3 548 -3 539 6 c 2,63,-1
 477 70 l 1,64,65
 439 35 439 35 389 12.5 c 128,-1,66
 339 -10 339 -10 273 -10 c 0,0,1
288 103 m 0,67,68
 326 103 326 103 354 116 c 128,-1,69
 382 129 382 129 400 149 c 1,70,-1
 220 337 l 1,71,72
 194 318 194 318 173.5 290.5 c 128,-1,73
 153 263 153 263 153 221 c 0,74,75
 153 171 153 171 187.5 137 c 128,-1,76
 222 103 222 103 288 103 c 0,67,68
EndSplineSet
EndChar
StartChar: quotesingle
Encoding: 39 39 338
Width: 152
Flags: W
LayerCount: 2
Back
Fore
SplineSet
75 768 m 256,0,1
 93 768 93 768 108.5 759 c 128,-1,2
 124 750 124 750 124 735 c 2,3,-1
 114 597 l 2,4,5
 114 585 114 585 104.5 574.5 c 128,-1,6
 95 564 95 564 75 564 c 256,7,8
 55 564 55 564 46.5 574.5 c 128,-1,9
 38 585 38 585 38 597 c 2,10,-1
 28 735 l 2,11,12
 28 750 28 750 42.5 759 c 128,-1,13
 57 768 57 768 75 768 c 256,0,1
EndSplineSet
EndChar
StartChar: parenleft
Encoding: 40 40 316
Width: 341
Flags: W
LayerCount: 2
Back
Fore
SplineSet
258 -20 m 0,0,1
 220 -20 220 -20 182.5 -9 c 128,-1,2
 145 2 145 2 115 24.5 c 128,-1,3
 85 47 85 47 66.5 82 c 128,-1,4
 48 117 48 117 48 166 c 2,5,-1
 48 568 l 2,6,7
 48 613 48 613 67 650 c 128,-1,8
 86 687 86 687 116.5 713 c 128,-1,9
 147 739 147 739 185 753.5 c 128,-1,10
 223 768 223 768 261 768 c 256,11,12
 299 768 299 768 312 751.5 c 128,-1,13
 325 735 325 735 325 712 c 0,14,15
 325 686 325 686 313.5 670.5 c 128,-1,16
 302 655 302 655 284 655 c 0,17,18
 258 655 258 655 238.5 647.5 c 128,-1,19
 219 640 219 640 205 627.5 c 128,-1,20
 191 615 191 615 184 599.5 c 128,-1,21
 177 584 177 584 177 568 c 2,22,-1
 177 166 l 2,23,24
 177 143 177 143 187 129 c 128,-1,25
 197 115 197 115 213 107 c 128,-1,26
 229 99 229 99 247.5 96 c 128,-1,27
 266 93 266 93 284 93 c 0,28,29
 310 93 310 93 317.5 75 c 128,-1,30
 325 57 325 57 325 36 c 0,31,32
 325 11 325 11 312.5 -4.5 c 128,-1,33
 300 -20 300 -20 258 -20 c 0,0,1
EndSplineSet
EndChar
StartChar: parenright
Encoding: 41 41 317
Width: 341
Flags: W
LayerCount: 2
Back
Fore
SplineSet
83 -20 m 0,0,1
 41 -20 41 -20 28.5 -4.5 c 128,-1,2
 16 11 16 11 16 36 c 0,3,4
 16 57 16 57 23.5 75 c 128,-1,5
 31 93 31 93 57 93 c 0,6,7
 75 93 75 93 93.5 96 c 128,-1,8
 112 99 112 99 127.5 107 c 128,-1,9
 143 115 143 115 153 129 c 128,-1,10
 163 143 163 143 163 166 c 2,11,-1
 163 568 l 2,12,13
 163 584 163 584 156 599.5 c 128,-1,14
 149 615 149 615 135.5 627.5 c 128,-1,15
 122 640 122 640 102 647.5 c 128,-1,16
 82 655 82 655 57 655 c 0,17,18
 39 655 39 655 27.5 670.5 c 128,-1,19
 16 686 16 686 16 712 c 0,20,21
 16 735 16 735 29 751.5 c 128,-1,22
 42 768 42 768 80 768 c 256,23,24
 118 768 118 768 156 753.5 c 128,-1,25
 194 739 194 739 224.5 713 c 128,-1,26
 255 687 255 687 274 650 c 128,-1,27
 293 613 293 613 293 568 c 2,28,-1
 293 166 l 2,29,30
 293 117 293 117 274 82 c 128,-1,31
 255 47 255 47 225 24.5 c 128,-1,32
 195 2 195 2 157.5 -9 c 128,-1,33
 120 -20 120 -20 83 -20 c 0,0,1
EndSplineSet
EndChar
StartChar: asterisk
Encoding: 42 42 152
Width: 470
Flags: W
LayerCount: 2
Back
Fore
SplineSet
381 397 m 2,0,1
 388 388 388 388 388 373 c 0,2,3
 388 352 388 352 371.5 339 c 128,-1,4
 355 326 355 326 336 326 c 0,5,6
 328 326 328 326 319.5 329 c 128,-1,7
 311 332 311 332 303 343 c 2,8,-1
 235 446 l 1,9,-1
 166 342 l 2,10,11
 160 332 160 332 152.5 329 c 128,-1,12
 145 326 145 326 136 326 c 0,13,14
 128 326 128 326 119 329 c 128,-1,15
 110 332 110 332 101.5 338 c 128,-1,16
 93 344 93 344 87.5 352 c 128,-1,17
 82 360 82 360 82 371 c 0,18,19
 82 379 82 379 85 386 c 128,-1,20
 88 393 88 393 93 398 c 2,21,-1
 163 496 l 1,22,-1
 52 528 l 2,23,24
 37 531 37 531 30 543 c 128,-1,25
 23 555 23 555 23 571 c 0,26,27
 23 588 23 588 36.5 603.5 c 128,-1,28
 50 619 50 619 70 619 c 0,29,30
 72 619 72 619 75 618.5 c 128,-1,31
 78 618 78 618 83 616 c 2,32,-1
 194 579 l 1,33,-1
 189 690 l 2,34,35
 190 711 190 711 203.5 721 c 128,-1,36
 217 731 217 731 235 731 c 256,37,38
 253 731 253 731 266.5 721 c 128,-1,39
 280 711 280 711 281 690 c 2,40,-1
 276 578 l 1,41,-1
 388 616 l 2,42,43
 395 619 395 619 401 619 c 0,44,45
 421 619 421 619 433.5 602 c 128,-1,46
 446 585 446 585 446 566 c 0,47,48
 446 553 446 553 439 542 c 128,-1,49
 432 531 432 531 416 528 c 2,50,-1
 308 501 l 1,51,-1
 381 397 l 2,0,1
EndSplineSet
EndChar
StartChar: plus
Encoding: 43 43 324
Width: 444
Flags: W
LayerCount: 2
Back
Fore
SplineSet
222 40 m 0,0,1
 199 40 199 40 183.5 51 c 128,-1,2
 168 62 168 62 168 80 c 2,3,-1
 168 187 l 1,4,-1
 61 187 l 2,5,6
 43 187 43 187 32 201.5 c 128,-1,7
 21 216 21 216 21 240 c 0,8,9
 21 263 21 263 32 278.5 c 128,-1,10
 43 294 43 294 61 294 c 2,11,-1
 168 294 l 1,12,-1
 168 400 l 2,13,14
 168 416 168 416 183.5 428.5 c 128,-1,15
 199 441 199 441 222 441 c 0,16,17
 246 441 246 441 260.5 428.5 c 128,-1,18
 275 416 275 416 275 400 c 2,19,-1
 275 294 l 1,20,-1
 381 294 l 2,21,22
 397 294 397 294 410 278.5 c 128,-1,23
 423 263 423 263 423 240 c 0,24,25
 423 216 423 216 410 201.5 c 128,-1,26
 397 187 397 187 381 187 c 2,27,-1
 275 187 l 1,28,-1
 275 80 l 2,29,30
 275 62 275 62 260.5 51 c 128,-1,31
 246 40 246 40 222 40 c 0,0,1
EndSplineSet
EndChar
StartChar: comma
Encoding: 44 44 178
Width: 193
Flags: W
LayerCount: 2
Back
Fore
SplineSet
96 130 m 256,0,1
 124 130 124 130 144 110.5 c 128,-1,2
 164 91 164 91 164 63 c 0,3,4
 164 59 164 59 163 53 c 128,-1,5
 162 47 162 47 156.5 32.5 c 128,-1,6
 151 18 151 18 140 -9.5 c 128,-1,7
 129 -37 129 -37 109 -83 c 0,8,9
 104 -93 104 -93 97 -96.5 c 128,-1,10
 90 -100 90 -100 82 -100 c 0,11,12
 68 -100 68 -100 53.5 -91.5 c 128,-1,13
 39 -83 39 -83 39 -66 c 0,14,15
 39 -59 39 -59 43 -52 c 2,16,-1
 66 1 l 1,17,18
 49 10 49 10 39 26 c 128,-1,19
 29 42 29 42 29 62 c 0,20,21
 29 90 29 90 48.5 110 c 128,-1,22
 68 130 68 130 96 130 c 256,0,1
EndSplineSet
EndChar
StartChar: hyphen
Encoding: 45 45 246
Width: 413
Flags: W
LayerCount: 2
Back
Fore
SplineSet
36 240 m 0,0,1
 36 263 36 263 47 278.5 c 128,-1,2
 58 294 58 294 76 294 c 2,3,-1
 336 294 l 2,4,5
 352 294 352 294 365 278.5 c 128,-1,6
 378 263 378 263 378 240 c 0,7,8
 378 216 378 216 365 201.5 c 128,-1,9
 352 187 352 187 336 187 c 2,10,-1
 76 187 l 2,11,12
 58 187 58 187 47 201.5 c 128,-1,13
 36 216 36 216 36 240 c 0,0,1
EndSplineSet
EndChar
StartChar: period
Encoding: 46 46 320
Width: 191
Flags: W
LayerCount: 2
Back
Fore
SplineSet
96 130 m 0,0,1
 123 130 123 130 143 110 c 128,-1,2
 163 90 163 90 163 62 c 0,3,4
 163 35 163 35 143 14.5 c 128,-1,5
 123 -6 123 -6 96 -6 c 0,6,7
 67 -6 67 -6 47.5 14.5 c 128,-1,8
 28 35 28 35 28 62 c 0,9,10
 28 90 28 90 47.5 110 c 128,-1,11
 67 130 67 130 96 130 c 0,0,1
EndSplineSet
EndChar
StartChar: slash
Encoding: 47 47 363
Width: 484
Flags: W
LayerCount: 2
Back
Fore
SplineSet
417 771 m 0,0,1
 435 771 435 771 451 758.5 c 128,-1,2
 467 746 467 746 467 726 c 0,3,4
 467 716 467 716 463 708 c 2,5,-1
 104 -18 l 2,6,7
 99 -29 99 -29 88 -34.5 c 128,-1,8
 77 -40 77 -40 65 -40 c 0,9,10
 43 -40 43 -40 30 -26 c 128,-1,11
 17 -12 17 -12 17 4 c 0,12,13
 17 13 17 13 22 21 c 2,14,-1
 381 750 l 2,15,16
 386 761 386 761 396 766 c 128,-1,17
 406 771 406 771 417 771 c 0,0,1
EndSplineSet
EndChar
StartChar: zero
Encoding: 48 48 415
Width: 561
Flags: W
LayerCount: 2
Back
Fore
SplineSet
280 -6 m 0,0,1
 230 -6 230 -6 187.5 6.5 c 128,-1,2
 145 19 145 19 113.5 46 c 128,-1,3
 82 73 82 73 64 116.5 c 128,-1,4
 46 160 46 160 46 223 c 2,5,-1
 46 502 l 2,6,7
 46 565 46 565 64 608.5 c 128,-1,8
 82 652 82 652 113.5 679 c 128,-1,9
 145 706 145 706 187.5 718.5 c 128,-1,10
 230 731 230 731 280 731 c 0,11,12
 329 731 329 731 372 718.5 c 128,-1,13
 415 706 415 706 447 679 c 128,-1,14
 479 652 479 652 497 608.5 c 128,-1,15
 515 565 515 565 515 502 c 2,16,-1
 515 223 l 2,17,18
 515 160 515 160 497 116.5 c 128,-1,19
 479 73 479 73 447 46 c 128,-1,20
 415 19 415 19 372 6.5 c 128,-1,21
 329 -6 329 -6 280 -6 c 0,0,1
385 502 m 2,22,23
 385 562 385 562 357 589.5 c 128,-1,24
 329 617 329 617 280 617 c 0,25,26
 230 617 230 617 203 589.5 c 128,-1,27
 176 562 176 562 176 502 c 2,28,-1
 176 223 l 2,29,30
 176 163 176 163 203 135.5 c 128,-1,31
 230 108 230 108 280 108 c 0,32,33
 329 108 329 108 357 135.5 c 128,-1,34
 385 163 385 163 385 223 c 2,35,-1
 385 502 l 2,22,23
281 408 m 0,36,37
 302 408 302 408 314.5 395.5 c 128,-1,38
 327 383 327 383 327 362 c 0,39,40
 327 342 327 342 314.5 328.5 c 128,-1,41
 302 315 302 315 281 315 c 0,42,43
 259 315 259 315 246.5 328.5 c 128,-1,44
 234 342 234 342 234 362 c 0,45,46
 234 383 234 383 246.5 395.5 c 128,-1,47
 259 408 259 408 281 408 c 0,36,37
EndSplineSet
EndChar
StartChar: one
Encoding: 49 49 301
Width: 288
Flags: W
LayerCount: 2
Back
Fore
SplineSet
101 575 m 1,0,-1
 69 543 l 2,1,2
 63 538 63 538 56.5 536 c 128,-1,3
 50 534 50 534 45 534 c 0,4,5
 26 534 26 534 14.5 550 c 128,-1,6
 3 566 3 566 3 586 c 0,7,8
 3 600 3 600 9.5 612.5 c 128,-1,9
 16 625 16 625 28 633 c 2,10,-1
 146 723 l 2,11,12
 158 733 158 733 173 733 c 0,13,14
 193 733 193 733 212 722 c 128,-1,15
 231 711 231 711 231 691 c 2,16,-1
 231 41 l 2,17,18
 231 21 231 21 210.5 10.5 c 128,-1,19
 190 0 190 0 166 0 c 0,20,21
 141 0 141 0 121 10.5 c 128,-1,22
 101 21 101 21 101 41 c 2,23,-1
 101 575 l 1,0,-1
EndSplineSet
Substitution2: "'lnum' Lining Figures in Latin lookup 8 subtable" one.lnum
Substitution2: "'aalt' Access All Alternates in Latin lookup 0 subtable" one.lnum
EndChar
StartChar: two
Encoding: 50 50 379
Width: 507
Flags: W
LayerCount: 2
Back
Fore
SplineSet
40 547 m 0,0,1
 40 590 40 590 58 624 c 128,-1,2
 76 658 76 658 106 682 c 128,-1,3
 136 706 136 706 174.5 718.5 c 128,-1,4
 213 731 213 731 255 731 c 0,5,6
 298 731 298 731 338.5 717 c 128,-1,7
 379 703 379 703 410.5 677 c 128,-1,8
 442 651 442 651 460.5 613.5 c 128,-1,9
 479 576 479 576 479 528 c 0,10,11
 479 474 479 474 455.5 431.5 c 128,-1,12
 432 389 432 389 397 354 c 128,-1,13
 362 319 362 319 320.5 291 c 128,-1,14
 279 263 279 263 244 237.5 c 128,-1,15
 209 212 209 212 185.5 188 c 128,-1,16
 162 164 162 164 162 138 c 2,17,-1
 162 114 l 1,18,-1
 440 114 l 2,19,20
 457 114 457 114 469 97.5 c 128,-1,21
 481 81 481 81 481 58 c 256,22,23
 481 35 481 35 469 17.5 c 128,-1,24
 457 0 457 0 440 0 c 2,25,-1
 84 0 l 2,26,27
 75 0 75 0 65 3 c 128,-1,28
 55 6 55 6 46.5 11 c 128,-1,29
 38 16 38 16 32.5 24 c 128,-1,30
 27 32 27 32 27 41 c 2,31,-1
 27 138 l 2,32,33
 27 178 27 178 51 212.5 c 128,-1,34
 75 247 75 247 110.5 278 c 128,-1,35
 146 309 146 309 188 338 c 128,-1,36
 230 367 230 367 265.5 396.5 c 128,-1,37
 301 426 301 426 325 457.5 c 128,-1,38
 349 489 349 489 349 524 c 0,39,40
 349 539 349 539 343.5 555 c 128,-1,41
 338 571 338 571 327 584 c 128,-1,42
 316 597 316 597 298.5 605 c 128,-1,43
 281 613 281 613 256 613 c 0,44,45
 219 613 219 613 193 592.5 c 128,-1,46
 167 572 167 572 167 525 c 0,47,48
 167 507 167 507 149 492 c 128,-1,49
 131 477 131 477 99 477 c 0,50,51
 73 477 73 477 56.5 491.5 c 128,-1,52
 40 506 40 506 40 547 c 0,0,1
EndSplineSet
EndChar
StartChar: three
Encoding: 51 51 372
Width: 521
Flags: W
LayerCount: 2
Back
Fore
SplineSet
253 108 m 0,0,1
 310 108 310 108 335 133.5 c 128,-1,2
 360 159 360 159 360 216 c 2,3,-1
 360 235 l 2,4,5
 360 263 360 263 352 281 c 128,-1,6
 344 299 344 299 329 310 c 128,-1,7
 314 321 314 321 294 325.5 c 128,-1,8
 274 330 274 330 250 330 c 0,9,10
 228 330 228 330 219.5 345.5 c 128,-1,11
 211 361 211 361 211 381 c 0,12,13
 211 400 211 400 219.5 416 c 128,-1,14
 228 432 228 432 250 432 c 0,15,16
 269 432 269 432 285.5 435 c 128,-1,17
 302 438 302 438 314.5 448.5 c 128,-1,18
 327 459 327 459 334.5 478.5 c 128,-1,19
 342 498 342 498 342 530 c 0,20,21
 342 580 342 580 318.5 599 c 128,-1,22
 295 618 295 618 254 618 c 0,23,24
 205 618 205 618 185 599.5 c 128,-1,25
 165 581 165 581 165 551 c 0,26,27
 165 528 165 528 152 514.5 c 128,-1,28
 139 501 139 501 103 501 c 0,29,30
 81 501 81 501 68 504 c 128,-1,31
 55 507 55 507 48 513.5 c 128,-1,32
 41 520 41 520 38.5 530.5 c 128,-1,33
 36 541 36 541 36 557 c 0,34,35
 36 584 36 584 46.5 614.5 c 128,-1,36
 57 645 57 645 82 671 c 128,-1,37
 107 697 107 697 149.5 714 c 128,-1,38
 192 731 192 731 255 731 c 0,39,40
 300 731 300 731 339 721.5 c 128,-1,41
 378 712 378 712 406 691 c 128,-1,42
 434 670 434 670 450 636 c 128,-1,43
 466 602 466 602 466 552 c 0,44,45
 466 492 466 492 445.5 447.5 c 128,-1,46
 425 403 425 403 388 386 c 1,47,48
 432 369 432 369 461 333 c 128,-1,49
 490 297 490 297 490 235 c 2,50,-1
 490 216 l 2,51,52
 490 156 490 156 471 113.5 c 128,-1,53
 452 71 452 71 419.5 44.5 c 128,-1,54
 387 18 387 18 343 6 c 128,-1,55
 299 -6 299 -6 250 -6 c 0,56,57
 188 -6 188 -6 144.5 11 c 128,-1,58
 101 28 101 28 73.5 54.5 c 128,-1,59
 46 81 46 81 33 113.5 c 128,-1,60
 20 146 20 146 20 176 c 256,61,62
 20 206 20 206 34 216.5 c 128,-1,63
 48 227 48 227 82 227 c 0,64,65
 122 227 122 227 135.5 216 c 128,-1,66
 149 205 149 205 149 181 c 0,67,68
 149 147 149 147 177 127.5 c 128,-1,69
 205 108 205 108 253 108 c 0,0,1
EndSplineSet
EndChar
StartChar: four
Encoding: 52 52 224
Width: 502
Flags: W
LayerCount: 2
Back
Fore
SplineSet
283 159 m 1,0,-1
 43 159 l 2,1,2
 24 159 24 159 11.5 171 c 128,-1,3
 -1 183 -1 183 -1 205 c 0,4,5
 -1 218 -1 218 6 231 c 2,6,-1
 243 697 l 2,7,8
 252 716 252 716 267 723.5 c 128,-1,9
 282 731 282 731 298 731 c 0,10,11
 307 731 307 731 318 727.5 c 128,-1,12
 329 724 329 724 339 717.5 c 128,-1,13
 349 711 349 711 356 701.5 c 128,-1,14
 363 692 363 692 363 681 c 0,15,16
 363 674 363 674 358 664 c 2,17,-1
 166 280 l 1,18,-1
 283 280 l 1,19,-1
 283 385 l 2,20,21
 283 407 283 407 303.5 416.5 c 128,-1,22
 324 426 324 426 348 426 c 0,23,24
 373 426 373 426 393 416.5 c 128,-1,25
 413 407 413 407 413 385 c 2,26,-1
 413 280 l 1,27,-1
 460 280 l 2,28,29
 480 280 480 280 490.5 261 c 128,-1,30
 501 242 501 242 501 219 c 256,31,32
 501 196 501 196 488.5 177.5 c 128,-1,33
 476 159 476 159 460 159 c 2,34,-1
 413 159 l 1,35,-1
 413 41 l 2,36,37
 413 21 413 21 393 10.5 c 128,-1,38
 373 0 373 0 348 0 c 0,39,40
 324 0 324 0 303.5 10.5 c 128,-1,41
 283 21 283 21 283 41 c 2,42,-1
 283 159 l 1,0,-1
EndSplineSet
EndChar
StartChar: five
Encoding: 53 53 218
Width: 509
Flags: W
LayerCount: 2
Back
Fore
SplineSet
252 452 m 2,0,1
 301 452 301 452 344 440.5 c 128,-1,2
 387 429 387 429 419 403.5 c 128,-1,3
 451 378 451 378 469 337.5 c 128,-1,4
 487 297 487 297 487 238 c 2,5,-1
 487 219 l 2,6,7
 487 157 487 157 468.5 114.5 c 128,-1,8
 450 72 450 72 418.5 45 c 128,-1,9
 387 18 387 18 344.5 6 c 128,-1,10
 302 -6 302 -6 254 -6 c 0,11,12
 197 -6 197 -6 153 9 c 128,-1,13
 109 24 109 24 79 49.5 c 128,-1,14
 49 75 49 75 33.5 107.5 c 128,-1,15
 18 140 18 140 18 175 c 256,16,17
 18 210 18 210 35 222 c 128,-1,18
 52 234 52 234 83 234 c 0,19,20
 124 234 124 234 136 219.5 c 128,-1,21
 148 205 148 205 148 184 c 0,22,23
 148 147 148 147 177.5 127.5 c 128,-1,24
 207 108 207 108 251 108 c 0,25,26
 301 108 301 108 329 135 c 128,-1,27
 357 162 357 162 357 219 c 2,28,-1
 357 238 l 2,29,30
 357 295 357 295 329 322.5 c 128,-1,31
 301 350 301 350 252 350 c 2,32,-1
 104 350 l 2,33,34
 73 350 73 350 62.5 364 c 128,-1,35
 52 378 52 378 52 401 c 0,36,37
 52 407 52 407 52.5 413.5 c 128,-1,38
 53 420 53 420 53 427 c 2,39,-1
 79 690 l 2,40,41
 81 709 81 709 87 720 c 128,-1,42
 93 731 93 731 104 731 c 2,43,-1
 412 731 l 2,44,45
 432 731 432 731 441.5 713 c 128,-1,46
 451 695 451 695 451 674 c 0,47,48
 451 652 451 652 441.5 634.5 c 128,-1,49
 432 617 432 617 412 617 c 2,50,-1
 187 617 l 1,51,-1
 175 452 l 1,52,-1
 252 452 l 2,0,1
EndSplineSet
EndChar
StartChar: six
Encoding: 54 54 360
Width: 549
Flags: W
LayerCount: 2
Back
Fore
SplineSet
308 444 m 0,0,1
 350 444 350 444 388 434 c 128,-1,2
 426 424 426 424 454 400 c 128,-1,3
 482 376 482 376 498.5 336 c 128,-1,4
 515 296 515 296 515 237 c 2,5,-1
 515 223 l 2,6,7
 515 160 515 160 497 116.5 c 128,-1,8
 479 73 479 73 447.5 46 c 128,-1,9
 416 19 416 19 373 6.5 c 128,-1,10
 330 -6 330 -6 281 -6 c 0,11,12
 231 -6 231 -6 188.5 6.5 c 128,-1,13
 146 19 146 19 114 46 c 128,-1,14
 82 73 82 73 64 116.5 c 128,-1,15
 46 160 46 160 46 223 c 2,16,-1
 46 502 l 2,17,18
 46 565 46 565 64.5 608.5 c 128,-1,19
 83 652 83 652 115.5 679 c 128,-1,20
 148 706 148 706 192 718.5 c 128,-1,21
 236 731 236 731 287 731 c 0,22,23
 347 731 347 731 390 714 c 128,-1,24
 433 697 433 697 461 671 c 128,-1,25
 489 645 489 645 502 612 c 128,-1,26
 515 579 515 579 515 548 c 256,27,28
 515 517 515 517 500 505.5 c 128,-1,29
 485 494 485 494 454 494 c 0,30,31
 427 494 427 494 406.5 504 c 128,-1,32
 386 514 386 514 386 543 c 0,33,34
 386 561 386 561 378 574.5 c 128,-1,35
 370 588 370 588 356 597.5 c 128,-1,36
 342 607 342 607 323.5 612 c 128,-1,37
 305 617 305 617 284 617 c 0,38,39
 233 617 233 617 204 589.5 c 128,-1,40
 175 562 175 562 175 502 c 2,41,-1
 175 393 l 1,42,43
 200 422 200 422 234.5 433 c 128,-1,44
 269 444 269 444 308 444 c 0,0,1
175 215 m 2,45,46
 175 155 175 155 203 127.5 c 128,-1,47
 231 100 231 100 281 100 c 0,48,49
 330 100 330 100 357.5 127.5 c 128,-1,50
 385 155 385 155 385 215 c 2,51,-1
 385 228 l 2,52,53
 385 291 385 291 357.5 316.5 c 128,-1,54
 330 342 330 342 280 342 c 0,55,56
 232 342 232 342 203.5 318 c 128,-1,57
 175 294 175 294 175 237 c 2,58,-1
 175 215 l 2,45,46
EndSplineSet
EndChar
StartChar: seven
Encoding: 55 55 356
Width: 498
Flags: W
LayerCount: 2
Back
Fore
SplineSet
486 576 m 2,0,1
 486 560 486 560 478 539 c 128,-1,2
 470 518 470 518 461 500 c 2,3,-1
 208 14 l 2,4,5
 198 -5 198 -5 171 -5 c 0,6,7
 140 -5 140 -5 114.5 13.5 c 128,-1,8
 89 32 89 32 89 60 c 0,9,10
 89 73 89 73 95 83 c 2,11,-1
 356 551 l 1,12,-1
 356 617 l 1,13,-1
 147 617 l 1,14,-1
 147 536 l 2,15,16
 147 518 147 518 127 506 c 128,-1,17
 107 494 107 494 81 494 c 256,18,19
 55 494 55 494 36 506 c 128,-1,20
 17 518 17 518 17 536 c 2,21,-1
 17 690 l 2,22,23
 17 705 17 705 34.5 718 c 128,-1,24
 52 731 52 731 74 731 c 2,25,-1
 429 731 l 2,26,27
 438 731 438 731 448.5 727.5 c 128,-1,28
 459 724 459 724 467 718 c 128,-1,29
 475 712 475 712 480.5 704.5 c 128,-1,30
 486 697 486 697 486 690 c 2,31,-1
 486 576 l 2,0,1
EndSplineSet
EndChar
StartChar: eight
Encoding: 56 56 202
Width: 533
Flags: W
LayerCount: 2
Back
Fore
SplineSet
267 731 m 256,0,1
 313 731 313 731 351.5 721 c 128,-1,2
 390 711 390 711 418 690 c 128,-1,3
 446 669 446 669 462 635.5 c 128,-1,4
 478 602 478 602 478 554 c 0,5,6
 478 491 478 491 451.5 453 c 128,-1,7
 425 415 425 415 382 400 c 1,8,9
 436 380 436 380 468.5 335 c 128,-1,10
 501 290 501 290 501 212 c 2,11,-1
 501 200 l 2,12,13
 501 144 501 144 483 105 c 128,-1,14
 465 66 465 66 433.5 41 c 128,-1,15
 402 16 402 16 359 5 c 128,-1,16
 316 -6 316 -6 267 -6 c 0,17,18
 217 -6 217 -6 174.5 5 c 128,-1,19
 132 16 132 16 100 41 c 128,-1,20
 68 66 68 66 50 105 c 128,-1,21
 32 144 32 144 32 200 c 2,22,-1
 32 212 l 2,23,24
 32 290 32 290 64.5 335 c 128,-1,25
 97 380 97 380 151 400 c 1,26,27
 108 415 108 415 81.5 453 c 128,-1,28
 55 491 55 491 55 554 c 0,29,30
 55 602 55 602 71 635.5 c 128,-1,31
 87 669 87 669 115 690 c 128,-1,32
 143 711 143 711 182 721 c 128,-1,33
 221 731 221 731 267 731 c 256,0,1
371 235 m 2,34,35
 371 292 371 292 343.5 318.5 c 128,-1,36
 316 345 316 345 267 345 c 0,37,38
 217 345 217 345 189.5 318.5 c 128,-1,39
 162 292 162 292 162 235 c 2,40,-1
 162 215 l 2,41,42
 162 155 162 155 190 127.5 c 128,-1,43
 218 100 218 100 267 100 c 0,44,45
 317 100 317 100 344 128 c 128,-1,46
 371 156 371 156 371 215 c 2,47,-1
 371 235 l 2,34,35
267 625 m 0,48,49
 225 625 225 625 203 605 c 128,-1,50
 181 585 181 585 181 538 c 256,51,52
 181 491 181 491 203 471 c 128,-1,53
 225 451 225 451 267 451 c 0,54,55
 308 451 308 451 330.5 471 c 128,-1,56
 353 491 353 491 353 538 c 256,57,58
 353 585 353 585 330.5 605 c 128,-1,59
 308 625 308 625 267 625 c 0,48,49
EndSplineSet
EndChar
StartChar: nine
Encoding: 57 57 285
Width: 550
Flags: W
LayerCount: 2
Back
Fore
SplineSet
241 281 m 0,0,1
 199 281 199 281 161 291 c 128,-1,2
 123 301 123 301 95 325 c 128,-1,3
 67 349 67 349 50.5 389 c 128,-1,4
 34 429 34 429 34 488 c 2,5,-1
 34 502 l 2,6,7
 34 565 34 565 52 608.5 c 128,-1,8
 70 652 70 652 101.5 679 c 128,-1,9
 133 706 133 706 176 718.5 c 128,-1,10
 219 731 219 731 268 731 c 256,11,12
 317 731 317 731 360.5 718.5 c 128,-1,13
 404 706 404 706 435.5 679 c 128,-1,14
 467 652 467 652 485.5 608.5 c 128,-1,15
 504 565 504 565 504 502 c 2,16,-1
 504 223 l 2,17,18
 504 160 504 160 485.5 116.5 c 128,-1,19
 467 73 467 73 434 46 c 128,-1,20
 401 19 401 19 357 6.5 c 128,-1,21
 313 -6 313 -6 262 -6 c 0,22,23
 202 -6 202 -6 159 11 c 128,-1,24
 116 28 116 28 88.5 54 c 128,-1,25
 61 80 61 80 47.5 112.5 c 128,-1,26
 34 145 34 145 34 177 c 0,27,28
 34 208 34 208 49 219.5 c 128,-1,29
 64 231 64 231 95 231 c 0,30,31
 122 231 122 231 142.5 221 c 128,-1,32
 163 211 163 211 163 182 c 0,33,34
 163 147 163 147 193.5 127.5 c 128,-1,35
 224 108 224 108 266 108 c 0,36,37
 317 108 317 108 345.5 135.5 c 128,-1,38
 374 163 374 163 374 223 c 2,39,-1
 374 332 l 1,40,41
 349 303 349 303 314.5 292 c 128,-1,42
 280 281 280 281 241 281 c 0,0,1
374 510 m 2,43,44
 374 570 374 570 346 597.5 c 128,-1,45
 318 625 318 625 268 625 c 0,46,47
 219 625 219 625 191.5 597.5 c 128,-1,48
 164 570 164 570 164 510 c 2,49,-1
 164 497 l 2,50,51
 164 434 164 434 191.5 408.5 c 128,-1,52
 219 383 219 383 269 383 c 0,53,54
 317 383 317 383 345.5 407 c 128,-1,55
 374 431 374 431 374 488 c 2,56,-1
 374 510 l 2,43,44
EndSplineSet
EndChar
StartChar: colon
Encoding: 58 58 177
Width: 223
Flags: W
LayerCount: 2
Back
Fore
SplineSet
112 130 m 0,0,1
 139 130 139 130 159 110 c 128,-1,2
 179 90 179 90 179 62 c 0,3,4
 179 35 179 35 159 14.5 c 128,-1,5
 139 -6 139 -6 112 -6 c 0,6,7
 83 -6 83 -6 63.5 14.5 c 128,-1,8
 44 35 44 35 44 62 c 0,9,10
 44 90 44 90 63.5 110 c 128,-1,11
 83 130 83 130 112 130 c 0,0,1
112 422 m 0,12,13
 139 422 139 422 159 402 c 128,-1,14
 179 382 179 382 179 354 c 0,15,16
 179 327 179 327 159 306.5 c 128,-1,17
 139 286 139 286 112 286 c 0,18,19
 83 286 83 286 63.5 306.5 c 128,-1,20
 44 327 44 327 44 354 c 0,21,22
 44 382 44 382 63.5 402 c 128,-1,23
 83 422 83 422 112 422 c 0,12,13
EndSplineSet
EndChar
StartChar: semicolon
Encoding: 59 59 355
Width: 224
Flags: W
LayerCount: 2
Back
Fore
SplineSet
109 130 m 256,0,1
 137 130 137 130 157 110.5 c 128,-1,2
 177 91 177 91 177 63 c 0,3,4
 177 59 177 59 176 53 c 128,-1,5
 175 47 175 47 169.5 32.5 c 128,-1,6
 164 18 164 18 153 -9.5 c 128,-1,7
 142 -37 142 -37 122 -83 c 0,8,9
 117 -93 117 -93 110 -96.5 c 128,-1,10
 103 -100 103 -100 95 -100 c 0,11,12
 81 -100 81 -100 66.5 -91.5 c 128,-1,13
 52 -83 52 -83 52 -66 c 0,14,15
 52 -59 52 -59 56 -52 c 2,16,-1
 79 1 l 1,17,18
 62 10 62 10 52 26 c 128,-1,19
 42 42 42 42 42 62 c 0,20,21
 42 90 42 90 61.5 110 c 128,-1,22
 81 130 81 130 109 130 c 256,0,1
115 422 m 0,23,24
 142 422 142 422 162 402 c 128,-1,25
 182 382 182 382 182 354 c 0,26,27
 182 327 182 327 162 306.5 c 128,-1,28
 142 286 142 286 115 286 c 0,29,30
 86 286 86 286 66.5 306.5 c 128,-1,31
 47 327 47 327 47 354 c 0,32,33
 47 382 47 382 66.5 402 c 128,-1,34
 86 422 86 422 115 422 c 0,23,24
EndSplineSet
EndChar
StartChar: less
Encoding: 60 60 269
Width: 418
Flags: W
LayerCount: 2
Back
Fore
SplineSet
19 277 m 256,0,1
 19 288 19 288 25.5 302 c 128,-1,2
 32 316 32 316 46 325 c 2,3,-1
 304 494 l 2,4,5
 311 498 311 498 321 498 c 256,6,7
 331 498 331 498 341 493.5 c 128,-1,8
 351 489 351 489 359 480.5 c 128,-1,9
 367 472 367 472 372.5 461 c 128,-1,10
 378 450 378 450 378 437 c 0,11,12
 378 414 378 414 362 404 c 2,13,-1
 169 277 l 1,14,-1
 362 151 l 2,15,16
 370 146 370 146 374 137 c 128,-1,17
 378 128 378 128 378 117 c 0,18,19
 378 91 378 91 359.5 73.5 c 128,-1,20
 341 56 341 56 321 56 c 0,21,22
 310 56 310 56 304 61 c 2,23,-1
 46 229 l 2,24,25
 32 239 32 239 25.5 252.5 c 128,-1,26
 19 266 19 266 19 277 c 256,0,1
EndSplineSet
EndChar
StartChar: equal
Encoding: 61 61 211
Width: 445
Flags: W
LayerCount: 2
Back
Fore
SplineSet
53 144 m 0,0,1
 53 167 53 167 64 182.5 c 128,-1,2
 75 198 75 198 93 198 c 2,3,-1
 351 198 l 2,4,5
 367 198 367 198 380 182.5 c 128,-1,6
 393 167 393 167 393 144 c 0,7,8
 393 120 393 120 380 105.5 c 128,-1,9
 367 91 367 91 351 91 c 2,10,-1
 93 91 l 2,11,12
 75 91 75 91 64 105.5 c 128,-1,13
 53 120 53 120 53 144 c 0,0,1
53 347 m 0,14,15
 53 370 53 370 64 385.5 c 128,-1,16
 75 401 75 401 93 401 c 2,17,-1
 351 401 l 2,18,19
 367 401 367 401 380 385.5 c 128,-1,20
 393 370 393 370 393 347 c 0,21,22
 393 323 393 323 380 308.5 c 128,-1,23
 367 294 367 294 351 294 c 2,24,-1
 93 294 l 2,25,26
 75 294 75 294 64 308.5 c 128,-1,27
 53 323 53 323 53 347 c 0,14,15
EndSplineSet
EndChar
StartChar: greater
Encoding: 62 62 236
Width: 417
Flags: W
LayerCount: 2
Back
Fore
SplineSet
398 277 m 256,0,1
 398 266 398 266 392 252.5 c 128,-1,2
 386 239 386 239 372 229 c 2,3,-1
 113 61 l 2,4,5
 108 56 108 56 97 56 c 0,6,7
 77 56 77 56 58 73.5 c 128,-1,8
 39 91 39 91 39 117 c 0,9,10
 39 128 39 128 43.5 137 c 128,-1,11
 48 146 48 146 55 151 c 2,12,-1
 249 277 l 1,13,-1
 55 404 l 2,14,15
 48 409 48 409 43.5 417.5 c 128,-1,16
 39 426 39 426 39 437 c 0,17,18
 39 450 39 450 44.5 461 c 128,-1,19
 50 472 50 472 58.5 480.5 c 128,-1,20
 67 489 67 489 77 493.5 c 128,-1,21
 87 498 87 498 97 498 c 0,22,23
 108 498 108 498 113 494 c 2,24,-1
 372 325 l 2,25,26
 386 316 386 316 392 302 c 128,-1,27
 398 288 398 288 398 277 c 256,0,1
EndSplineSet
EndChar
StartChar: question
Encoding: 63 63 329
Width: 435
Flags: W
LayerCount: 2
Back
Fore
SplineSet
411 566 m 0,0,1
 411 527 411 527 397 495.5 c 128,-1,2
 383 464 383 464 363.5 439.5 c 128,-1,3
 344 415 344 415 324 397.5 c 128,-1,4
 304 380 304 380 293 370 c 0,5,6
 275 355 275 355 264.5 340.5 c 128,-1,7
 254 326 254 326 249.5 310.5 c 128,-1,8
 245 295 245 295 244 277.5 c 128,-1,9
 243 260 243 260 243 238 c 0,10,11
 243 224 243 224 233.5 213 c 128,-1,12
 224 202 224 202 193 202 c 0,13,14
 168 202 168 202 157.5 214 c 128,-1,15
 147 226 147 226 147 258 c 0,16,17
 147 293 147 293 152.5 318.5 c 128,-1,18
 158 344 158 344 166.5 362.5 c 128,-1,19
 175 381 175 381 185.5 394 c 128,-1,20
 196 407 196 407 207 416 c 0,21,22
 220 428 220 428 237 441.5 c 128,-1,23
 254 455 254 455 269 471 c 128,-1,24
 284 487 284 487 294.5 506.5 c 128,-1,25
 305 526 305 526 305 552 c 0,26,27
 305 594 305 594 276.5 616 c 128,-1,28
 248 638 248 638 202 638 c 0,29,30
 165 638 165 638 146.5 627 c 128,-1,31
 128 616 128 616 117 603.5 c 128,-1,32
 106 591 106 591 97 580 c 128,-1,33
 88 569 88 569 71 569 c 256,34,35
 54 569 54 569 37.5 580.5 c 128,-1,36
 21 592 21 592 21 617 c 0,37,38
 21 635 21 635 32.5 655.5 c 128,-1,39
 44 676 44 676 67.5 694 c 128,-1,40
 91 712 91 712 125.5 723.5 c 128,-1,41
 160 735 160 735 205 735 c 0,42,43
 253 735 253 735 291 722 c 128,-1,44
 329 709 329 709 355.5 686.5 c 128,-1,45
 382 664 382 664 396.5 633 c 128,-1,46
 411 602 411 602 411 566 c 0,0,1
194 130 m 256,47,48
 222 130 222 130 242 110 c 128,-1,49
 262 90 262 90 262 62 c 0,50,51
 262 35 262 35 242.5 14.5 c 128,-1,52
 223 -6 223 -6 194 -6 c 256,53,54
 165 -6 165 -6 146 14.5 c 128,-1,55
 127 35 127 35 127 62 c 0,56,57
 127 90 127 90 146.5 110 c 128,-1,58
 166 130 166 130 194 130 c 256,47,48
EndSplineSet
EndChar
StartChar: at
Encoding: 64 64 153
Width: 737
Flags: W
LayerCount: 2
Back
Fore
SplineSet
232 361 m 0,0,1
 232 375 232 375 244.5 387.5 c 128,-1,2
 257 400 257 400 277.5 409 c 128,-1,3
 298 418 298 418 323.5 423 c 128,-1,4
 349 428 349 428 375 428 c 0,5,6
 407 428 407 428 436 419.5 c 128,-1,7
 465 411 465 411 487.5 394.5 c 128,-1,8
 510 378 510 378 523 352.5 c 128,-1,9
 536 327 536 327 536 294 c 2,10,-1
 536 125 l 1,11,12
 540 99 540 99 549 88 c 128,-1,13
 558 77 558 77 572 77 c 0,14,15
 591 77 591 77 602.5 92 c 128,-1,16
 614 107 614 107 620 129 c 128,-1,17
 626 151 626 151 628 175.5 c 128,-1,18
 630 200 630 200 630 219 c 0,19,20
 630 352 630 352 569.5 424 c 128,-1,21
 509 496 509 496 380 496 c 0,22,23
 305 496 305 496 255.5 472.5 c 128,-1,24
 206 449 206 449 176.5 410 c 128,-1,25
 147 371 147 371 134.5 319 c 128,-1,26
 122 267 122 267 122 210 c 0,27,28
 122 157 122 157 133 108.5 c 128,-1,29
 144 60 144 60 170 23 c 128,-1,30
 196 -14 196 -14 240 -36 c 128,-1,31
 284 -58 284 -58 350 -58 c 0,32,33
 380 -58 380 -58 401.5 -54 c 128,-1,34
 423 -50 423 -50 438.5 -45 c 128,-1,35
 454 -40 454 -40 464.5 -36 c 128,-1,36
 475 -32 475 -32 483 -32 c 0,37,38
 499 -32 499 -32 507 -46 c 128,-1,39
 515 -60 515 -60 515 -70 c 0,40,41
 515 -86 515 -86 496 -98 c 128,-1,42
 477 -110 477 -110 449 -117.5 c 128,-1,43
 421 -125 421 -125 390 -128.5 c 128,-1,44
 359 -132 359 -132 335 -132 c 0,45,46
 277 -132 277 -132 223.5 -111 c 128,-1,47
 170 -90 170 -90 128.5 -48 c 128,-1,48
 87 -6 87 -6 62.5 58 c 128,-1,49
 38 122 38 122 38 209 c 0,50,51
 38 285 38 285 58.5 350.5 c 128,-1,52
 79 416 79 416 121.5 465 c 128,-1,53
 164 514 164 514 228.5 542 c 128,-1,54
 293 570 293 570 380 570 c 0,55,56
 459 570 459 570 520.5 547 c 128,-1,57
 582 524 582 524 624.5 481.5 c 128,-1,58
 667 439 667 439 689.5 377.5 c 128,-1,59
 712 316 712 316 712 239 c 0,60,61
 712 193 712 193 703.5 151.5 c 128,-1,62
 695 110 695 110 677 79 c 128,-1,63
 659 48 659 48 631 30 c 128,-1,64
 603 12 603 12 564 12 c 0,65,66
 521 12 521 12 493.5 33 c 128,-1,67
 466 54 466 54 459 85 c 1,68,69
 435 54 435 54 405.5 35.5 c 128,-1,70
 376 17 376 17 334 17 c 0,71,72
 311 17 311 17 288.5 23.5 c 128,-1,73
 266 30 266 30 248.5 44 c 128,-1,74
 231 58 231 58 220 80 c 128,-1,75
 209 102 209 102 209 132 c 0,76,77
 209 167 209 167 224 190.5 c 128,-1,78
 239 214 239 214 266 228.5 c 128,-1,79
 293 243 293 243 329.5 249 c 128,-1,80
 366 255 366 255 410 255 c 2,81,-1
 442 255 l 1,82,-1
 442 270 l 2,83,84
 442 305 442 305 422.5 322.5 c 128,-1,85
 403 340 403 340 361 340 c 0,86,87
 338 340 338 340 322.5 336 c 128,-1,88
 307 332 307 332 296 326.5 c 128,-1,89
 285 321 285 321 277.5 317 c 128,-1,90
 270 313 270 313 263 313 c 256,91,92
 256 313 256 313 250.5 318 c 128,-1,93
 245 323 245 323 241 330.5 c 128,-1,94
 237 338 237 338 234.5 346.5 c 128,-1,95
 232 355 232 355 232 361 c 0,0,1
447 199 m 1,96,-1
 422 199 l 2,97,98
 370 199 370 199 341 184 c 128,-1,99
 312 169 312 169 312 134 c 0,100,101
 312 110 312 110 325 98 c 128,-1,102
 338 86 338 86 358 86 c 0,103,104
 375 86 375 86 391 93 c 128,-1,105
 407 100 407 100 419.5 111.5 c 128,-1,106
 432 123 432 123 439.5 138 c 128,-1,107
 447 153 447 153 447 168 c 2,108,-1
 447 199 l 1,96,-1
EndSplineSet
EndChar
StartChar: A
Encoding: 65 65 1
Width: 575
Flags: W
LayerCount: 2
Back
Fore
SplineSet
91 0 m 0,0,1
 78 0 78 0 63.5 4 c 128,-1,2
 49 8 49 8 37 15 c 128,-1,3
 25 22 25 22 17 32 c 128,-1,4
 9 42 9 42 9 54 c 0,5,6
 9 56 9 56 11 64 c 2,7,-1
 204 693 l 2,8,9
 211 716 211 716 235 726.5 c 128,-1,10
 259 737 259 737 287 737 c 0,11,12
 316 737 316 737 340 726.5 c 128,-1,13
 364 716 364 716 371 693 c 2,14,-1
 564 64 l 2,15,16
 566 56 566 56 566 54 c 0,17,18
 566 42 566 42 558 32.5 c 128,-1,19
 550 23 550 23 538 15.5 c 128,-1,20
 526 8 526 8 511.5 4 c 128,-1,21
 497 0 497 0 484 0 c 0,22,23
 467 0 467 0 455.5 6 c 128,-1,24
 444 12 444 12 440 26 c 2,25,-1
 402 159 l 1,26,-1
 173 159 l 1,27,-1
 135 26 l 2,28,29
 131 12 131 12 119.5 6 c 128,-1,30
 108 0 108 0 91 0 c 0,0,1
374 261 m 1,31,-1
 287 568 l 1,32,-1
 200 261 l 1,33,-1
 374 261 l 1,31,-1
EndSplineSet
EndChar
StartChar: B
Encoding: 66 66 13
Width: 562
Flags: W
LayerCount: 2
Back
Fore
SplineSet
60 690 m 2,0,1
 60 710 60 710 77.5 720.5 c 128,-1,2
 95 731 95 731 117 731 c 2,3,-1
 310 731 l 2,4,5
 349 731 349 731 385.5 723.5 c 128,-1,6
 422 716 422 716 449.5 696.5 c 128,-1,7
 477 677 477 677 494 642.5 c 128,-1,8
 511 608 511 608 511 555 c 0,9,10
 511 493 511 493 488.5 453 c 128,-1,11
 466 413 466 413 426 396 c 1,12,13
 449 387 449 387 468 374.5 c 128,-1,14
 487 362 487 362 500.5 343 c 128,-1,15
 514 324 514 324 521.5 297 c 128,-1,16
 529 270 529 270 529 233 c 2,17,-1
 529 212 l 2,18,19
 529 153 529 153 513.5 113 c 128,-1,20
 498 73 498 73 471 47.5 c 128,-1,21
 444 22 444 22 407.5 11 c 128,-1,22
 371 0 371 0 329 0 c 2,23,-1
 117 0 l 2,24,25
 91 0 91 0 75.5 12 c 128,-1,26
 60 24 60 24 60 40 c 2,27,-1
 60 690 l 2,0,1
302 114 m 2,28,29
 348 114 348 114 373.5 140 c 128,-1,30
 399 166 399 166 399 223 c 2,31,-1
 399 239 l 2,32,33
 399 298 399 298 373.5 321.5 c 128,-1,34
 348 345 348 345 302 345 c 2,35,-1
 189 345 l 1,36,-1
 189 114 l 1,37,-1
 302 114 l 2,28,29
189 447 m 1,38,-1
 301 447 l 2,39,40
 342 447 342 447 361.5 471 c 128,-1,41
 381 495 381 495 381 533 c 0,42,43
 381 572 381 572 359.5 594.5 c 128,-1,44
 338 617 338 617 300 617 c 2,45,-1
 189 617 l 1,46,-1
 189 447 l 1,38,-1
EndSplineSet
EndChar
StartChar: D
Encoding: 68 68 21
Width: 580
Flags: W
LayerCount: 2
Back
Fore
SplineSet
294 731 m 2,0,1
 343 731 343 731 386 718.5 c 128,-1,2
 429 706 429 706 461 679 c 128,-1,3
 493 652 493 652 511 608.5 c 128,-1,4
 529 565 529 565 529 502 c 2,5,-1
 529 229 l 2,6,7
 529 166 529 166 511 122.5 c 128,-1,8
 493 79 493 79 461 52 c 128,-1,9
 429 25 429 25 386 12.5 c 128,-1,10
 343 0 343 0 294 0 c 2,11,-1
 117 0 l 2,12,13
 91 0 91 0 75.5 12 c 128,-1,14
 60 24 60 24 60 40 c 2,15,-1
 60 691 l 2,16,17
 60 707 60 707 75.5 719 c 128,-1,18
 91 731 91 731 117 731 c 2,19,-1
 294 731 l 2,0,1
190 617 m 1,20,-1
 190 114 l 1,21,-1
 294 114 l 2,22,23
 344 114 344 114 371.5 142 c 128,-1,24
 399 170 399 170 399 229 c 2,25,-1
 399 502 l 2,26,27
 399 561 399 561 371.5 589 c 128,-1,28
 344 617 344 617 294 617 c 2,29,-1
 190 617 l 1,20,-1
EndSplineSet
EndChar
StartChar: E
Encoding: 69 69 25
Width: 530
Flags: W
LayerCount: 2
Back
Fore
SplineSet
190 417 m 1,0,-1
 342 417 l 2,1,2
 362 417 362 417 372.5 401 c 128,-1,3
 383 385 383 385 383 365 c 0,4,5
 383 348 383 348 373 331.5 c 128,-1,6
 363 315 363 315 342 315 c 2,7,-1
 190 315 l 1,8,-1
 190 114 l 1,9,-1
 473 114 l 2,10,11
 493 114 493 114 503.5 96.5 c 128,-1,12
 514 79 514 79 514 56 c 0,13,14
 514 36 514 36 504 18 c 128,-1,15
 494 0 494 0 473 0 c 2,16,-1
 117 0 l 2,17,18
 95 0 95 0 77.5 10.5 c 128,-1,19
 60 21 60 21 60 41 c 2,20,-1
 60 690 l 2,21,22
 60 710 60 710 77.5 720.5 c 128,-1,23
 95 731 95 731 117 731 c 2,24,-1
 473 731 l 2,25,26
 494 731 494 731 504 713 c 128,-1,27
 514 695 514 695 514 675 c 0,28,29
 514 652 514 652 503.5 634.5 c 128,-1,30
 493 617 493 617 473 617 c 2,31,-1
 190 617 l 1,32,-1
 190 417 l 1,0,-1
EndSplineSet
EndChar
StartChar: F
Encoding: 70 70 38
Width: 508
Flags: W
LayerCount: 2
Back
Fore
SplineSet
60 690 m 2,0,1
 60 710 60 710 77.5 720.5 c 128,-1,2
 95 731 95 731 117 731 c 2,3,-1
 466 731 l 2,4,5
 487 731 487 731 496.5 713 c 128,-1,6
 506 695 506 695 506 675 c 0,7,8
 506 652 506 652 496 634.5 c 128,-1,9
 486 617 486 617 466 617 c 2,10,-1
 190 617 l 1,11,-1
 190 417 l 1,12,-1
 343 417 l 2,13,14
 363 417 363 417 373 401 c 128,-1,15
 383 385 383 385 383 365 c 0,16,17
 383 348 383 348 373.5 331.5 c 128,-1,18
 364 315 364 315 343 315 c 2,19,-1
 190 315 l 1,20,-1
 190 41 l 2,21,22
 190 21 190 21 169.5 10.5 c 128,-1,23
 149 0 149 0 125 0 c 0,24,25
 100 0 100 0 80 10.5 c 128,-1,26
 60 21 60 21 60 41 c 2,27,-1
 60 690 l 2,0,1
EndSplineSet
EndChar
StartChar: H
Encoding: 72 72 44
Width: 605
Flags: W
LayerCount: 2
Back
Fore
SplineSet
415 328 m 1,0,-1
 190 328 l 1,1,-1
 190 41 l 2,2,3
 190 21 190 21 169.5 10.5 c 128,-1,4
 149 0 149 0 125 0 c 0,5,6
 100 0 100 0 80 10.5 c 128,-1,7
 60 21 60 21 60 41 c 2,8,-1
 60 691 l 2,9,10
 60 712 60 712 80 721.5 c 128,-1,11
 100 731 100 731 125 731 c 0,12,13
 149 731 149 731 169.5 721.5 c 128,-1,14
 190 712 190 712 190 691 c 2,15,-1
 190 430 l 1,16,-1
 415 430 l 1,17,-1
 415 691 l 2,18,19
 415 712 415 712 435 721.5 c 128,-1,20
 455 731 455 731 480 731 c 0,21,22
 504 731 504 731 524.5 721.5 c 128,-1,23
 545 712 545 712 545 691 c 2,24,-1
 545 41 l 2,25,26
 545 21 545 21 524.5 10.5 c 128,-1,27
 504 0 504 0 480 0 c 0,28,29
 455 0 455 0 435 10.5 c 128,-1,30
 415 21 415 21 415 41 c 2,31,-1
 415 328 l 1,0,-1
EndSplineSet
EndChar
StartChar: I
Encoding: 73 73 47
Width: 250
Flags: W
LayerCount: 2
Back
Fore
SplineSet
60 691 m 2,0,1
 60 712 60 712 80 721.5 c 128,-1,2
 100 731 100 731 125 731 c 0,3,4
 149 731 149 731 169.5 721.5 c 128,-1,5
 190 712 190 712 190 691 c 2,6,-1
 190 41 l 2,7,8
 190 21 190 21 169.5 10.5 c 128,-1,9
 149 0 149 0 125 0 c 0,10,11
 100 0 100 0 80 10.5 c 128,-1,12
 60 21 60 21 60 41 c 2,13,-1
 60 691 l 2,0,1
EndSplineSet
EndChar
StartChar: J
Encoding: 74 74 58
Width: 539
Flags: W
LayerCount: 2
Back
Fore
SplineSet
250 617 m 2,0,1
 230 617 230 617 219.5 634.5 c 128,-1,2
 209 652 209 652 209 675 c 0,3,4
 209 695 209 695 218.5 713 c 128,-1,5
 228 731 228 731 250 731 c 2,6,-1
 425 731 l 2,7,8
 447 731 447 731 464.5 720.5 c 128,-1,9
 482 710 482 710 482 690 c 2,10,-1
 482 223 l 2,11,12
 482 160 482 160 464 116.5 c 128,-1,13
 446 73 446 73 414.5 46 c 128,-1,14
 383 19 383 19 341 6.5 c 128,-1,15
 299 -6 299 -6 252 -6 c 0,16,17
 200 -6 200 -6 156 7.5 c 128,-1,18
 112 21 112 21 80.5 47 c 128,-1,19
 49 73 49 73 31 109.5 c 128,-1,20
 13 146 13 146 13 193 c 0,21,22
 13 231 13 231 29 243.5 c 128,-1,23
 45 256 45 256 78 256 c 0,24,25
 104 256 104 256 122.5 247.5 c 128,-1,26
 141 239 141 239 143 215 c 0,27,28
 144 196 144 196 148.5 177 c 128,-1,29
 153 158 153 158 164.5 142.5 c 128,-1,30
 176 127 176 127 196 117.5 c 128,-1,31
 216 108 216 108 246 108 c 0,32,33
 297 108 297 108 324.5 136 c 128,-1,34
 352 164 352 164 352 223 c 2,35,-1
 352 617 l 1,36,-1
 250 617 l 2,0,1
EndSplineSet
EndChar
StartChar: K
Encoding: 75 75 60
Width: 552
Flags: W
LayerCount: 2
Back
Fore
SplineSet
60 691 m 2,0,1
 60 712 60 712 80 721.5 c 128,-1,2
 100 731 100 731 125 731 c 0,3,4
 149 731 149 731 169.5 721.5 c 128,-1,5
 190 712 190 712 190 691 c 2,6,-1
 190 418 l 1,7,-1
 406 712 l 2,8,9
 420 731 420 731 442 731 c 0,10,11
 454 731 454 731 467.5 725 c 128,-1,12
 481 719 481 719 492 709.5 c 128,-1,13
 503 700 503 700 510 688 c 128,-1,14
 517 676 517 676 517 664 c 0,15,16
 517 659 517 659 515.5 652.5 c 128,-1,17
 514 646 514 646 509 639 c 2,18,-1
 330 415 l 1,19,-1
 548 83 l 2,20,21
 555 73 555 73 555 60 c 0,22,23
 555 48 555 48 548 36.5 c 128,-1,24
 541 25 541 25 530 15.5 c 128,-1,25
 519 6 519 6 505 0.5 c 128,-1,26
 491 -5 491 -5 477 -5 c 0,27,28
 464 -5 464 -5 452 0.5 c 128,-1,29
 440 6 440 6 432 20 c 2,30,-1
 244 305 l 1,31,-1
 190 237 l 1,32,-1
 190 41 l 2,33,34
 190 21 190 21 169.5 10.5 c 128,-1,35
 149 0 149 0 125 0 c 0,36,37
 100 0 100 0 80 10.5 c 128,-1,38
 60 21 60 21 60 41 c 2,39,-1
 60 691 l 2,0,1
EndSplineSet
EndChar
StartChar: L
Encoding: 76 76 62
Width: 484
Flags: W
LayerCount: 2
Back
Fore
SplineSet
117 0 m 2,0,1
 95 0 95 0 77.5 10.5 c 128,-1,2
 60 21 60 21 60 41 c 2,3,-1
 60 691 l 2,4,5
 60 712 60 712 80 721.5 c 128,-1,6
 100 731 100 731 125 731 c 0,7,8
 149 731 149 731 169.5 721.5 c 128,-1,9
 190 712 190 712 190 691 c 2,10,-1
 190 114 l 1,11,-1
 434 114 l 2,12,13
 454 114 454 114 463.5 96.5 c 128,-1,14
 473 79 473 79 473 57 c 0,15,16
 473 36 473 36 463.5 18 c 128,-1,17
 454 0 454 0 434 0 c 2,18,-1
 117 0 l 2,0,1
EndSplineSet
EndChar
StartChar: M
Encoding: 77 77 68
Width: 699
Flags: W
LayerCount: 2
Back
Fore
SplineSet
392 263 m 2,0,1
 384 248 384 248 372 242.5 c 128,-1,2
 360 237 360 237 348 237 c 256,3,4
 336 237 336 237 324.5 242.5 c 128,-1,5
 313 248 313 248 305 263 c 2,6,-1
 190 479 l 1,7,-1
 190 41 l 2,8,9
 190 21 190 21 169.5 10.5 c 128,-1,10
 149 0 149 0 125 0 c 0,11,12
 100 0 100 0 80 10.5 c 128,-1,13
 60 21 60 21 60 41 c 2,14,-1
 60 666 l 2,15,16
 60 702 60 702 80 716.5 c 128,-1,17
 100 731 100 731 125 731 c 0,18,19
 143 731 143 731 156 728.5 c 128,-1,20
 169 726 169 726 180.5 718.5 c 128,-1,21
 192 711 192 711 203 697.5 c 128,-1,22
 214 684 214 684 226 662 c 2,23,-1
 349 438 l 1,24,-1
 472 662 l 2,25,26
 484 684 484 684 495 697.5 c 128,-1,27
 506 711 506 711 517.5 718.5 c 128,-1,28
 529 726 529 726 542.5 728.5 c 128,-1,29
 556 731 556 731 574 731 c 0,30,31
 599 731 599 731 619 716.5 c 128,-1,32
 639 702 639 702 639 666 c 2,33,-1
 639 41 l 2,34,35
 639 21 639 21 618.5 10.5 c 128,-1,36
 598 0 598 0 574 0 c 0,37,38
 549 0 549 0 529 10.5 c 128,-1,39
 509 21 509 21 509 41 c 2,40,-1
 509 471 l 1,41,-1
 392 263 l 2,0,1
EndSplineSet
EndChar
StartChar: N
Encoding: 78 78 69
Width: 605
Flags: W
LayerCount: 2
Back
Fore
SplineSet
480 0 m 0,0,1
 457 0 457 0 437.5 9 c 128,-1,2
 418 18 418 18 405 41 c 2,3,-1
 190 443 l 1,4,-1
 190 41 l 2,5,6
 190 21 190 21 169.5 10.5 c 128,-1,7
 149 0 149 0 125 0 c 0,8,9
 100 0 100 0 80 10.5 c 128,-1,10
 60 21 60 21 60 41 c 2,11,-1
 60 690 l 2,12,13
 60 711 60 711 80 721 c 128,-1,14
 100 731 100 731 125 731 c 0,15,16
 143 731 143 731 156 728.5 c 128,-1,17
 169 726 169 726 179.5 718.5 c 128,-1,18
 190 711 190 711 200 697.5 c 128,-1,19
 210 684 210 684 222 662 c 2,20,-1
 415 289 l 1,21,-1
 415 691 l 2,22,23
 415 712 415 712 435 721.5 c 128,-1,24
 455 731 455 731 480 731 c 0,25,26
 504 731 504 731 524.5 721.5 c 128,-1,27
 545 712 545 712 545 691 c 2,28,-1
 545 41 l 2,29,30
 545 21 545 21 524.5 10.5 c 128,-1,31
 504 0 504 0 480 0 c 0,0,1
EndSplineSet
EndChar
StartChar: O
Encoding: 79 79 74
Width: 572
Flags: W
LayerCount: 2
Back
Fore
SplineSet
286 -6 m 0,0,1
 236 -6 236 -6 193.5 6.5 c 128,-1,2
 151 19 151 19 119.5 46 c 128,-1,3
 88 73 88 73 70 116.5 c 128,-1,4
 52 160 52 160 52 223 c 2,5,-1
 52 502 l 2,6,7
 52 565 52 565 70 608.5 c 128,-1,8
 88 652 88 652 119.5 679 c 128,-1,9
 151 706 151 706 193.5 718.5 c 128,-1,10
 236 731 236 731 286 731 c 0,11,12
 335 731 335 731 378 718.5 c 128,-1,13
 421 706 421 706 453 679 c 128,-1,14
 485 652 485 652 503 608.5 c 128,-1,15
 521 565 521 565 521 502 c 2,16,-1
 521 223 l 2,17,18
 521 160 521 160 503 116.5 c 128,-1,19
 485 73 485 73 453 46 c 128,-1,20
 421 19 421 19 378 6.5 c 128,-1,21
 335 -6 335 -6 286 -6 c 0,0,1
391 502 m 2,22,23
 391 562 391 562 363 589.5 c 128,-1,24
 335 617 335 617 286 617 c 0,25,26
 236 617 236 617 209 589.5 c 128,-1,27
 182 562 182 562 182 502 c 2,28,-1
 182 223 l 2,29,30
 182 163 182 163 209 135.5 c 128,-1,31
 236 108 236 108 286 108 c 0,32,33
 335 108 335 108 363 135.5 c 128,-1,34
 391 163 391 163 391 223 c 2,35,-1
 391 502 l 2,22,23
EndSplineSet
EndChar
StartChar: P
Encoding: 80 80 87
Width: 557
Flags: W
LayerCount: 2
Back
Fore
SplineSet
60 691 m 2,0,1
 60 707 60 707 73 719 c 128,-1,2
 86 731 86 731 109 731 c 2,3,-1
 310 731 l 2,4,5
 358 731 358 731 399 719 c 128,-1,6
 440 707 440 707 471 680 c 128,-1,7
 502 653 502 653 519.5 610 c 128,-1,8
 537 567 537 567 537 506 c 2,9,-1
 537 500 l 2,10,11
 537 438 537 438 519 395 c 128,-1,12
 501 352 501 352 469 325 c 128,-1,13
 437 298 437 298 394 285.5 c 128,-1,14
 351 273 351 273 302 273 c 2,15,-1
 190 273 l 1,16,-1
 190 41 l 2,17,18
 190 21 190 21 169.5 10.5 c 128,-1,19
 149 0 149 0 125 0 c 0,20,21
 100 0 100 0 80 10.5 c 128,-1,22
 60 21 60 21 60 41 c 2,23,-1
 60 691 l 2,0,1
190 617 m 1,24,-1
 190 375 l 1,25,-1
 302 375 l 2,26,27
 351 375 351 375 379 403 c 128,-1,28
 407 431 407 431 407 490 c 2,29,-1
 407 502 l 2,30,31
 407 561 407 561 379 589 c 128,-1,32
 351 617 351 617 302 617 c 2,33,-1
 190 617 l 1,24,-1
EndSplineSet
EndChar
StartChar: Q
Encoding: 81 81 88
Width: 572
Flags: W
LayerCount: 2
Back
Fore
SplineSet
286 -109 m 256,0,1
 270 -109 270 -109 257 -98.5 c 128,-1,2
 244 -88 244 -88 244 -68 c 2,3,-1
 244 -3 l 1,4,5
 202 1 202 1 167 16 c 128,-1,6
 132 31 132 31 106.5 58 c 128,-1,7
 81 85 81 85 66.5 126 c 128,-1,8
 52 167 52 167 52 223 c 2,9,-1
 52 502 l 2,10,11
 52 565 52 565 70 608.5 c 128,-1,12
 88 652 88 652 119.5 679.5 c 128,-1,13
 151 707 151 707 193.5 719 c 128,-1,14
 236 731 236 731 286 731 c 0,15,16
 335 731 335 731 378 719 c 128,-1,17
 421 707 421 707 453 679.5 c 128,-1,18
 485 652 485 652 503 608.5 c 128,-1,19
 521 565 521 565 521 502 c 2,20,-1
 521 223 l 2,21,22
 521 167 521 167 506.5 126.5 c 128,-1,23
 492 86 492 86 466 58.5 c 128,-1,24
 440 31 440 31 404.5 16 c 128,-1,25
 369 1 369 1 327 -3 c 1,26,-1
 327 -68 l 2,27,28
 327 -88 327 -88 314.5 -98.5 c 128,-1,29
 302 -109 302 -109 286 -109 c 256,0,1
391 502 m 2,30,31
 391 561 391 561 363 589 c 128,-1,32
 335 617 335 617 286 617 c 0,33,34
 236 617 236 617 209 589 c 128,-1,35
 182 561 182 561 182 502 c 2,36,-1
 182 223 l 2,37,38
 182 136 182 136 244 116 c 1,39,-1
 244 169 l 2,40,41
 244 190 244 190 257 199.5 c 128,-1,42
 270 209 270 209 286 209 c 256,43,44
 302 209 302 209 314.5 199.5 c 128,-1,45
 327 190 327 190 327 169 c 2,46,-1
 327 116 l 1,47,48
 357 126 357 126 374 152 c 128,-1,49
 391 178 391 178 391 223 c 2,50,-1
 391 502 l 2,30,31
EndSplineSet
EndChar
StartChar: R
Encoding: 82 82 89
Width: 570
Flags: W
LayerCount: 2
Back
Fore
SplineSet
60 691 m 2,0,1
 60 707 60 707 71.5 719 c 128,-1,2
 83 731 83 731 102 731 c 2,3,-1
 300 731 l 2,4,5
 349 731 349 731 392 720.5 c 128,-1,6
 435 710 435 710 467.5 686 c 128,-1,7
 500 662 500 662 518.5 622 c 128,-1,8
 537 582 537 582 537 522 c 0,9,10
 537 436 537 436 499.5 387.5 c 128,-1,11
 462 339 462 339 406 322 c 1,12,-1
 537 79 l 2,13,14
 540 75 540 75 541 70.5 c 128,-1,15
 542 66 542 66 542 63 c 0,16,17
 542 51 542 51 534.5 38.5 c 128,-1,18
 527 26 527 26 515.5 16.5 c 128,-1,19
 504 7 504 7 489.5 1 c 128,-1,20
 475 -5 475 -5 461 -5 c 256,21,22
 447 -5 447 -5 435.5 3 c 128,-1,23
 424 11 424 11 416 26 c 2,24,-1
 274 302 l 1,25,-1
 190 302 l 1,26,-1
 190 41 l 2,27,28
 190 21 190 21 170 10.5 c 128,-1,29
 150 0 150 0 125 0 c 0,30,31
 101 0 101 0 80.5 10.5 c 128,-1,32
 60 21 60 21 60 41 c 2,33,-1
 60 691 l 2,0,1
190 617 m 1,34,-1
 190 404 l 1,35,-1
 300 404 l 2,36,37
 349 404 349 404 378 427.5 c 128,-1,38
 407 451 407 451 407 510 c 256,39,40
 407 569 407 569 378 593 c 128,-1,41
 349 617 349 617 300 617 c 2,42,-1
 190 617 l 1,34,-1
EndSplineSet
EndChar
StartChar: S
Encoding: 83 83 93
Width: 522
Flags: W
LayerCount: 2
Back
Fore
SplineSet
251 108 m 0,0,1
 296 108 296 108 329.5 129 c 128,-1,2
 363 150 363 150 363 195 c 0,3,4
 363 232 363 232 339 255.5 c 128,-1,5
 315 279 315 279 279.5 297.5 c 128,-1,6
 244 316 244 316 202.5 333 c 128,-1,7
 161 350 161 350 125.5 375.5 c 128,-1,8
 90 401 90 401 66 439 c 128,-1,9
 42 477 42 477 42 536 c 0,10,11
 42 592 42 592 64 630 c 128,-1,12
 86 668 86 668 120.5 691.5 c 128,-1,13
 155 715 155 715 198.5 725.5 c 128,-1,14
 242 736 242 736 285 736 c 0,15,16
 307 736 307 736 339.5 733 c 128,-1,17
 372 730 372 730 402 721 c 128,-1,18
 432 712 432 712 453.5 696.5 c 128,-1,19
 475 681 475 681 475 656 c 0,20,21
 475 647 475 647 472 635.5 c 128,-1,22
 469 624 469 624 462.5 613 c 128,-1,23
 456 602 456 602 446 594.5 c 128,-1,24
 436 587 436 587 423 587 c 0,25,26
 411 587 411 587 400 593 c 128,-1,27
 389 599 389 599 374 606 c 128,-1,28
 359 613 359 613 337.5 619 c 128,-1,29
 316 625 316 625 285 625 c 0,30,31
 231 625 231 625 201.5 604.5 c 128,-1,32
 172 584 172 584 172 548 c 0,33,34
 172 517 172 517 196 497.5 c 128,-1,35
 220 478 220 478 255.5 462 c 128,-1,36
 291 446 291 446 332.5 428.5 c 128,-1,37
 374 411 374 411 409.5 383.5 c 128,-1,38
 445 356 445 356 469 314.5 c 128,-1,39
 493 273 493 273 493 208 c 0,40,41
 493 154 493 154 475 113.5 c 128,-1,42
 457 73 457 73 425.5 46 c 128,-1,43
 394 19 394 19 350.5 5 c 128,-1,44
 307 -9 307 -9 255 -9 c 0,45,46
 206 -9 206 -9 163.5 2 c 128,-1,47
 121 13 121 13 90 31 c 128,-1,48
 59 49 59 49 41.5 71 c 128,-1,49
 24 93 24 93 24 115 c 0,50,51
 24 125 24 125 28.5 137.5 c 128,-1,52
 33 150 33 150 41 160.5 c 128,-1,53
 49 171 49 171 59 178 c 128,-1,54
 69 185 69 185 81 185 c 0,55,56
 96 185 96 185 110.5 173 c 128,-1,57
 125 161 125 161 143.5 146.5 c 128,-1,58
 162 132 162 132 187.5 120 c 128,-1,59
 213 108 213 108 251 108 c 0,0,1
EndSplineSet
EndChar
StartChar: T
Encoding: 84 84 99
Width: 528
Flags: W
LayerCount: 2
Back
Fore
SplineSet
476 731 m 2,0,1
 497 731 497 731 507 712.5 c 128,-1,2
 517 694 517 694 517 673 c 0,3,4
 517 650 517 650 506.5 632 c 128,-1,5
 496 614 496 614 476 614 c 2,6,-1
 330 614 l 1,7,-1
 330 41 l 2,8,9
 330 21 330 21 309.5 10.5 c 128,-1,10
 289 0 289 0 265 0 c 0,11,12
 240 0 240 0 220 10.5 c 128,-1,13
 200 21 200 21 200 41 c 2,14,-1
 200 614 l 1,15,-1
 53 614 l 2,16,17
 33 614 33 614 22.5 631.5 c 128,-1,18
 12 649 12 649 12 673 c 0,19,20
 12 694 12 694 22 712.5 c 128,-1,21
 32 731 32 731 53 731 c 2,22,-1
 476 731 l 2,0,1
EndSplineSet
EndChar
StartChar: U
Encoding: 85 85 104
Width: 594
Flags: W
LayerCount: 2
Back
Fore
SplineSet
407 691 m 2,0,1
 407 712 407 712 427 721.5 c 128,-1,2
 447 731 447 731 472 731 c 0,3,4
 496 731 496 731 516.5 721.5 c 128,-1,5
 537 712 537 712 537 691 c 2,6,-1
 537 223 l 2,7,8
 537 160 537 160 518.5 116.5 c 128,-1,9
 500 73 500 73 467.5 46 c 128,-1,10
 435 19 435 19 391 6.5 c 128,-1,11
 347 -6 347 -6 297 -6 c 0,12,13
 246 -6 246 -6 202.5 6.5 c 128,-1,14
 159 19 159 19 126.5 46 c 128,-1,15
 94 73 94 73 75.5 116.5 c 128,-1,16
 57 160 57 160 57 223 c 2,17,-1
 57 691 l 2,18,19
 57 712 57 712 77 721.5 c 128,-1,20
 97 731 97 731 122 731 c 0,21,22
 146 731 146 731 166.5 721.5 c 128,-1,23
 187 712 187 712 187 691 c 2,24,-1
 187 223 l 2,25,26
 187 164 187 164 216 136 c 128,-1,27
 245 108 245 108 297 108 c 256,28,29
 349 108 349 108 378 136 c 128,-1,30
 407 164 407 164 407 223 c 2,31,-1
 407 691 l 2,0,1
EndSplineSet
EndChar
StartChar: V
Encoding: 86 86 115
Width: 575
Flags: W
LayerCount: 2
Back
Fore
SplineSet
11 667 m 2,0,1
 9 675 9 675 9 677 c 0,2,3
 9 689 9 689 17 699 c 128,-1,4
 25 709 25 709 37 716 c 128,-1,5
 49 723 49 723 63.5 727 c 128,-1,6
 78 731 78 731 91 731 c 0,7,8
 108 731 108 731 119.5 725 c 128,-1,9
 131 719 131 719 135 705 c 2,10,-1
 288 163 l 1,11,-1
 440 705 l 2,12,13
 444 719 444 719 455.5 725 c 128,-1,14
 467 731 467 731 484 731 c 0,15,16
 497 731 497 731 511.5 727 c 128,-1,17
 526 723 526 723 538 715.5 c 128,-1,18
 550 708 550 708 558 698.5 c 128,-1,19
 566 689 566 689 566 677 c 0,20,21
 566 675 566 675 564 667 c 2,22,-1
 372 38 l 2,23,24
 365 15 365 15 341 4.5 c 128,-1,25
 317 -6 317 -6 288 -6 c 256,26,27
 259 -6 259 -6 235.5 4.5 c 128,-1,28
 212 15 212 15 204 38 c 2,29,-1
 11 667 l 2,0,1
EndSplineSet
EndChar
StartChar: X
Encoding: 88 88 121
Width: 561
Flags: W
LayerCount: 2
Back
Fore
SplineSet
280 273 m 1,0,-1
 134 16 l 2,1,2
 129 7 129 7 119.5 1 c 128,-1,3
 110 -5 110 -5 98 -5 c 0,4,5
 85 -5 85 -5 70 0 c 128,-1,6
 55 5 55 5 42.5 14 c 128,-1,7
 30 23 30 23 21.5 34.5 c 128,-1,8
 13 46 13 46 13 60 c 0,9,10
 13 70 13 70 21 84 c 2,11,-1
 194 366 l 1,12,-1
 27 647 l 2,13,14
 18 662 18 662 18 675 c 256,15,16
 18 688 18 688 26 699 c 128,-1,17
 34 710 34 710 46 718.5 c 128,-1,18
 58 727 58 727 72.5 731.5 c 128,-1,19
 87 736 87 736 101 736 c 0,20,21
 116 736 116 736 126.5 728.5 c 128,-1,22
 137 721 137 721 144 708 c 2,23,-1
 280 463 l 1,24,-1
 416 708 l 2,25,26
 424 721 424 721 434 728.5 c 128,-1,27
 444 736 444 736 460 736 c 0,28,29
 474 736 474 736 488.5 731.5 c 128,-1,30
 503 727 503 727 515 718.5 c 128,-1,31
 527 710 527 710 535 699 c 128,-1,32
 543 688 543 688 543 675 c 256,33,34
 543 662 543 662 534 647 c 2,35,-1
 367 366 l 1,36,-1
 540 84 l 2,37,38
 547 71 547 71 547 60 c 0,39,40
 547 46 547 46 539 34.5 c 128,-1,41
 531 23 531 23 518 14 c 128,-1,42
 505 5 505 5 490 0 c 128,-1,43
 475 -5 475 -5 462 -5 c 0,44,45
 450 -5 450 -5 441 1 c 128,-1,46
 432 7 432 7 427 16 c 2,47,-1
 280 273 l 1,0,-1
EndSplineSet
EndChar
StartChar: Y
Encoding: 89 89 122
Width: 574
Flags: W
LayerCount: 2
Back
Fore
SplineSet
222 293 m 2,0,1
 222 301 222 301 219 306 c 2,2,-1
 12 664 l 2,3,4
 9 671 9 671 9 677 c 0,5,6
 9 689 9 689 17.5 699 c 128,-1,7
 26 709 26 709 39 716 c 128,-1,8
 52 723 52 723 67 727 c 128,-1,9
 82 731 82 731 95 731 c 0,10,11
 111 731 111 731 119.5 725 c 128,-1,12
 128 719 128 719 135 705 c 2,13,-1
 287 416 l 1,14,-1
 440 705 l 2,15,16
 447 718 447 718 455 724.5 c 128,-1,17
 463 731 463 731 479 731 c 0,18,19
 492 731 492 731 507 727 c 128,-1,20
 522 723 522 723 535 716 c 128,-1,21
 548 709 548 709 556.5 699 c 128,-1,22
 565 689 565 689 565 677 c 0,23,24
 565 675 565 675 564.5 671.5 c 128,-1,25
 564 668 564 668 562 664 c 2,26,-1
 356 306 l 2,27,28
 352 300 352 300 352 293 c 2,29,-1
 352 41 l 2,30,31
 352 21 352 21 332 10.5 c 128,-1,32
 312 0 312 0 287 0 c 0,33,34
 263 0 263 0 242.5 10.5 c 128,-1,35
 222 21 222 21 222 41 c 2,36,-1
 222 293 l 2,0,1
EndSplineSet
EndChar
StartChar: Z
Encoding: 90 90 127
Width: 522
Flags: W
LayerCount: 2
Back
Fore
SplineSet
180 114 m 1,0,-1
 468 114 l 2,1,2
 488 114 488 114 498.5 95.5 c 128,-1,3
 509 77 509 77 509 57 c 256,4,5
 509 37 509 37 498.5 18.5 c 128,-1,6
 488 0 488 0 468 0 c 2,7,-1
 53 0 l 2,8,9
 33 0 33 0 23.5 10 c 128,-1,10
 14 20 14 20 14 36 c 0,11,12
 14 58 14 58 28 81 c 2,13,-1
 325 617 l 1,14,-1
 72 617 l 2,15,16
 52 617 52 617 42 634 c 128,-1,17
 32 651 32 651 32 674 c 0,18,19
 32 695 32 695 41.5 713 c 128,-1,20
 51 731 51 731 72 731 c 2,21,-1
 452 731 l 2,22,23
 472 731 472 731 481.5 721 c 128,-1,24
 491 711 491 711 491 696 c 0,25,26
 491 674 491 674 476 649 c 2,27,-1
 180 114 l 1,0,-1
EndSplineSet
EndChar
StartChar: bracketleft
Encoding: 91 91 161
Width: 341
Flags: W
LayerCount: 2
Back
Fore
SplineSet
186 93 m 1,0,-1
 285 93 l 2,1,2
 304 93 304 93 314.5 75.5 c 128,-1,3
 325 58 325 58 325 35 c 0,4,5
 325 15 325 15 315.5 -3 c 128,-1,6
 306 -21 306 -21 285 -21 c 2,7,-1
 113 -21 l 2,8,9
 92 -21 92 -21 74 -10.5 c 128,-1,10
 56 0 56 0 56 20 c 2,11,-1
 56 727 l 2,12,13
 56 747 56 747 73.5 757.5 c 128,-1,14
 91 768 91 768 113 768 c 2,15,-1
 285 768 l 2,16,17
 306 768 306 768 315.5 750 c 128,-1,18
 325 732 325 732 325 712 c 0,19,20
 325 689 325 689 314.5 671.5 c 128,-1,21
 304 654 304 654 285 654 c 2,22,-1
 186 654 l 1,23,-1
 186 93 l 1,0,-1
EndSplineSet
EndChar
StartChar: backslash
Encoding: 92 92 157
Width: 370
Flags: W
LayerCount: 2
Back
Fore
SplineSet
21 697 m 2,0,1
 20 701 20 701 19.5 704 c 128,-1,2
 19 707 19 707 19 711 c 0,3,4
 19 728 19 728 33.5 741.5 c 128,-1,5
 48 755 48 755 68 755 c 0,6,7
 80 755 80 755 90.5 749 c 128,-1,8
 101 743 101 743 106 729 c 2,9,-1
 349 57 l 2,10,11
 351 53 351 53 351 45 c 0,12,13
 351 28 351 28 337 13.5 c 128,-1,14
 323 -1 323 -1 303 -1 c 0,15,16
 274 -1 274 -1 264 27 c 2,17,-1
 21 697 l 2,0,1
EndSplineSet
EndChar
StartChar: bracketright
Encoding: 93 93 162
Width: 342
Flags: W
LayerCount: 2
Back
Fore
SplineSet
156 654 m 1,0,-1
 57 654 l 2,1,2
 37 654 37 654 26.5 671.5 c 128,-1,3
 16 689 16 689 16 712 c 0,4,5
 16 732 16 732 26 750 c 128,-1,6
 36 768 36 768 57 768 c 2,7,-1
 228 768 l 2,8,9
 250 768 250 768 268 757.5 c 128,-1,10
 286 747 286 747 286 727 c 2,11,-1
 286 20 l 2,12,13
 286 0 286 0 268 -10.5 c 128,-1,14
 250 -21 250 -21 228 -21 c 2,15,-1
 57 -21 l 2,16,17
 36 -21 36 -21 26 -3 c 128,-1,18
 16 15 16 15 16 35 c 0,19,20
 16 58 16 58 26.5 75.5 c 128,-1,21
 37 93 37 93 57 93 c 2,22,-1
 156 93 l 1,23,-1
 156 654 l 1,0,-1
EndSplineSet
EndChar
StartChar: underscore
Encoding: 95 95 392
Width: 316
Flags: W
LayerCount: 2
Back
Fore
SplineSet
-42 -54 m 0,0,1
 -42 -31 -42 -31 -31 -15.5 c 128,-1,2
 -20 0 -20 0 -2 0 c 2,3,-1
 318 0 l 2,4,5
 334 0 334 0 347 -15.5 c 128,-1,6
 360 -31 360 -31 360 -54 c 0,7,8
 360 -78 360 -78 347 -92.5 c 128,-1,9
 334 -107 334 -107 318 -107 c 2,10,-1
 -2 -107 l 2,11,12
 -20 -107 -20 -107 -31 -92.5 c 128,-1,13
 -42 -78 -42 -78 -42 -54 c 0,0,1
EndSplineSet
EndChar
StartChar: grave
Encoding: 96 96 235
Width: 202
Flags: W
LayerCount: 2
Back
Fore
SplineSet
18 635 m 2,0,1
 8 640 8 640 4 648 c 128,-1,2
 0 656 0 656 0 665 c 0,3,4
 0 682 0 682 11.5 698 c 128,-1,5
 23 714 23 714 40 714 c 0,6,7
 43 714 43 714 46 713.5 c 128,-1,8
 49 713 49 713 53 712 c 2,9,-1
 185 648 l 2,10,11
 202 639 202 639 202 617 c 0,12,13
 202 600 202 600 190.5 584 c 128,-1,14
 179 568 179 568 162 568 c 0,15,16
 158 568 158 568 155 569 c 128,-1,17
 152 570 152 570 148 572 c 2,18,-1
 18 635 l 2,0,1
EndSplineSet
EndChar
StartChar: b
Encoding: 98 98 155
Width: 519
Flags: W
LayerCount: 2
Back
Fore
SplineSet
114 752 m 0,0,1
 141 752 141 752 160.5 741 c 128,-1,2
 180 730 180 730 180 712 c 2,3,-1
 180 405 l 1,4,5
 196 434 196 434 228.5 457.5 c 128,-1,6
 261 481 261 481 308 481 c 0,7,8
 345 481 345 481 377.5 465 c 128,-1,9
 410 449 410 449 434 421 c 128,-1,10
 458 393 458 393 472 356.5 c 128,-1,11
 486 320 486 320 486 278 c 2,12,-1
 486 196 l 2,13,14
 486 156 486 156 471.5 119 c 128,-1,15
 457 82 457 82 433 53.5 c 128,-1,16
 409 25 409 25 377.5 8 c 128,-1,17
 346 -9 346 -9 311 -9 c 0,18,19
 287 -9 287 -9 265.5 -2.5 c 128,-1,20
 244 4 244 4 225.5 15 c 128,-1,21
 207 26 207 26 193 40.5 c 128,-1,22
 179 55 179 55 172 70 c 1,23,-1
 172 41 l 2,24,25
 172 26 172 26 155 13 c 128,-1,26
 138 0 138 0 114 0 c 0,27,28
 86 0 86 0 68.5 13 c 128,-1,29
 51 26 51 26 51 41 c 2,30,-1
 51 712 l 2,31,32
 51 730 51 730 68.5 741 c 128,-1,33
 86 752 86 752 114 752 c 0,0,1
357 278 m 2,34,35
 357 295 357 295 350 311 c 128,-1,36
 343 327 343 327 331 340 c 128,-1,37
 319 353 319 353 303 360.5 c 128,-1,38
 287 368 287 368 269 368 c 0,39,40
 253 368 253 368 237 362 c 128,-1,41
 221 356 221 356 208.5 344 c 128,-1,42
 196 332 196 332 188 315.5 c 128,-1,43
 180 299 180 299 180 278 c 2,44,-1
 180 178 l 2,45,46
 180 170 180 170 187 157.5 c 128,-1,47
 194 145 194 145 206 133 c 128,-1,48
 218 121 218 121 234.5 112.5 c 128,-1,49
 251 104 251 104 270 104 c 0,50,51
 288 104 288 104 304 112 c 128,-1,52
 320 120 320 120 331.5 133 c 128,-1,53
 343 146 343 146 350 162.5 c 128,-1,54
 357 179 357 179 357 196 c 2,55,-1
 357 278 l 2,34,35
EndSplineSet
Substitution2: "'ss02' Style Set 2 in Latin lookup 4 subtable" b.ss02
Substitution2: "'salt' Stylistic Alternatives in Latin lookup 2 subtable" b.ss02
Substitution2: "'aalt' Access All Alternates in Latin lookup 0 subtable" b.ss02
EndChar
StartChar: c
Encoding: 99 99 166
Width: 434
Flags: W
LayerCount: 2
Back
Fore
SplineSet
251 -9 m 0,0,1
 194 -9 194 -9 153 6.5 c 128,-1,2
 112 22 112 22 85.5 49.5 c 128,-1,3
 59 77 59 77 46.5 114.5 c 128,-1,4
 34 152 34 152 34 196 c 2,5,-1
 34 276 l 2,6,7
 34 319 34 319 46.5 356.5 c 128,-1,8
 59 394 59 394 85.5 421.5 c 128,-1,9
 112 449 112 449 152.5 465 c 128,-1,10
 193 481 193 481 250 481 c 0,11,12
 285 481 285 481 314.5 474.5 c 128,-1,13
 344 468 344 468 365 457 c 128,-1,14
 386 446 386 446 398 432 c 128,-1,15
 410 418 410 418 410 403 c 0,16,17
 410 394 410 394 406.5 383 c 128,-1,18
 403 372 403 372 396 362.5 c 128,-1,19
 389 353 389 353 380 346.5 c 128,-1,20
 371 340 371 340 359 340 c 0,21,22
 351 340 351 340 342.5 344.5 c 128,-1,23
 334 349 334 349 323 354 c 128,-1,24
 312 359 312 359 297 363.5 c 128,-1,25
 282 368 282 368 260 368 c 0,26,27
 209 368 209 368 186 344 c 128,-1,28
 163 320 163 320 163 276 c 2,29,-1
 163 196 l 2,30,31
 163 152 163 152 186 128 c 128,-1,32
 209 104 209 104 261 104 c 0,33,34
 283 104 283 104 298 108.5 c 128,-1,35
 313 113 313 113 324 119 c 128,-1,36
 335 125 335 125 343.5 129.5 c 128,-1,37
 352 134 352 134 361 134 c 0,38,39
 374 134 374 134 384.5 128 c 128,-1,40
 395 122 395 122 402 113 c 128,-1,41
 409 104 409 104 412.5 93 c 128,-1,42
 416 82 416 82 416 73 c 0,43,44
 416 58 416 58 403.5 43.5 c 128,-1,45
 391 29 391 29 369 17 c 128,-1,46
 347 5 347 5 316.5 -2 c 128,-1,47
 286 -9 286 -9 251 -9 c 0,0,1
EndSplineSet
EndChar
StartChar: d
Encoding: 100 100 182
Width: 520
Flags: W
LayerCount: 2
Back
Fore
SplineSet
405 752 m 0,0,1
 433 752 433 752 451 741 c 128,-1,2
 469 730 469 730 469 712 c 2,3,-1
 469 41 l 2,4,5
 469 26 469 26 451 13 c 128,-1,6
 433 0 433 0 405 0 c 0,7,8
 381 0 381 0 364 13 c 128,-1,9
 347 26 347 26 347 41 c 2,10,-1
 347 70 l 1,11,12
 332 39 332 39 294 15 c 128,-1,13
 256 -9 256 -9 208 -9 c 0,14,15
 173 -9 173 -9 141.5 8 c 128,-1,16
 110 25 110 25 86 53.5 c 128,-1,17
 62 82 62 82 47.5 119 c 128,-1,18
 33 156 33 156 33 196 c 2,19,-1
 33 278 l 2,20,21
 33 320 33 320 47 356.5 c 128,-1,22
 61 393 61 393 85 421 c 128,-1,23
 109 449 109 449 141.5 465 c 128,-1,24
 174 481 174 481 211 481 c 0,25,26
 258 481 258 481 290.5 457.5 c 128,-1,27
 323 434 323 434 340 405 c 1,28,-1
 340 712 l 2,29,30
 340 730 340 730 359 741 c 128,-1,31
 378 752 378 752 405 752 c 0,0,1
162 196 m 2,32,33
 162 179 162 179 169 162.5 c 128,-1,34
 176 146 176 146 188 133 c 128,-1,35
 200 120 200 120 215.5 112 c 128,-1,36
 231 104 231 104 249 104 c 0,37,38
 268 104 268 104 284.5 112.5 c 128,-1,39
 301 121 301 121 313.5 133 c 128,-1,40
 326 145 326 145 333 157.5 c 128,-1,41
 340 170 340 170 340 178 c 2,42,-1
 340 278 l 2,43,44
 340 299 340 299 332 315.5 c 128,-1,45
 324 332 324 332 311 344 c 128,-1,46
 298 356 298 356 282 362 c 128,-1,47
 266 368 266 368 250 368 c 0,48,49
 232 368 232 368 216 360.5 c 128,-1,50
 200 353 200 353 188 340 c 128,-1,51
 176 327 176 327 169 311 c 128,-1,52
 162 295 162 295 162 278 c 2,53,-1
 162 196 l 2,32,33
EndSplineSet
EndChar
StartChar: e
Encoding: 101 101 194
Width: 484
Flags: W
LayerCount: 2
Back
Fore
SplineSet
251 481 m 0,0,1
 292 481 292 481 329.5 467 c 128,-1,2
 367 453 367 453 395.5 428.5 c 128,-1,3
 424 404 424 404 440.5 369.5 c 128,-1,4
 457 335 457 335 457 293 c 0,5,6
 457 261 457 261 449 243 c 128,-1,7
 441 225 441 225 427.5 216.5 c 128,-1,8
 414 208 414 208 397.5 206 c 128,-1,9
 381 204 381 204 364 204 c 2,10,-1
 161 204 l 1,11,-1
 161 189 l 2,12,13
 161 145 161 145 193 119 c 128,-1,14
 225 93 225 93 278 93 c 0,15,16
 303 93 303 93 321 99 c 128,-1,17
 339 105 339 105 353 112 c 128,-1,18
 367 119 367 119 378.5 125 c 128,-1,19
 390 131 390 131 401 131 c 256,20,21
 412 131 412 131 421 125 c 128,-1,22
 430 119 430 119 436.5 110 c 128,-1,23
 443 101 443 101 446.5 91 c 128,-1,24
 450 81 450 81 450 74 c 0,25,26
 450 61 450 61 437.5 46.5 c 128,-1,27
 425 32 425 32 402 19.5 c 128,-1,28
 379 7 379 7 346.5 -1 c 128,-1,29
 314 -9 314 -9 274 -9 c 0,30,31
 221 -9 221 -9 176.5 5.5 c 128,-1,32
 132 20 132 20 100 47 c 128,-1,33
 68 74 68 74 50 112 c 128,-1,34
 32 150 32 150 32 196 c 2,35,-1
 32 281 l 2,36,37
 32 321 32 321 49 357.5 c 128,-1,38
 66 394 66 394 95.5 421.5 c 128,-1,39
 125 449 125 449 165 465 c 128,-1,40
 205 481 205 481 251 481 c 0,0,1
307 280 m 2,41,42
 323 280 323 280 329.5 285 c 128,-1,43
 336 290 336 290 336 307 c 0,44,45
 336 342 336 342 310 364 c 128,-1,46
 284 386 284 386 248 386 c 0,47,48
 214 386 214 386 187.5 365 c 128,-1,49
 161 344 161 344 161 308 c 2,50,-1
 161 280 l 1,51,-1
 307 280 l 2,41,42
EndSplineSet
EndChar
StartChar: f
Encoding: 102 102 216
Width: 340
Flags: W
LayerCount: 2
Back
Fore
SplineSet
180 475 m 1,0,-1
 302 475 l 2,1,2
 318 475 318 475 326.5 460 c 128,-1,3
 335 445 335 445 335 428 c 0,4,5
 335 410 335 410 326.5 395.5 c 128,-1,6
 318 381 318 381 302 381 c 2,7,-1
 180 381 l 1,8,-1
 180 40 l 2,9,10
 180 22 180 22 160 11 c 128,-1,11
 140 0 140 0 114 0 c 0,12,13
 87 0 87 0 69 11 c 128,-1,14
 51 22 51 22 51 40 c 2,15,-1
 51 556 l 2,16,17
 51 598 51 598 65 634 c 128,-1,18
 79 670 79 670 103 696 c 128,-1,19
 127 722 127 722 159 737 c 128,-1,20
 191 752 191 752 227 752 c 2,21,-1
 286 752 l 2,22,23
 311 752 311 752 323 735 c 128,-1,24
 335 718 335 718 335 698 c 0,25,26
 335 677 335 677 323 660 c 128,-1,27
 311 643 311 643 286 643 c 2,28,-1
 254 643 l 2,29,30
 222 643 222 643 201 623.5 c 128,-1,31
 180 604 180 604 180 570 c 2,32,-1
 180 475 l 1,0,-1
EndSplineSet
EndChar
StartChar: h
Encoding: 104 104 242
Width: 524
Flags: W
LayerCount: 2
Back
Fore
SplineSet
180 41 m 2,0,1
 180 26 180 26 160.5 13 c 128,-1,2
 141 0 141 0 115 0 c 0,3,4
 86 0 86 0 68.5 13 c 128,-1,5
 51 26 51 26 51 41 c 2,6,-1
 51 712 l 2,7,8
 51 730 51 730 68.5 741 c 128,-1,9
 86 752 86 752 115 752 c 0,10,11
 141 752 141 752 160.5 741 c 128,-1,12
 180 730 180 730 180 712 c 2,13,-1
 180 405 l 1,14,15
 194 434 194 434 226 457.5 c 128,-1,16
 258 481 258 481 306 481 c 0,17,18
 340 481 340 481 371.5 465 c 128,-1,19
 403 449 403 449 426.5 421 c 128,-1,20
 450 393 450 393 464 356.5 c 128,-1,21
 478 320 478 320 478 278 c 2,22,-1
 478 41 l 2,23,24
 478 21 478 21 457.5 10.5 c 128,-1,25
 437 0 437 0 413 0 c 0,26,27
 390 0 390 0 369.5 10.5 c 128,-1,28
 349 21 349 21 349 41 c 2,29,-1
 349 278 l 2,30,31
 349 295 349 295 342 311 c 128,-1,32
 335 327 335 327 323 340 c 128,-1,33
 311 353 311 353 295.5 360.5 c 128,-1,34
 280 368 280 368 262 368 c 0,35,36
 231 368 231 368 205.5 344 c 128,-1,37
 180 320 180 320 180 278 c 2,38,-1
 180 41 l 2,0,1
EndSplineSet
EndChar
StartChar: i
Encoding: 105 105 247
Width: 229
Flags: W
LayerCount: 2
Back
Fore
SplineSet
114 475 m 0,0,1
 141 475 141 475 160 464 c 128,-1,2
 179 453 179 453 179 435 c 2,3,-1
 179 41 l 2,4,5
 179 26 179 26 160 13 c 128,-1,6
 141 0 141 0 114 0 c 0,7,8
 86 0 86 0 68 13 c 128,-1,9
 50 26 50 26 50 41 c 2,10,-1
 50 435 l 2,11,12
 50 453 50 453 68 464 c 128,-1,13
 86 475 86 475 114 475 c 0,0,1
114 707 m 0,14,15
 143 707 143 707 163.5 688.5 c 128,-1,16
 184 670 184 670 184 644 c 0,17,18
 184 619 184 619 163.5 600 c 128,-1,19
 143 581 143 581 114 581 c 0,20,21
 84 581 84 581 63.5 600 c 128,-1,22
 43 619 43 619 43 644 c 0,23,24
 43 670 43 670 63.5 688.5 c 128,-1,25
 84 707 84 707 114 707 c 0,14,15
EndSplineSet
EndChar
StartChar: j
Encoding: 106 106 259
Width: 231
Flags: W
LayerCount: 2
Back
Fore
SplineSet
115 707 m 0,0,1
 144 707 144 707 164.5 688.5 c 128,-1,2
 185 670 185 670 185 644 c 0,3,4
 185 619 185 619 164.5 600 c 128,-1,5
 144 581 144 581 115 581 c 0,6,7
 85 581 85 581 64.5 600 c 128,-1,8
 44 619 44 619 44 644 c 0,9,10
 44 670 44 670 64.5 688.5 c 128,-1,11
 85 707 85 707 115 707 c 0,0,1
114 475 m 0,12,13
 142 475 142 475 161 464 c 128,-1,14
 180 453 180 453 180 435 c 2,15,-1
 180 -32 l 2,16,17
 180 -74 180 -74 170.5 -108.5 c 128,-1,18
 161 -143 161 -143 142 -168 c 128,-1,19
 123 -193 123 -193 94.5 -207 c 128,-1,20
 66 -221 66 -221 29 -221 c 0,21,22
 9 -221 9 -221 -4 -216.5 c 128,-1,23
 -17 -212 -17 -212 -24.5 -204.5 c 128,-1,24
 -32 -197 -32 -197 -35 -187.5 c 128,-1,25
 -38 -178 -38 -178 -38 -168 c 0,26,27
 -38 -142 -38 -142 -23.5 -127 c 128,-1,28
 -9 -112 -9 -112 11 -112 c 0,29,30
 38 -112 38 -112 44.5 -89.5 c 128,-1,31
 51 -67 51 -67 51 -32 c 2,32,-1
 51 435 l 2,33,34
 51 453 51 453 69 464 c 128,-1,35
 87 475 87 475 114 475 c 0,12,13
EndSplineSet
EndChar
StartChar: k
Encoding: 107 107 261
Width: 492
Flags: W
LayerCount: 2
Back
Fore
SplineSet
328 287 m 1,0,-1
 475 77 l 2,1,2
 482 67 482 67 482 56 c 256,3,4
 482 45 482 45 475 33.5 c 128,-1,5
 468 22 468 22 457 13 c 128,-1,6
 446 4 446 4 433.5 -2 c 128,-1,7
 421 -8 421 -8 409 -8 c 0,8,9
 389 -8 389 -8 377 9 c 2,10,-1
 242 208 l 1,11,-1
 180 151 l 1,12,-1
 180 41 l 2,13,14
 180 26 180 26 160.5 13 c 128,-1,15
 141 0 141 0 114 0 c 0,16,17
 86 0 86 0 68.5 13 c 128,-1,18
 51 26 51 26 51 41 c 2,19,-1
 51 712 l 2,20,21
 51 730 51 730 68.5 741 c 128,-1,22
 86 752 86 752 114 752 c 0,23,24
 141 752 141 752 160.5 741 c 128,-1,25
 180 730 180 730 180 712 c 2,26,-1
 180 293 l 1,27,-1
 368 470 l 2,28,29
 380 480 380 480 394 480 c 0,30,31
 404 480 404 480 415.5 474.5 c 128,-1,32
 427 469 427 469 436 460 c 128,-1,33
 445 451 445 451 451 440 c 128,-1,34
 457 429 457 429 457 418 c 0,35,36
 457 405 457 405 446 394 c 2,37,-1
 328 287 l 1,0,-1
EndSplineSet
EndChar
StartChar: l
Encoding: 108 108 264
Width: 247
Flags: W
LayerCount: 2
Back
Fore
SplineSet
123 752 m 0,0,1
 149 752 149 752 168.5 741 c 128,-1,2
 188 730 188 730 188 712 c 2,3,-1
 188 41 l 2,4,5
 188 26 188 26 168.5 13 c 128,-1,6
 149 0 149 0 123 0 c 0,7,8
 94 0 94 0 76.5 13 c 128,-1,9
 59 26 59 26 59 41 c 2,10,-1
 59 712 l 2,11,12
 59 730 59 730 76.5 741 c 128,-1,13
 94 752 94 752 123 752 c 0,0,1
EndSplineSet
EndChar
StartChar: m
Encoding: 109 109 274
Width: 803
Flags: W
LayerCount: 2
Back
Fore
SplineSet
339 278 m 2,0,1
 339 320 339 320 314 344 c 128,-1,2
 289 368 289 368 257 368 c 0,3,4
 228 368 228 368 203.5 345 c 128,-1,5
 179 322 179 322 179 278 c 2,6,-1
 179 41 l 2,7,8
 179 26 179 26 159.5 13 c 128,-1,9
 140 0 140 0 114 0 c 0,10,11
 85 0 85 0 67.5 13 c 128,-1,12
 50 26 50 26 50 41 c 2,13,-1
 50 435 l 2,14,15
 50 453 50 453 67.5 464 c 128,-1,16
 85 475 85 475 114 475 c 0,17,18
 137 475 137 475 154 464 c 128,-1,19
 171 453 171 453 171 435 c 2,20,-1
 171 405 l 1,21,22
 188 434 188 434 220.5 457.5 c 128,-1,23
 253 481 253 481 303 481 c 0,24,25
 346 481 346 481 379 453.5 c 128,-1,26
 412 426 412 426 428 381 c 1,27,28
 454 432 454 432 494.5 456.5 c 128,-1,29
 535 481 535 481 579 481 c 0,30,31
 613 481 613 481 645 467.5 c 128,-1,32
 677 454 677 454 702 428 c 128,-1,33
 727 402 727 402 742 364.5 c 128,-1,34
 757 327 757 327 757 278 c 2,35,-1
 757 41 l 2,36,37
 757 26 757 26 737.5 13 c 128,-1,38
 718 0 718 0 692 0 c 256,39,40
 666 0 666 0 647 13 c 128,-1,41
 628 26 628 26 628 41 c 2,42,-1
 628 278 l 2,43,44
 628 323 628 323 602.5 346 c 128,-1,45
 577 369 577 369 547 369 c 256,46,47
 517 369 517 369 492.5 346 c 128,-1,48
 468 323 468 323 468 279 c 2,49,-1
 468 40 l 2,50,51
 468 19 468 19 447.5 9.5 c 128,-1,52
 427 0 427 0 403 0 c 0,53,54
 380 0 380 0 359.5 9.5 c 128,-1,55
 339 19 339 19 339 40 c 2,56,-1
 339 278 l 2,0,1
EndSplineSet
Substitution2: "'ss04' Style Set 4 in Latin lookup 6 subtable" m.ss04
Substitution2: "'salt' Stylistic Alternatives in Latin lookup 2 subtable" m.ss04
Substitution2: "'aalt' Access All Alternates in Latin lookup 0 subtable" m.ss04
EndChar
StartChar: n
Encoding: 110 110 280
Width: 523
Flags: W
LayerCount: 2
Back
Fore
SplineSet
179 41 m 2,0,1
 179 26 179 26 159.5 13 c 128,-1,2
 140 0 140 0 114 0 c 0,3,4
 85 0 85 0 67.5 13 c 128,-1,5
 50 26 50 26 50 41 c 2,6,-1
 50 435 l 2,7,8
 50 453 50 453 67.5 464 c 128,-1,9
 85 475 85 475 114 475 c 0,10,11
 137 475 137 475 154 464 c 128,-1,12
 171 453 171 453 171 435 c 2,13,-1
 171 405 l 1,14,15
 185 434 185 434 220 457.5 c 128,-1,16
 255 481 255 481 305 481 c 0,17,18
 339 481 339 481 370.5 465 c 128,-1,19
 402 449 402 449 425.5 421 c 128,-1,20
 449 393 449 393 463 356.5 c 128,-1,21
 477 320 477 320 477 278 c 2,22,-1
 477 41 l 2,23,24
 477 21 477 21 456.5 10.5 c 128,-1,25
 436 0 436 0 412 0 c 0,26,27
 389 0 389 0 368.5 10.5 c 128,-1,28
 348 21 348 21 348 41 c 2,29,-1
 348 278 l 2,30,31
 348 295 348 295 341 311 c 128,-1,32
 334 327 334 327 322.5 340 c 128,-1,33
 311 353 311 353 295 360.5 c 128,-1,34
 279 368 279 368 261 368 c 0,35,36
 230 368 230 368 204.5 344 c 128,-1,37
 179 320 179 320 179 278 c 2,38,-1
 179 41 l 2,0,1
EndSplineSet
Substitution2: "'ss04' Style Set 4 in Latin lookup 6 subtable" n.ss04
Substitution2: "'salt' Stylistic Alternatives in Latin lookup 2 subtable" n.ss04
Substitution2: "'aalt' Access All Alternates in Latin lookup 0 subtable" n.ss04
EndChar
StartChar: o
Encoding: 111 111 291
Width: 498
Flags: W
LayerCount: 2
Back
Fore
SplineSet
249 481 m 0,0,1
 292 481 292 481 331.5 465 c 128,-1,2
 371 449 371 449 401 421 c 128,-1,3
 431 393 431 393 448.5 356.5 c 128,-1,4
 466 320 466 320 466 278 c 2,5,-1
 466 196 l 2,6,7
 466 156 466 156 448.5 119 c 128,-1,8
 431 82 431 82 401 53.5 c 128,-1,9
 371 25 371 25 331.5 8 c 128,-1,10
 292 -9 292 -9 249 -9 c 0,11,12
 205 -9 205 -9 165.5 8 c 128,-1,13
 126 25 126 25 96.5 53 c 128,-1,14
 67 81 67 81 49.5 118 c 128,-1,15
 32 155 32 155 32 196 c 2,16,-1
 32 278 l 2,17,18
 32 318 32 318 49 355 c 128,-1,19
 66 392 66 392 95.5 420 c 128,-1,20
 125 448 125 448 164.5 464.5 c 128,-1,21
 204 481 204 481 249 481 c 0,0,1
337 278 m 2,22,23
 337 295 337 295 330 311 c 128,-1,24
 323 327 323 327 311 340 c 128,-1,25
 299 353 299 353 283 360.5 c 128,-1,26
 267 368 267 368 249 368 c 256,27,28
 231 368 231 368 215 360.5 c 128,-1,29
 199 353 199 353 187 340 c 128,-1,30
 175 327 175 327 168 311 c 128,-1,31
 161 295 161 295 161 278 c 2,32,-1
 161 196 l 2,33,34
 161 178 161 178 168 161.5 c 128,-1,35
 175 145 175 145 187 132.5 c 128,-1,36
 199 120 199 120 215 112 c 128,-1,37
 231 104 231 104 249 104 c 256,38,39
 267 104 267 104 283 112 c 128,-1,40
 299 120 299 120 311 132.5 c 128,-1,41
 323 145 323 145 330 161.5 c 128,-1,42
 337 178 337 178 337 196 c 2,43,-1
 337 278 l 2,22,23
EndSplineSet
EndChar
StartChar: p
Encoding: 112 112 314
Width: 519
Flags: W
LayerCount: 2
Back
Fore
SplineSet
112 475 m 256,0,1
 138 475 138 475 155 464 c 128,-1,2
 172 453 172 453 172 435 c 2,3,-1
 172 405 l 1,4,5
 189 434 189 434 224 457.5 c 128,-1,6
 259 481 259 481 307 481 c 0,7,8
 344 481 344 481 377 465 c 128,-1,9
 410 449 410 449 434 421 c 128,-1,10
 458 393 458 393 472 356.5 c 128,-1,11
 486 320 486 320 486 278 c 2,12,-1
 486 196 l 2,13,14
 486 156 486 156 471.5 119 c 128,-1,15
 457 82 457 82 433 53.5 c 128,-1,16
 409 25 409 25 377.5 8 c 128,-1,17
 346 -9 346 -9 311 -9 c 0,18,19
 266 -9 266 -9 230 15 c 128,-1,20
 194 39 194 39 180 70 c 1,21,-1
 180 -180 l 2,22,23
 180 -196 180 -196 160.5 -208.5 c 128,-1,24
 141 -221 141 -221 114 -221 c 0,25,26
 86 -221 86 -221 68.5 -208.5 c 128,-1,27
 51 -196 51 -196 51 -180 c 2,28,-1
 51 435 l 2,29,30
 51 453 51 453 68.5 464 c 128,-1,31
 86 475 86 475 112 475 c 256,0,1
357 278 m 2,32,33
 357 295 357 295 350 311 c 128,-1,34
 343 327 343 327 330.5 340 c 128,-1,35
 318 353 318 353 301.5 360.5 c 128,-1,36
 285 368 285 368 266 368 c 0,37,38
 250 368 250 368 234.5 362 c 128,-1,39
 219 356 219 356 207 344 c 128,-1,40
 195 332 195 332 187.5 315.5 c 128,-1,41
 180 299 180 299 180 278 c 2,42,-1
 180 178 l 2,43,44
 180 170 180 170 186.5 157.5 c 128,-1,45
 193 145 193 145 205 133 c 128,-1,46
 217 121 217 121 233 112.5 c 128,-1,47
 249 104 249 104 268 104 c 0,48,49
 286 104 286 104 302 112 c 128,-1,50
 318 120 318 120 330 133 c 128,-1,51
 342 146 342 146 349.5 162.5 c 128,-1,52
 357 179 357 179 357 196 c 2,53,-1
 357 278 l 2,32,33
EndSplineSet
EndChar
StartChar: q
Encoding: 113 113 327
Width: 520
Flags: W
LayerCount: 2
Back
Fore
SplineSet
407 475 m 256,0,1
 433 475 433 475 451 464 c 128,-1,2
 469 453 469 453 469 435 c 2,3,-1
 469 -180 l 2,4,5
 469 -196 469 -196 451 -208.5 c 128,-1,6
 433 -221 433 -221 405 -221 c 0,7,8
 378 -221 378 -221 359 -208.5 c 128,-1,9
 340 -196 340 -196 340 -180 c 2,10,-1
 340 70 l 1,11,12
 325 39 325 39 289 15 c 128,-1,13
 253 -9 253 -9 208 -9 c 0,14,15
 173 -9 173 -9 141.5 8 c 128,-1,16
 110 25 110 25 86 53.5 c 128,-1,17
 62 82 62 82 47.5 119 c 128,-1,18
 33 156 33 156 33 196 c 2,19,-1
 33 278 l 2,20,21
 33 320 33 320 47 356.5 c 128,-1,22
 61 393 61 393 85 421 c 128,-1,23
 109 449 109 449 142 465 c 128,-1,24
 175 481 175 481 213 481 c 0,25,26
 261 481 261 481 295.5 457.5 c 128,-1,27
 330 434 330 434 347 405 c 1,28,-1
 347 435 l 2,29,30
 347 453 347 453 364 464 c 128,-1,31
 381 475 381 475 407 475 c 256,0,1
162 196 m 2,32,33
 162 179 162 179 169.5 162.5 c 128,-1,34
 177 146 177 146 189 133 c 128,-1,35
 201 120 201 120 217 112 c 128,-1,36
 233 104 233 104 251 104 c 0,37,38
 270 104 270 104 286.5 112.5 c 128,-1,39
 303 121 303 121 315 133 c 128,-1,40
 327 145 327 145 333.5 157.5 c 128,-1,41
 340 170 340 170 340 178 c 2,42,-1
 340 278 l 2,43,44
 340 299 340 299 332.5 315.5 c 128,-1,45
 325 332 325 332 312.5 344 c 128,-1,46
 300 356 300 356 284.5 362 c 128,-1,47
 269 368 269 368 253 368 c 0,48,49
 234 368 234 368 217.5 360.5 c 128,-1,50
 201 353 201 353 188.5 340 c 128,-1,51
 176 327 176 327 169 311 c 128,-1,52
 162 295 162 295 162 278 c 2,53,-1
 162 196 l 2,32,33
EndSplineSet
Substitution2: "'ss02' Style Set 2 in Latin lookup 4 subtable" q.ss02
Substitution2: "'salt' Stylistic Alternatives in Latin lookup 2 subtable" q.ss02
Substitution2: "'aalt' Access All Alternates in Latin lookup 0 subtable" q.ss02
EndChar
StartChar: r
Encoding: 114 114 339
Width: 377
Flags: W
LayerCount: 2
Back
Fore
SplineSet
294 368 m 2,0,1
 272 368 272 368 251.5 357.5 c 128,-1,2
 231 347 231 347 215 328 c 128,-1,3
 199 309 199 309 189 281.5 c 128,-1,4
 179 254 179 254 179 220 c 2,5,-1
 179 41 l 2,6,7
 179 26 179 26 159.5 13 c 128,-1,8
 140 0 140 0 113 0 c 0,9,10
 85 0 85 0 67.5 13 c 128,-1,11
 50 26 50 26 50 41 c 2,12,-1
 50 435 l 2,13,14
 50 453 50 453 67.5 464 c 128,-1,15
 85 475 85 475 113 475 c 0,16,17
 137 475 137 475 154 464 c 128,-1,18
 171 453 171 453 171 435 c 2,19,-1
 171 394 l 1,20,21
 178 410 178 410 190.5 425.5 c 128,-1,22
 203 441 203 441 219 453.5 c 128,-1,23
 235 466 235 466 254 473.5 c 128,-1,24
 273 481 273 481 294 481 c 2,25,-1
 325 481 l 2,26,27
 343 481 343 481 357.5 464.5 c 128,-1,28
 372 448 372 448 372 425 c 256,29,30
 372 402 372 402 357.5 385 c 128,-1,31
 343 368 343 368 325 368 c 2,32,-1
 294 368 l 2,0,1
EndSplineSet
Substitution2: "'ss04' Style Set 4 in Latin lookup 6 subtable" r.ss04
Substitution2: "'salt' Stylistic Alternatives in Latin lookup 2 subtable" r.ss04
Substitution2: "'aalt' Access All Alternates in Latin lookup 0 subtable" r.ss04
EndChar
StartChar: s
Encoding: 115 115 347
Width: 414
Flags: W
LayerCount: 2
Back
Fore
SplineSet
201 89 m 0,0,1
 245 89 245 89 259.5 103 c 128,-1,2
 274 117 274 117 274 132 c 0,3,4
 274 154 274 154 256.5 166 c 128,-1,5
 239 178 239 178 212.5 186 c 128,-1,6
 186 194 186 194 155.5 202.5 c 128,-1,7
 125 211 125 211 98.5 225.5 c 128,-1,8
 72 240 72 240 54.5 265 c 128,-1,9
 37 290 37 290 37 332 c 0,10,11
 37 359 37 359 46 385.5 c 128,-1,12
 55 412 55 412 76 433 c 128,-1,13
 97 454 97 454 131.5 467.5 c 128,-1,14
 166 481 166 481 216 481 c 0,15,16
 246 481 246 481 275 476 c 128,-1,17
 304 471 304 471 326 462.5 c 128,-1,18
 348 454 348 454 361.5 442 c 128,-1,19
 375 430 375 430 375 416 c 0,20,21
 375 409 375 409 372 398.5 c 128,-1,22
 369 388 369 388 363 378 c 128,-1,23
 357 368 357 368 348 361 c 128,-1,24
 339 354 339 354 328 354 c 0,25,26
 319 354 319 354 308.5 358.5 c 128,-1,27
 298 363 298 363 284.5 368.5 c 128,-1,28
 271 374 271 374 255 378.5 c 128,-1,29
 239 383 239 383 218 383 c 0,30,31
 180 383 180 383 164 368 c 128,-1,32
 148 353 148 353 148 338 c 0,33,34
 148 320 148 320 166 310 c 128,-1,35
 184 300 184 300 210.5 292.5 c 128,-1,36
 237 285 237 285 268 276.5 c 128,-1,37
 299 268 299 268 325.5 252 c 128,-1,38
 352 236 352 236 370 208.5 c 128,-1,39
 388 181 388 181 388 137 c 0,40,41
 388 70 388 70 340.5 30.5 c 128,-1,42
 293 -9 293 -9 204 -9 c 0,43,44
 166 -9 166 -9 133 -2 c 128,-1,45
 100 5 100 5 75.5 17 c 128,-1,46
 51 29 51 29 37 44.5 c 128,-1,47
 23 60 23 60 23 77 c 0,48,49
 23 85 23 85 26 95 c 128,-1,50
 29 105 29 105 35 113.5 c 128,-1,51
 41 122 41 122 49 128 c 128,-1,52
 57 134 57 134 66 134 c 0,53,54
 77 134 77 134 87.5 127 c 128,-1,55
 98 120 98 120 113 111.5 c 128,-1,56
 128 103 128 103 148.5 96 c 128,-1,57
 169 89 169 89 201 89 c 0,0,1
EndSplineSet
EndChar
StartChar: t
Encoding: 116 116 367
Width: 347
Flags: W
LayerCount: 2
Back
Fore
SplineSet
178 162 m 2,0,1
 178 133 178 133 190 121 c 128,-1,2
 202 109 202 109 234 109 c 2,3,-1
 273 109 l 2,4,5
 301 109 301 109 314.5 92 c 128,-1,6
 328 75 328 75 328 55 c 0,7,8
 328 34 328 34 314.5 17 c 128,-1,9
 301 0 301 0 273 0 c 2,10,-1
 234 0 l 2,11,12
 143 0 143 0 96 38.5 c 128,-1,13
 49 77 49 77 49 162 c 2,14,-1
 49 647 l 2,15,16
 49 665 49 665 69.5 676 c 128,-1,17
 90 687 90 687 113 687 c 0,18,19
 138 687 138 687 158 676 c 128,-1,20
 178 665 178 665 178 647 c 2,21,-1
 178 475 l 1,22,-1
 296 475 l 2,23,24
 312 475 312 475 320.5 460 c 128,-1,25
 329 445 329 445 329 428 c 0,26,27
 329 410 329 410 320.5 395.5 c 128,-1,28
 312 381 312 381 296 381 c 2,29,-1
 178 381 l 1,30,-1
 178 162 l 2,0,1
EndSplineSet
EndChar
StartChar: u
Encoding: 117 117 383
Width: 524
Flags: W
LayerCount: 2
Back
Fore
SplineSet
262 -9 m 0,0,1
 217 -9 217 -9 177.5 7.5 c 128,-1,2
 138 24 138 24 108.5 52 c 128,-1,3
 79 80 79 80 62 117 c 128,-1,4
 45 154 45 154 45 194 c 2,5,-1
 45 434 l 2,6,7
 45 449 45 449 64 462 c 128,-1,8
 83 475 83 475 110 475 c 0,9,10
 136 475 136 475 155 462 c 128,-1,11
 174 449 174 449 174 434 c 2,12,-1
 174 194 l 2,13,14
 174 177 174 177 181 161 c 128,-1,15
 188 145 188 145 200 132 c 128,-1,16
 212 119 212 119 228 111.5 c 128,-1,17
 244 104 244 104 262 104 c 256,18,19
 280 104 280 104 296 111.5 c 128,-1,20
 312 119 312 119 324 131.5 c 128,-1,21
 336 144 336 144 342.5 160.5 c 128,-1,22
 349 177 349 177 349 194 c 2,23,-1
 349 435 l 2,24,25
 349 451 349 451 368.5 463 c 128,-1,26
 388 475 388 475 414 475 c 0,27,28
 443 475 443 475 460.5 463 c 128,-1,29
 478 451 478 451 478 435 c 2,30,-1
 478 194 l 2,31,32
 478 153 478 153 461 116.5 c 128,-1,33
 444 80 444 80 414.5 52 c 128,-1,34
 385 24 385 24 345.5 7.5 c 128,-1,35
 306 -9 306 -9 262 -9 c 0,0,1
EndSplineSet
Substitution2: "'ss05' Style Set 5 in Latin lookup 7 subtable" u.ss04
Substitution2: "'salt' Stylistic Alternatives in Latin lookup 2 subtable" u.ss04
Substitution2: "'aalt' Access All Alternates in Latin lookup 0 subtable" u.ss04
EndChar
StartChar: v
Encoding: 118 118 398
Width: 481
Flags: W
LayerCount: 2
Back
Fore
SplineSet
11 408 m 2,0,1
 9 411 9 411 7.5 416.5 c 128,-1,2
 6 422 6 422 6 426 c 0,3,4
 6 437 6 437 15 447 c 128,-1,5
 24 457 24 457 37 464.5 c 128,-1,6
 50 472 50 472 65 476.5 c 128,-1,7
 80 481 80 481 92 481 c 0,8,9
 105 481 105 481 115 475.5 c 128,-1,10
 125 470 125 470 130 459 c 2,11,-1
 241 169 l 1,12,-1
 352 457 l 2,13,14
 361 481 361 481 389 481 c 0,15,16
 399 481 399 481 414 476.5 c 128,-1,17
 429 472 429 472 442.5 464.5 c 128,-1,18
 456 457 456 457 465.5 447 c 128,-1,19
 475 437 475 437 475 425 c 0,20,21
 475 416 475 416 471 408 c 2,22,-1
 300 12 l 2,23,24
 295 1 295 1 277.5 -5 c 128,-1,25
 260 -11 260 -11 241 -11 c 0,26,27
 221 -11 221 -11 204.5 -5.5 c 128,-1,28
 188 0 188 0 183 12 c 2,29,-1
 11 408 l 2,0,1
EndSplineSet
EndChar
StartChar: w
Encoding: 119 119 399
Width: 693
Flags: W
LayerCount: 2
Back
Fore
SplineSet
528 12 m 2,0,1
 523 -1 523 -1 508.5 -6 c 128,-1,2
 494 -11 494 -11 477 -11 c 0,3,4
 458 -11 458 -11 443.5 -5 c 128,-1,5
 429 1 429 1 424 12 c 2,6,-1
 347 230 l 1,7,-1
 271 13 l 2,8,9
 266 1 266 1 250.5 -5 c 128,-1,10
 235 -11 235 -11 216 -11 c 0,11,12
 200 -11 200 -11 185.5 -6 c 128,-1,13
 171 -1 171 -1 166 13 c 2,14,-1
 12 408 l 2,15,16
 7 418 7 418 7 427 c 0,17,18
 7 439 7 439 15.5 448.5 c 128,-1,19
 24 458 24 458 36.5 465 c 128,-1,20
 49 472 49 472 63.5 476 c 128,-1,21
 78 480 78 480 91 480 c 256,22,23
 104 480 104 480 114 475 c 128,-1,24
 124 470 124 470 128 459 c 2,25,-1
 228 175 l 1,26,-1
 303 422 l 2,27,28
 308 439 308 439 320 443.5 c 128,-1,29
 332 448 332 448 347 448 c 0,30,31
 361 448 361 448 373.5 443.5 c 128,-1,32
 386 439 386 439 391 422 c 2,33,-1
 465 174 l 1,34,-1
 566 459 l 2,35,36
 574 480 574 480 603 480 c 0,37,38
 615 480 615 480 629.5 476 c 128,-1,39
 644 472 644 472 656.5 465 c 128,-1,40
 669 458 669 458 677.5 448 c 128,-1,41
 686 438 686 438 686 426 c 0,42,43
 686 415 686 415 682 408 c 2,44,-1
 528 12 l 2,0,1
EndSplineSet
EndChar
StartChar: x
Encoding: 120 120 404
Width: 470
Flags: W
LayerCount: 2
Back
Fore
SplineSet
21 55 m 0,0,1
 21 67 21 67 29 77 c 2,2,-1
 147 242 l 1,3,-1
 37 395 l 2,4,5
 35 398 35 398 32 404 c 128,-1,6
 29 410 29 410 29 416 c 0,7,8
 29 427 29 427 37.5 438.5 c 128,-1,9
 46 450 46 450 59 459.5 c 128,-1,10
 72 469 72 469 87 475 c 128,-1,11
 102 481 102 481 115 481 c 0,12,13
 120 481 120 481 129 479 c 128,-1,14
 138 477 138 477 144 467 c 2,15,-1
 235 321 l 1,16,-1
 327 466 l 2,17,18
 332 474 332 474 341 477.5 c 128,-1,19
 350 481 350 481 357 481 c 0,20,21
 369 481 369 481 383.5 475 c 128,-1,22
 398 469 398 469 411 459.5 c 128,-1,23
 424 450 424 450 433 438.5 c 128,-1,24
 442 427 442 427 442 416 c 0,25,26
 442 408 442 408 434 395 c 2,27,-1
 323 241 l 1,28,-1
 442 77 l 2,29,30
 450 69 450 69 450 55 c 0,31,32
 450 44 450 44 441.5 33 c 128,-1,33
 433 22 433 22 420.5 12.5 c 128,-1,34
 408 3 408 3 393.5 -3 c 128,-1,35
 379 -9 379 -9 366 -9 c 0,36,37
 358 -9 358 -9 349.5 -6 c 128,-1,38
 341 -3 341 -3 336 5 c 2,39,-1
 235 157 l 1,40,-1
 135 5 l 2,41,42
 130 -3 130 -3 120.5 -6 c 128,-1,43
 111 -9 111 -9 103 -9 c 0,44,45
 93 -9 93 -9 79 -3 c 128,-1,46
 65 3 65 3 52 12 c 128,-1,47
 39 21 39 21 30 32.5 c 128,-1,48
 21 44 21 44 21 55 c 0,0,1
EndSplineSet
EndChar
StartChar: y
Encoding: 121 121 405
Width: 476
Flags: W
LayerCount: 2
Back
Fore
SplineSet
10 403 m 2,0,1
 6 413 6 413 6 420 c 0,2,3
 6 433 6 433 15 444 c 128,-1,4
 24 455 24 455 37 463.5 c 128,-1,5
 50 472 50 472 65 477 c 128,-1,6
 80 482 80 482 92 482 c 0,7,8
 105 482 105 482 115 477 c 128,-1,9
 125 472 125 472 129 460 c 2,10,-1
 249 161 l 1,11,-1
 346 460 l 2,12,13
 350 472 350 472 359.5 477 c 128,-1,14
 369 482 369 482 380 482 c 0,15,16
 392 482 392 482 407 477 c 128,-1,17
 422 472 422 472 435.5 463.5 c 128,-1,18
 449 455 449 455 458.5 443 c 128,-1,19
 468 431 468 431 468 418 c 0,20,21
 468 410 468 410 465 403 c 2,22,-1
 319 30 l 2,23,24
 301 -15 301 -15 284.5 -60 c 128,-1,25
 268 -105 268 -105 241.5 -140.5 c 128,-1,26
 215 -176 215 -176 173.5 -198.5 c 128,-1,27
 132 -221 132 -221 65 -221 c 0,28,29
 40 -221 40 -221 23 -211.5 c 128,-1,30
 6 -202 6 -202 6 -166 c 0,31,32
 6 -144 6 -144 13.5 -128 c 128,-1,33
 21 -112 21 -112 39 -112 c 0,34,35
 55 -112 55 -112 78.5 -106 c 128,-1,36
 102 -100 102 -100 124 -83.5 c 128,-1,37
 146 -67 146 -67 162.5 -38.5 c 128,-1,38
 179 -10 179 -10 182 35 c 1,39,-1
 10 403 l 2,0,1
EndSplineSet
EndChar
StartChar: z
Encoding: 122 122 411
Width: 437
Flags: W
LayerCount: 2
Back
Fore
SplineSet
381 105 m 2,0,1
 397 105 397 105 408 90 c 128,-1,2
 419 75 419 75 419 52 c 0,3,4
 419 31 419 31 408.5 15.5 c 128,-1,5
 398 0 398 0 381 0 c 2,6,-1
 65 0 l 2,7,8
 41 0 41 0 31 14.5 c 128,-1,9
 21 29 21 29 21 46 c 0,10,11
 21 61 21 61 28 74.5 c 128,-1,12
 35 88 35 88 43 98 c 2,13,-1
 240 370 l 1,14,-1
 67 370 l 2,15,16
 51 370 51 370 40 385 c 128,-1,17
 29 400 29 400 29 423 c 0,18,19
 29 444 29 444 39.5 459.5 c 128,-1,20
 50 475 50 475 67 475 c 2,21,-1
 361 475 l 2,22,23
 378 475 378 475 390.5 464.5 c 128,-1,24
 403 454 403 454 403 431 c 0,25,26
 403 403 403 403 383 377 c 2,27,-1
 185 105 l 1,28,-1
 381 105 l 2,0,1
EndSplineSet
EndChar
StartChar: braceleft
Encoding: 123 123 159
Width: 361
Flags: W
LayerCount: 2
Back
Fore
SplineSet
21 386 m 256,0,1
 21 409 21 409 30.5 418 c 128,-1,2
 40 427 40 427 51 431 c 128,-1,3
 62 435 62 435 71.5 439.5 c 128,-1,4
 81 444 81 444 81 459 c 0,5,6
 81 466 81 466 78.5 484 c 128,-1,7
 76 502 76 502 73 523 c 128,-1,8
 70 544 70 544 67.5 564 c 128,-1,9
 65 584 65 584 65 596 c 0,10,11
 65 630 65 630 83 661 c 128,-1,12
 101 692 101 692 131 716 c 128,-1,13
 161 740 161 740 198.5 754 c 128,-1,14
 236 768 236 768 275 768 c 0,15,16
 296 768 296 768 309.5 763 c 128,-1,17
 323 758 323 758 331.5 749.5 c 128,-1,18
 340 741 340 741 343 731 c 128,-1,19
 346 721 346 721 346 711 c 0,20,21
 346 692 346 692 336 675 c 128,-1,22
 326 658 326 658 306 658 c 0,23,24
 291 658 291 658 271.5 653.5 c 128,-1,25
 252 649 252 649 235 639.5 c 128,-1,26
 218 630 218 630 206.5 615 c 128,-1,27
 195 600 195 600 195 579 c 0,28,29
 195 569 195 569 197.5 550 c 128,-1,30
 200 531 200 531 203 510 c 128,-1,31
 206 489 206 489 208.5 470.5 c 128,-1,32
 211 452 211 452 211 443 c 0,33,34
 211 422 211 422 197.5 404.5 c 128,-1,35
 184 387 184 387 175 384 c 1,36,37
 186 381 186 381 198.5 364.5 c 128,-1,38
 211 348 211 348 211 326 c 0,39,40
 211 317 211 317 208.5 292.5 c 128,-1,41
 206 268 206 268 203 240.5 c 128,-1,42
 200 213 200 213 197.5 189 c 128,-1,43
 195 165 195 165 195 156 c 0,44,45
 195 136 195 136 207 123.5 c 128,-1,46
 219 111 219 111 236.5 103.5 c 128,-1,47
 254 96 254 96 273 93 c 128,-1,48
 292 90 292 90 306 90 c 0,49,50
 318 90 318 90 325.5 84.5 c 128,-1,51
 333 79 333 79 337.5 71 c 128,-1,52
 342 63 342 63 344 53.5 c 128,-1,53
 346 44 346 44 346 36 c 0,54,55
 346 -20 346 -20 273 -20 c 0,56,57
 234 -20 234 -20 197 -8 c 128,-1,58
 160 4 160 4 130.5 25 c 128,-1,59
 101 46 101 46 83 75.5 c 128,-1,60
 65 105 65 105 65 141 c 0,61,62
 65 154 65 154 67.5 179 c 128,-1,63
 70 204 70 204 73 231 c 128,-1,64
 76 258 76 258 78.5 280.5 c 128,-1,65
 81 303 81 303 81 311 c 0,66,67
 81 326 81 326 71.5 331 c 128,-1,68
 62 336 62 336 51 340.5 c 128,-1,69
 40 345 40 345 30.5 354 c 128,-1,70
 21 363 21 363 21 386 c 256,0,1
EndSplineSet
EndChar
StartChar: bar
Encoding: 124 124 158
Width: 241
Flags: W
LayerCount: 2
Back
Fore
SplineSet
120 768 m 0,0,1
 147 768 147 768 166 756.5 c 128,-1,2
 185 745 185 745 185 728 c 2,3,-1
 185 20 l 2,4,5
 185 5 185 5 166 -8 c 128,-1,6
 147 -21 147 -21 120 -21 c 0,7,8
 92 -21 92 -21 74 -8 c 128,-1,9
 56 5 56 5 56 20 c 2,10,-1
 56 728 l 2,11,12
 56 745 56 745 74 756.5 c 128,-1,13
 92 768 92 768 120 768 c 0,0,1
EndSplineSet
EndChar
StartChar: braceright
Encoding: 125 125 160
Width: 361
Flags: W
LayerCount: 2
Back
Fore
SplineSet
340 386 m 256,0,1
 340 363 340 363 330.5 354 c 128,-1,2
 321 345 321 345 310 340.5 c 128,-1,3
 299 336 299 336 289.5 331 c 128,-1,4
 280 326 280 326 280 311 c 0,5,6
 280 303 280 303 282.5 280.5 c 128,-1,7
 285 258 285 258 288 231 c 128,-1,8
 291 204 291 204 293.5 179 c 128,-1,9
 296 154 296 154 296 141 c 0,10,11
 296 105 296 105 278 75.5 c 128,-1,12
 260 46 260 46 231 25 c 128,-1,13
 202 4 202 4 164.5 -8 c 128,-1,14
 127 -20 127 -20 88 -20 c 0,15,16
 15 -20 15 -20 15 36 c 0,17,18
 15 44 15 44 17 53.5 c 128,-1,19
 19 63 19 63 23.5 71 c 128,-1,20
 28 79 28 79 36 84.5 c 128,-1,21
 44 90 44 90 56 90 c 0,22,23
 70 90 70 90 89 93 c 128,-1,24
 108 96 108 96 125 103.5 c 128,-1,25
 142 111 142 111 154 123.5 c 128,-1,26
 166 136 166 136 166 156 c 0,27,28
 166 165 166 165 163.5 189 c 128,-1,29
 161 213 161 213 158 240.5 c 128,-1,30
 155 268 155 268 152.5 292.5 c 128,-1,31
 150 317 150 317 150 326 c 0,32,33
 150 348 150 348 163 364.5 c 128,-1,34
 176 381 176 381 186 384 c 1,35,36
 177 387 177 387 163.5 404.5 c 128,-1,37
 150 422 150 422 150 443 c 0,38,39
 150 452 150 452 152.5 470.5 c 128,-1,40
 155 489 155 489 158 510 c 128,-1,41
 161 531 161 531 163.5 550 c 128,-1,42
 166 569 166 569 166 579 c 0,43,44
 166 600 166 600 154.5 615 c 128,-1,45
 143 630 143 630 126.5 639.5 c 128,-1,46
 110 649 110 649 90.5 653.5 c 128,-1,47
 71 658 71 658 56 658 c 0,48,49
 36 658 36 658 25.5 675 c 128,-1,50
 15 692 15 692 15 711 c 0,51,52
 15 721 15 721 18.5 731 c 128,-1,53
 22 741 22 741 30 749.5 c 128,-1,54
 38 758 38 758 52 763 c 128,-1,55
 66 768 66 768 87 768 c 0,56,57
 126 768 126 768 163.5 754 c 128,-1,58
 201 740 201 740 230.5 716 c 128,-1,59
 260 692 260 692 278 661 c 128,-1,60
 296 630 296 630 296 596 c 0,61,62
 296 584 296 584 293.5 564 c 128,-1,63
 291 544 291 544 288 523 c 128,-1,64
 285 502 285 502 282.5 484 c 128,-1,65
 280 466 280 466 280 459 c 0,66,67
 280 444 280 444 289.5 439.5 c 128,-1,68
 299 435 299 435 310 431 c 128,-1,69
 321 427 321 427 330.5 418 c 128,-1,70
 340 409 340 409 340 386 c 256,0,1
EndSplineSet
EndChar
StartChar: asciitilde
Encoding: 126 126 151
Width: 411
Flags: W
LayerCount: 2
Back
Fore
SplineSet
150 228 m 0,0,1
 134 228 134 228 122.5 224 c 128,-1,2
 111 220 111 220 101.5 215.5 c 128,-1,3
 92 211 92 211 84 207.5 c 128,-1,4
 76 204 76 204 68 204 c 0,5,6
 58 204 58 204 51.5 209 c 128,-1,7
 45 214 45 214 41.5 221 c 128,-1,8
 38 228 38 228 36.5 235 c 128,-1,9
 35 242 35 242 35 246 c 0,10,11
 35 269 35 269 45 282.5 c 128,-1,12
 55 296 55 296 69 303 c 128,-1,13
 83 310 83 310 97.5 312 c 128,-1,14
 112 314 112 314 121 314 c 0,15,16
 143 314 143 314 160 309.5 c 128,-1,17
 177 305 177 305 193.5 299.5 c 128,-1,18
 210 294 210 294 226.5 289.5 c 128,-1,19
 243 285 243 285 263 285 c 0,20,21
 279 285 279 285 291 288.5 c 128,-1,22
 303 292 303 292 312 296.5 c 128,-1,23
 321 301 321 301 328.5 305 c 128,-1,24
 336 309 336 309 344 309 c 0,25,26
 354 309 354 309 360 304 c 128,-1,27
 366 299 366 299 370 292 c 128,-1,28
 374 285 374 285 375.5 278 c 128,-1,29
 377 271 377 271 377 267 c 0,30,31
 377 244 377 244 367 230.5 c 128,-1,32
 357 217 357 217 343 210 c 128,-1,33
 329 203 329 203 314.5 201 c 128,-1,34
 300 199 300 199 292 199 c 0,35,36
 267 199 267 199 249 203.5 c 128,-1,37
 231 208 231 208 215 213.5 c 128,-1,38
 199 219 199 219 184 223.5 c 128,-1,39
 169 228 169 228 150 228 c 0,0,1
EndSplineSet
EndChar
StartChar: exclamdown
Encoding: 161 161 215
Width: 221
Flags: W
LayerCount: 2
Back
Fore
SplineSet
48 48 m 0,0,1
 48 98 48 98 50 154.5 c 128,-1,2
 52 211 52 211 55 269 c 128,-1,3
 58 327 58 327 60 383 c 128,-1,4
 62 439 62 439 62 489 c 0,5,6
 62 509 62 509 78.5 518 c 128,-1,7
 95 527 95 527 110 527 c 0,8,9
 130 527 130 527 145 518 c 128,-1,10
 160 509 160 509 160 489 c 0,11,12
 160 439 160 439 162 383 c 128,-1,13
 164 327 164 327 166.5 269 c 128,-1,14
 169 211 169 211 171 154.5 c 128,-1,15
 173 98 173 98 173 48 c 0,16,17
 173 22 173 22 155 8 c 128,-1,18
 137 -6 137 -6 110 -6 c 0,19,20
 84 -6 84 -6 66 8 c 128,-1,21
 48 22 48 22 48 48 c 0,0,1
110 598 m 0,22,23
 82 598 82 598 62 618 c 128,-1,24
 42 638 42 638 42 667 c 0,25,26
 42 694 42 694 62 714.5 c 128,-1,27
 82 735 82 735 110 735 c 0,28,29
 139 735 139 735 158.5 714.5 c 128,-1,30
 178 694 178 694 178 667 c 0,31,32
 178 638 178 638 158.5 618 c 128,-1,33
 139 598 139 598 110 598 c 0,22,23
EndSplineSet
EndChar
StartChar: cent
Encoding: 162 162 175
Width: 432
Flags: W
LayerCount: 2
Back
Fore
SplineSet
244 695 m 0,0,1
 259 695 259 695 270.5 685.5 c 128,-1,2
 282 676 282 676 282 660 c 2,3,-1
 282 581 l 1,4,5
 335 574 335 574 368.5 553.5 c 128,-1,6
 402 533 402 533 402 507 c 0,7,8
 402 498 402 498 398 487.5 c 128,-1,9
 394 477 394 477 387.5 468 c 128,-1,10
 381 459 381 459 371.5 453.5 c 128,-1,11
 362 448 362 448 350 448 c 0,12,13
 344 448 344 448 338 451 c 128,-1,14
 332 454 332 454 324 458.5 c 128,-1,15
 316 463 316 463 306 467 c 128,-1,16
 296 471 296 471 282 474 c 1,17,-1
 282 267 l 1,18,19
 296 270 296 270 306 274.5 c 128,-1,20
 316 279 316 279 323.5 283.5 c 128,-1,21
 331 288 331 288 337 291.5 c 128,-1,22
 343 295 343 295 350 295 c 0,23,24
 376 295 376 295 391 276 c 128,-1,25
 406 257 406 257 406 237 c 0,26,27
 406 224 406 224 396.5 211.5 c 128,-1,28
 387 199 387 199 370 188.5 c 128,-1,29
 353 178 353 178 330.5 170 c 128,-1,30
 308 162 308 162 282 158 c 1,31,-1
 282 76 l 2,32,33
 282 62 282 62 270.5 50.5 c 128,-1,34
 259 39 259 39 244 39 c 0,35,36
 228 39 228 39 217 50.5 c 128,-1,37
 206 62 206 62 206 76 c 2,38,-1
 206 157 l 1,39,40
 158 161 158 161 124 178.5 c 128,-1,41
 90 196 90 196 67.5 223 c 128,-1,42
 45 250 45 250 34.5 285 c 128,-1,43
 24 320 24 320 24 361 c 2,44,-1
 24 379 l 2,45,46
 24 419 24 419 34.5 454 c 128,-1,47
 45 489 45 489 67.5 516 c 128,-1,48
 90 543 90 543 124 560.5 c 128,-1,49
 158 578 158 578 206 583 c 1,50,-1
 206 660 l 2,51,52
 206 676 206 676 217 685.5 c 128,-1,53
 228 695 228 695 244 695 c 0,0,1
137 361 m 2,54,55
 137 323 137 323 153.5 298.5 c 128,-1,56
 170 274 170 274 206 265 c 1,57,-1
 206 474 l 1,58,59
 170 465 170 465 153.5 441 c 128,-1,60
 137 417 137 417 137 379 c 2,61,-1
 137 361 l 2,54,55
EndSplineSet
EndChar
StartChar: sterling
Encoding: 163 163 365
Width: 541
Flags: W
LayerCount: 2
Back
Fore
SplineSet
470 114 m 2,0,1
 490 114 490 114 499.5 96.5 c 128,-1,2
 509 79 509 79 509 57 c 0,3,4
 509 36 509 36 499.5 18 c 128,-1,5
 490 0 490 0 470 0 c 2,6,-1
 60 0 l 2,7,8
 40 0 40 0 30.5 18 c 128,-1,9
 21 36 21 36 21 57 c 0,10,11
 21 79 21 79 30.5 96.5 c 128,-1,12
 40 114 40 114 60 114 c 2,13,-1
 113 114 l 1,14,-1
 148 366 l 1,15,-1
 92 366 l 2,16,17
 76 366 76 366 67.5 380.5 c 128,-1,18
 59 395 59 395 59 413 c 0,19,20
 59 430 59 430 67.5 445 c 128,-1,21
 76 460 76 460 92 460 c 2,22,-1
 161 460 l 1,23,-1
 175 555 l 2,24,25
 182 601 182 601 205.5 640.5 c 128,-1,26
 229 680 229 680 263.5 708 c 128,-1,27
 298 736 298 736 341 752 c 128,-1,28
 384 768 384 768 430 768 c 2,29,-1
 465 768 l 2,30,31
 486 768 486 768 497.5 750 c 128,-1,32
 509 732 509 732 509 712 c 0,33,34
 509 691 509 691 497.5 673 c 128,-1,35
 486 655 486 655 465 655 c 2,36,-1
 425 655 l 2,37,38
 370 655 370 655 340 626 c 128,-1,39
 310 597 310 597 304 555 c 2,40,-1
 290 460 l 1,41,-1
 410 460 l 2,42,43
 427 460 427 460 435 445 c 128,-1,44
 443 430 443 430 443 413 c 0,45,46
 443 395 443 395 435 380.5 c 128,-1,47
 427 366 427 366 410 366 c 2,48,-1
 277 366 l 1,49,-1
 241 114 l 1,50,-1
 470 114 l 2,0,1
EndSplineSet
EndChar
StartChar: currency
Encoding: 164 164 181
Width: 452
Flags: W
LayerCount: 2
Back
Fore
SplineSet
226 652 m 0,0,1
 256 652 256 652 284 641.5 c 128,-1,2
 312 631 312 631 335 613 c 1,3,-1
 360 636 l 2,4,5
 366 641 366 641 374 641 c 0,6,7
 385 641 385 641 393.5 632.5 c 128,-1,8
 402 624 402 624 402 613 c 0,9,10
 402 606 402 606 396 600 c 2,11,-1
 370 575 l 1,12,13
 386 554 386 554 395 528 c 128,-1,14
 404 502 404 502 404 473 c 256,15,16
 404 444 404 444 395 417.5 c 128,-1,17
 386 391 386 391 369 369 c 1,18,-1
 396 344 l 2,19,20
 402 338 402 338 402 331 c 0,21,22
 402 320 402 320 393.5 311.5 c 128,-1,23
 385 303 385 303 374 303 c 0,24,25
 366 303 366 303 360 308 c 2,26,-1
 335 331 l 1,27,28
 312 311 312 311 284 300.5 c 128,-1,29
 256 290 256 290 226 290 c 0,30,31
 195 290 195 290 167 301 c 128,-1,32
 139 312 139 312 115 332 c 1,33,-1
 90 308 l 2,34,35
 84 303 84 303 76 303 c 0,36,37
 65 303 65 303 56.5 311.5 c 128,-1,38
 48 320 48 320 48 331 c 0,39,40
 48 338 48 338 54 344 c 2,41,-1
 82 370 l 1,42,43
 66 392 66 392 57.5 418 c 128,-1,44
 49 444 49 444 49 472 c 256,45,46
 49 500 49 500 57.5 526 c 128,-1,47
 66 552 66 552 81 574 c 1,48,-1
 55 599 l 2,49,50
 50 604 50 604 50 612 c 0,51,52
 50 623 50 623 58.5 631.5 c 128,-1,53
 67 640 67 640 78 640 c 0,54,55
 84 640 84 640 91 635 c 2,56,-1
 115 612 l 1,57,58
 138 631 138 631 166 641.5 c 128,-1,59
 194 652 194 652 226 652 c 0,0,1
333 471 m 256,60,61
 333 492 333 492 324.5 511.5 c 128,-1,62
 316 531 316 531 302 546.5 c 128,-1,63
 288 562 288 562 268 571 c 128,-1,64
 248 580 248 580 226 580 c 256,65,66
 204 580 204 580 184.5 571 c 128,-1,67
 165 562 165 562 151 547 c 128,-1,68
 137 532 137 532 128.5 512.5 c 128,-1,69
 120 493 120 493 120 472 c 256,70,71
 120 451 120 451 128.5 431 c 128,-1,72
 137 411 137 411 151 395.5 c 128,-1,73
 165 380 165 380 184.5 371 c 128,-1,74
 204 362 204 362 226 362 c 256,75,76
 248 362 248 362 267.5 371 c 128,-1,77
 287 380 287 380 301.5 395.5 c 128,-1,78
 316 411 316 411 324.5 430.5 c 128,-1,79
 333 450 333 450 333 471 c 256,60,61
EndSplineSet
EndChar
StartChar: yen
Encoding: 165 165 409
Width: 563
Flags: W
LayerCount: 2
Back
Fore
SplineSet
85 354 m 256,0,1
 85 374 85 374 96 387.5 c 128,-1,2
 107 401 107 401 126 401 c 2,3,-1
 186 401 l 1,4,-1
 25 667 l 2,5,6
 23 670 23 670 22 675 c 128,-1,7
 21 680 21 680 21 683 c 0,8,9
 21 693 21 693 28.5 702.5 c 128,-1,10
 36 712 36 712 47 719.5 c 128,-1,11
 58 727 58 727 72 731.5 c 128,-1,12
 86 736 86 736 98 736 c 0,13,14
 112 736 112 736 120 727.5 c 128,-1,15
 128 719 128 719 135 706 c 2,16,-1
 281 435 l 1,17,-1
 428 706 l 2,18,19
 435 719 435 719 443 727.5 c 128,-1,20
 451 736 451 736 465 736 c 0,21,22
 477 736 477 736 491 731 c 128,-1,23
 505 726 505 726 516 718.5 c 128,-1,24
 527 711 527 711 534.5 701.5 c 128,-1,25
 542 692 542 692 542 683 c 0,26,27
 542 675 542 675 538 667 c 2,28,-1
 374 401 l 1,29,-1
 439 401 l 2,30,31
 455 401 455 401 468 388 c 128,-1,32
 481 375 481 375 481 355 c 256,33,34
 481 335 481 335 468 322.5 c 128,-1,35
 455 310 455 310 439 310 c 2,36,-1
 346 310 l 1,37,-1
 346 246 l 1,38,-1
 439 246 l 2,39,40
 455 246 455 246 468 233 c 128,-1,41
 481 220 481 220 481 200 c 256,42,43
 481 180 481 180 468 167.5 c 128,-1,44
 455 155 455 155 439 155 c 2,45,-1
 346 155 l 1,46,-1
 346 41 l 2,47,48
 346 21 346 21 326 10.5 c 128,-1,49
 306 0 306 0 281 0 c 256,50,51
 256 0 256 0 236 10.5 c 128,-1,52
 216 21 216 21 216 41 c 2,53,-1
 216 155 l 1,54,-1
 126 155 l 2,55,56
 107 155 107 155 96 167 c 128,-1,57
 85 179 85 179 85 199 c 256,58,59
 85 219 85 219 96 232.5 c 128,-1,60
 107 246 107 246 126 246 c 2,61,-1
 216 246 l 1,62,-1
 216 310 l 1,63,-1
 126 310 l 2,64,65
 107 310 107 310 96 322 c 128,-1,66
 85 334 85 334 85 354 c 256,0,1
EndSplineSet
EndChar
StartChar: brokenbar
Encoding: 166 166 164
Width: 239
Flags: W
LayerCount: 2
Back
Fore
SplineSet
119 768 m 0,0,1
 146 768 146 768 165 756.5 c 128,-1,2
 184 745 184 745 184 728 c 2,3,-1
 184 478 l 2,4,5
 184 462 184 462 165 449 c 128,-1,6
 146 436 146 436 119 436 c 0,7,8
 91 436 91 436 73 449 c 128,-1,9
 55 462 55 462 55 478 c 2,10,-1
 55 728 l 2,11,12
 55 745 55 745 73 756.5 c 128,-1,13
 91 768 91 768 119 768 c 0,0,1
119 311 m 0,14,15
 146 311 146 311 165 299.5 c 128,-1,16
 184 288 184 288 184 270 c 2,17,-1
 184 20 l 2,18,19
 184 5 184 5 165 -8 c 128,-1,20
 146 -21 146 -21 119 -21 c 0,21,22
 91 -21 91 -21 73 -8 c 128,-1,23
 55 5 55 5 55 20 c 2,24,-1
 55 270 l 2,25,26
 55 288 55 288 73 299.5 c 128,-1,27
 91 311 91 311 119 311 c 0,14,15
EndSplineSet
EndChar
StartChar: section
Encoding: 167 167 354
Width: 477
Flags: W
LayerCount: 2
Back
Fore
SplineSet
44 524 m 2,0,1
 44 587 44 587 63 627 c 128,-1,2
 82 667 82 667 110.5 690 c 128,-1,3
 139 713 139 713 173.5 722 c 128,-1,4
 208 731 208 731 239 731 c 0,5,6
 285 731 285 731 319 716.5 c 128,-1,7
 353 702 353 702 375.5 678.5 c 128,-1,8
 398 655 398 655 409 625 c 128,-1,9
 420 595 420 595 420 564 c 256,10,11
 420 533 420 533 407 523 c 128,-1,12
 394 513 394 513 371 513 c 0,13,14
 339 513 339 513 327.5 526 c 128,-1,15
 316 539 316 539 316 556 c 0,16,17
 316 567 316 567 313 579 c 128,-1,18
 310 591 310 591 302 601.5 c 128,-1,19
 294 612 294 612 280 619 c 128,-1,20
 266 626 266 626 244 626 c 0,21,22
 206 626 206 626 184.5 605.5 c 128,-1,23
 163 585 163 585 163 551 c 0,24,25
 163 521 163 521 183.5 503 c 128,-1,26
 204 485 204 485 235 471 c 128,-1,27
 266 457 266 457 301.5 442 c 128,-1,28
 337 427 337 427 368 403 c 128,-1,29
 399 379 399 379 419.5 341.5 c 128,-1,30
 440 304 440 304 440 245 c 2,31,-1
 440 138 l 2,32,33
 440 77 440 77 421 37.5 c 128,-1,34
 402 -2 402 -2 372 -25.5 c 128,-1,35
 342 -49 342 -49 305.5 -58.5 c 128,-1,36
 269 -68 269 -68 235 -68 c 0,37,38
 187 -68 187 -68 150.5 -53 c 128,-1,39
 114 -38 114 -38 89.5 -14.5 c 128,-1,40
 65 9 65 9 52.5 39 c 128,-1,41
 40 69 40 69 40 99 c 256,42,43
 40 129 40 129 54.5 139.5 c 128,-1,44
 69 150 69 150 95 150 c 0,45,46
 127 150 127 150 139 139 c 128,-1,47
 151 128 151 128 151 114 c 0,48,49
 151 103 151 103 153.5 89.5 c 128,-1,50
 156 76 156 76 164 65 c 128,-1,51
 172 54 172 54 187 46.5 c 128,-1,52
 202 39 202 39 227 39 c 0,53,54
 271 39 271 39 290.5 59.5 c 128,-1,55
 310 80 310 80 310 111 c 0,56,57
 310 141 310 141 290.5 159 c 128,-1,58
 271 177 271 177 241 191 c 128,-1,59
 211 205 211 205 177 220 c 128,-1,60
 143 235 143 235 113 259 c 128,-1,61
 83 283 83 283 63.5 320 c 128,-1,62
 44 357 44 357 44 417 c 2,63,-1
 44 524 l 2,0,1
334 261 m 2,64,65
 334 301 334 301 313 322.5 c 128,-1,66
 292 344 292 344 263 358 c 128,-1,67
 234 372 234 372 203 383 c 128,-1,68
 172 394 172 394 151 412 c 1,69,-1
 151 391 l 2,70,71
 151 351 151 351 172 329.5 c 128,-1,72
 193 308 193 308 222 294 c 128,-1,73
 251 280 251 280 282 269 c 128,-1,74
 313 258 313 258 334 240 c 1,75,-1
 334 261 l 2,64,65
EndSplineSet
EndChar
StartChar: dieresis
Encoding: 168 168 188
Width: 251
Flags: W
LayerCount: 2
Back
Fore
SplineSet
51 682 m 256,0,1
 72 682 72 682 86.5 666.5 c 128,-1,2
 101 651 101 651 101 630 c 256,3,4
 101 609 101 609 86.5 593 c 128,-1,5
 72 577 72 577 51 577 c 256,6,7
 30 577 30 577 15 593 c 128,-1,8
 0 609 0 609 0 630 c 256,9,10
 0 651 0 651 15 666.5 c 128,-1,11
 30 682 30 682 51 682 c 256,0,1
201 682 m 0,12,13
 221 682 221 682 236 666.5 c 128,-1,14
 251 651 251 651 251 630 c 256,15,16
 251 609 251 609 236 593 c 128,-1,17
 221 577 221 577 201 577 c 0,18,19
 179 577 179 577 164 593 c 128,-1,20
 149 609 149 609 149 630 c 256,21,22
 149 651 149 651 164 666.5 c 128,-1,23
 179 682 179 682 201 682 c 0,12,13
EndSplineSet
EndChar
StartChar: copyright
Encoding: 169 169 180
Width: 690
Flags: W
LayerCount: 2
Back
Fore
SplineSet
38 358 m 0,0,1
 38 442 38 442 67 503.5 c 128,-1,2
 96 565 96 565 141 605.5 c 128,-1,3
 186 646 186 646 241 665.5 c 128,-1,4
 296 685 296 685 348 685 c 0,5,6
 401 685 401 685 455 665 c 128,-1,7
 509 645 509 645 553 605 c 128,-1,8
 597 565 597 565 624.5 504 c 128,-1,9
 652 443 652 443 652 362 c 0,10,11
 652 278 652 278 623 216.5 c 128,-1,12
 594 155 594 155 549 114.5 c 128,-1,13
 504 74 504 74 449 54.5 c 128,-1,14
 394 35 394 35 342 35 c 0,15,16
 289 35 289 35 235 55 c 128,-1,17
 181 75 181 75 137 115 c 128,-1,18
 93 155 93 155 65.5 216 c 128,-1,19
 38 277 38 277 38 358 c 0,0,1
590 362 m 0,20,21
 590 419 590 419 573 466.5 c 128,-1,22
 556 514 556 514 524.5 549 c 128,-1,23
 493 584 493 584 448 603.5 c 128,-1,24
 403 623 403 623 348 623 c 256,25,26
 293 623 293 623 247.5 603.5 c 128,-1,27
 202 584 202 584 169 549 c 128,-1,28
 136 514 136 514 118 465.5 c 128,-1,29
 100 417 100 417 100 358 c 0,30,31
 100 301 100 301 117 253.5 c 128,-1,32
 134 206 134 206 165.5 171 c 128,-1,33
 197 136 197 136 241.5 116.5 c 128,-1,34
 286 97 286 97 342 97 c 0,35,36
 397 97 397 97 442.5 116.5 c 128,-1,37
 488 136 488 136 521 171 c 128,-1,38
 554 206 554 206 572 254.5 c 128,-1,39
 590 303 590 303 590 362 c 0,20,21
398 445 m 0,40,41
 398 451 398 451 396.5 460.5 c 128,-1,42
 395 470 395 470 390 478.5 c 128,-1,43
 385 487 385 487 375.5 493 c 128,-1,44
 366 499 366 499 349 499 c 0,45,46
 298 499 298 499 298 436 c 2,47,-1
 298 298 l 2,48,49
 298 265 298 265 311 250 c 128,-1,50
 324 235 324 235 349 235 c 0,51,52
 365 235 365 235 374.5 241 c 128,-1,53
 384 247 384 247 389 256 c 128,-1,54
 394 265 394 265 395.5 275 c 128,-1,55
 397 285 397 285 398 294 c 0,56,57
 399 307 399 307 409 311.5 c 128,-1,58
 419 316 419 316 433 316 c 0,59,60
 452 316 452 316 460.5 309 c 128,-1,61
 469 302 469 302 469 280 c 0,62,63
 469 229 469 229 434.5 199.5 c 128,-1,64
 400 170 400 170 346 170 c 0,65,66
 322 170 322 170 300 177 c 128,-1,67
 278 184 278 184 262 199 c 128,-1,68
 246 214 246 214 236.5 238.5 c 128,-1,69
 227 263 227 263 227 298 c 2,70,-1
 227 436 l 2,71,72
 227 471 227 471 236.5 495.5 c 128,-1,73
 246 520 246 520 262 535 c 128,-1,74
 278 550 278 550 300 557 c 128,-1,75
 322 564 322 564 346 564 c 0,76,77
 400 564 400 564 434.5 535.5 c 128,-1,78
 469 507 469 507 469 458 c 0,79,80
 469 436 469 436 460.5 429 c 128,-1,81
 452 422 452 422 434 422 c 0,82,83
 419 422 419 422 409 427 c 128,-1,84
 399 432 399 432 398 445 c 0,40,41
EndSplineSet
EndChar
StartChar: ordfeminine
Encoding: 170 170 309
Width: 334
Flags: W
LayerCount: 2
Back
Fore
SplineSet
152 760 m 0,0,1
 191 760 191 760 218 749 c 128,-1,2
 245 738 245 738 262.5 719.5 c 128,-1,3
 280 701 280 701 287.5 677.5 c 128,-1,4
 295 654 295 654 295 629 c 2,5,-1
 295 466 l 2,6,7
 295 455 295 455 283.5 447 c 128,-1,8
 272 439 272 439 252 439 c 0,9,10
 236 439 236 439 225 447 c 128,-1,11
 214 455 214 455 214 466 c 2,12,-1
 214 486 l 1,13,14
 197 466 197 466 173 449.5 c 128,-1,15
 149 433 149 433 116 433 c 0,16,17
 80 433 80 433 53 453.5 c 128,-1,18
 26 474 26 474 26 521 c 0,19,20
 26 550 26 550 37.5 569 c 128,-1,21
 49 588 49 588 69.5 599 c 128,-1,22
 90 610 90 610 118.5 614.5 c 128,-1,23
 147 619 147 619 182 619 c 2,24,-1
 209 619 l 1,25,-1
 209 628 l 2,26,27
 209 650 209 650 196 670 c 128,-1,28
 183 690 183 690 151 690 c 0,29,30
 131 690 131 690 119 686.5 c 128,-1,31
 107 683 107 683 99.5 679 c 128,-1,32
 92 675 92 675 86.5 671.5 c 128,-1,33
 81 668 81 668 75 668 c 0,34,35
 60 668 60 668 52.5 682.5 c 128,-1,36
 45 697 45 697 45 712 c 0,37,38
 45 722 45 722 55 731 c 128,-1,39
 65 740 65 740 81 746.5 c 128,-1,40
 97 753 97 753 115.5 756.5 c 128,-1,41
 134 760 134 760 152 760 c 0,0,1
209 574 m 1,42,-1
 188 574 l 2,43,44
 158 574 158 574 135.5 566 c 128,-1,45
 113 558 113 558 113 533 c 0,46,47
 113 514 113 514 123 505.5 c 128,-1,48
 133 497 133 497 148 497 c 0,49,50
 158 497 158 497 169 502 c 128,-1,51
 180 507 180 507 189 516 c 128,-1,52
 198 525 198 525 203.5 536.5 c 128,-1,53
 209 548 209 548 209 561 c 2,54,-1
 209 574 l 1,42,-1
EndSplineSet
EndChar
StartChar: guillemotleft
Encoding: 171 171 238
Width: 499
Flags: W
LayerCount: 2
Back
Fore
SplineSet
234 152 m 2,0,1
 237 146 237 146 237 139 c 0,2,3
 237 129 237 129 230.5 117.5 c 128,-1,4
 224 106 224 106 212.5 96.5 c 128,-1,5
 201 87 201 87 186.5 80.5 c 128,-1,6
 172 74 172 74 156 74 c 0,7,8
 129 74 129 74 120 91 c 2,9,-1
 47 227 l 2,10,11
 37 246 37 246 30.5 255.5 c 128,-1,12
 24 265 24 265 24 276 c 0,13,14
 24 288 24 288 30.5 298 c 128,-1,15
 37 308 37 308 47 327 c 2,16,-1
 120 463 l 2,17,18
 129 480 129 480 157 480 c 0,19,20
 173 480 173 480 187.5 473.5 c 128,-1,21
 202 467 202 467 213 457.5 c 128,-1,22
 224 448 224 448 230.5 436.5 c 128,-1,23
 237 425 237 425 237 415 c 0,24,25
 237 407 237 407 234 403 c 2,26,-1
 167 277 l 1,27,-1
 234 152 l 2,0,1
461 152 m 2,28,29
 464 146 464 146 464 139 c 0,30,31
 464 129 464 129 457.5 117.5 c 128,-1,32
 451 106 451 106 440 96.5 c 128,-1,33
 429 87 429 87 414.5 80.5 c 128,-1,34
 400 74 400 74 384 74 c 0,35,36
 356 74 356 74 348 91 c 2,37,-1
 274 227 l 2,38,39
 264 246 264 246 257.5 255.5 c 128,-1,40
 251 265 251 265 251 276 c 0,41,42
 251 288 251 288 257.5 298 c 128,-1,43
 264 308 264 308 274 327 c 2,44,-1
 348 463 l 2,45,46
 356 480 356 480 384 480 c 0,47,48
 400 480 400 480 414.5 473.5 c 128,-1,49
 429 467 429 467 440 457.5 c 128,-1,50
 451 448 451 448 457.5 436.5 c 128,-1,51
 464 425 464 425 464 415 c 0,52,53
 464 407 464 407 461 403 c 2,54,-1
 394 277 l 1,55,-1
 461 152 l 2,28,29
EndSplineSet
EndChar
StartChar: logicalnot
Encoding: 172 172 271
Width: 497
Flags: W
LayerCount: 2
Back
Fore
SplineSet
32 240 m 0,0,1
 32 263 32 263 43 278.5 c 128,-1,2
 54 294 54 294 72 294 c 2,3,-1
 406 294 l 2,4,5
 422 294 422 294 435 278.5 c 128,-1,6
 448 263 448 263 448 240 c 2,7,-1
 448 104 l 2,8,9
 448 88 448 88 429 75.5 c 128,-1,10
 410 63 410 63 383 63 c 0,11,12
 355 63 355 63 337 75.5 c 128,-1,13
 319 88 319 88 319 104 c 2,14,-1
 319 187 l 1,15,-1
 72 187 l 2,16,17
 54 187 54 187 43 201.5 c 128,-1,18
 32 216 32 216 32 240 c 0,0,1
EndSplineSet
EndChar
StartChar: registered
Encoding: 174 174 345
Width: 690
Flags: W
LayerCount: 2
Back
Fore
SplineSet
38 358 m 0,0,1
 38 442 38 442 67 503.5 c 128,-1,2
 96 565 96 565 141 605.5 c 128,-1,3
 186 646 186 646 241 665.5 c 128,-1,4
 296 685 296 685 348 685 c 0,5,6
 401 685 401 685 455 665 c 128,-1,7
 509 645 509 645 553 605 c 128,-1,8
 597 565 597 565 624.5 504 c 128,-1,9
 652 443 652 443 652 362 c 0,10,11
 652 278 652 278 623 216.5 c 128,-1,12
 594 155 594 155 549 114.5 c 128,-1,13
 504 74 504 74 449 54.5 c 128,-1,14
 394 35 394 35 342 35 c 0,15,16
 289 35 289 35 235 55 c 128,-1,17
 181 75 181 75 137 115 c 128,-1,18
 93 155 93 155 65.5 216 c 128,-1,19
 38 277 38 277 38 358 c 0,0,1
238 528 m 2,20,21
 238 537 238 537 244 543.5 c 128,-1,22
 250 550 250 550 260 551 c 2,23,-1
 358 551 l 2,24,25
 382 551 382 551 403 545.5 c 128,-1,26
 424 540 424 540 440 527.5 c 128,-1,27
 456 515 456 515 465.5 494 c 128,-1,28
 475 473 475 473 475 443 c 0,29,30
 475 400 475 400 456.5 375 c 128,-1,31
 438 350 438 350 411 340 c 1,32,-1
 472 221 l 2,33,34
 473 219 473 219 473 214 c 0,35,36
 473 200 473 200 461 189 c 128,-1,37
 449 178 449 178 436 178 c 0,38,39
 422 178 422 178 415 196 c 2,40,-1
 349 329 l 1,41,-1
 305 329 l 1,42,-1
 305 203 l 2,43,44
 305 192 305 192 296 185.5 c 128,-1,45
 287 179 287 179 273 179 c 0,46,47
 260 179 260 179 249 185 c 128,-1,48
 238 191 238 191 238 203 c 2,49,-1
 238 528 l 2,20,21
305 491 m 1,50,-1
 305 386 l 1,51,-1
 358 386 l 2,52,53
 381 386 381 386 395 398 c 128,-1,54
 409 410 409 410 409 436 c 0,55,56
 409 467 409 467 395 479 c 128,-1,57
 381 491 381 491 358 491 c 2,58,-1
 305 491 l 1,50,-1
590 362 m 0,59,60
 590 419 590 419 573 466.5 c 128,-1,61
 556 514 556 514 524.5 549 c 128,-1,62
 493 584 493 584 448 603.5 c 128,-1,63
 403 623 403 623 348 623 c 256,64,65
 293 623 293 623 247.5 603.5 c 128,-1,66
 202 584 202 584 169 549 c 128,-1,67
 136 514 136 514 118 465.5 c 128,-1,68
 100 417 100 417 100 358 c 0,69,70
 100 301 100 301 117 253.5 c 128,-1,71
 134 206 134 206 165.5 171 c 128,-1,72
 197 136 197 136 241.5 116.5 c 128,-1,73
 286 97 286 97 342 97 c 0,74,75
 397 97 397 97 442.5 116.5 c 128,-1,76
 488 136 488 136 521 171 c 128,-1,77
 554 206 554 206 572 254.5 c 128,-1,78
 590 303 590 303 590 362 c 0,59,60
EndSplineSet
EndChar
StartChar: macron
Encoding: 175 175 276
Width: 286
Flags: W
LayerCount: 2
Back
Fore
SplineSet
0 652 m 0,0,1
 0 670 0 670 11 682.5 c 128,-1,2
 22 695 22 695 40 695 c 2,3,-1
 245 695 l 2,4,5
 261 695 261 695 273.5 682.5 c 128,-1,6
 286 670 286 670 286 652 c 0,7,8
 286 633 286 633 273.5 621.5 c 128,-1,9
 261 610 261 610 245 610 c 2,10,-1
 40 610 l 2,11,12
 22 610 22 610 11 621.5 c 128,-1,13
 0 633 0 633 0 652 c 0,0,1
EndSplineSet
EndChar
StartChar: degree
Encoding: 176 176 187
Width: 399
Flags: W
LayerCount: 2
Back
Fore
SplineSet
199 768 m 256,0,1
 235 768 235 768 267 753.5 c 128,-1,2
 299 739 299 739 323.5 714.5 c 128,-1,3
 348 690 348 690 362.5 657.5 c 128,-1,4
 377 625 377 625 377 589 c 256,5,6
 377 553 377 553 362.5 519.5 c 128,-1,7
 348 486 348 486 323.5 461 c 128,-1,8
 299 436 299 436 267 421 c 128,-1,9
 235 406 235 406 199 406 c 256,10,11
 163 406 163 406 131 421 c 128,-1,12
 99 436 99 436 75 461 c 128,-1,13
 51 486 51 486 36.5 519 c 128,-1,14
 22 552 22 552 22 588 c 256,15,16
 22 624 22 624 36 656.5 c 128,-1,17
 50 689 50 689 74 714 c 128,-1,18
 98 739 98 739 130.5 753.5 c 128,-1,19
 163 768 163 768 199 768 c 256,0,1
306 587 m 256,20,21
 306 608 306 608 297.5 627.5 c 128,-1,22
 289 647 289 647 275 662.5 c 128,-1,23
 261 678 261 678 241 687 c 128,-1,24
 221 696 221 696 199 696 c 256,25,26
 177 696 177 696 157.5 687 c 128,-1,27
 138 678 138 678 124 663 c 128,-1,28
 110 648 110 648 101.5 628.5 c 128,-1,29
 93 609 93 609 93 588 c 256,30,31
 93 567 93 567 101.5 547 c 128,-1,32
 110 527 110 527 124 511.5 c 128,-1,33
 138 496 138 496 157.5 487 c 128,-1,34
 177 478 177 478 199 478 c 256,35,36
 221 478 221 478 240.5 487 c 128,-1,37
 260 496 260 496 274.5 511.5 c 128,-1,38
 289 527 289 527 297.5 546.5 c 128,-1,39
 306 566 306 566 306 587 c 256,20,21
EndSplineSet
EndChar
StartChar: plusminus
Encoding: 177 177 325
Width: 471
Flags: W
LayerCount: 2
Back
Fore
SplineSet
236 176 m 0,0,1
 213 176 213 176 197.5 187 c 128,-1,2
 182 198 182 198 182 216 c 2,3,-1
 182 315 l 1,4,-1
 75 315 l 2,5,6
 57 315 57 315 46 330 c 128,-1,7
 35 345 35 345 35 368 c 256,8,9
 35 391 35 391 46 407 c 128,-1,10
 57 423 57 423 75 423 c 2,11,-1
 182 423 l 1,12,-1
 182 521 l 2,13,14
 182 536 182 536 197.5 549 c 128,-1,15
 213 562 213 562 236 562 c 0,16,17
 260 562 260 562 274.5 549 c 128,-1,18
 289 536 289 536 289 521 c 2,19,-1
 289 423 l 1,20,-1
 395 423 l 2,21,22
 411 423 411 423 423.5 407 c 128,-1,23
 436 391 436 391 436 368 c 256,24,25
 436 345 436 345 423.5 330 c 128,-1,26
 411 315 411 315 395 315 c 2,27,-1
 289 315 l 1,28,-1
 289 216 l 2,29,30
 289 198 289 198 274.5 187 c 128,-1,31
 260 176 260 176 236 176 c 0,0,1
35 85 m 0,32,33
 35 108 35 108 46 123.5 c 128,-1,34
 57 139 57 139 75 139 c 2,35,-1
 395 139 l 2,36,37
 411 139 411 139 423.5 123.5 c 128,-1,38
 436 108 436 108 436 85 c 0,39,40
 436 61 436 61 423.5 46.5 c 128,-1,41
 411 32 411 32 395 32 c 2,42,-1
 75 32 l 2,43,44
 57 32 57 32 46 46.5 c 128,-1,45
 35 61 35 61 35 85 c 0,32,33
EndSplineSet
EndChar
StartChar: twosuperior
Encoding: 178 178 381
Width: 322
Flags: W
LayerCount: 2
Back
Fore
SplineSet
31 626 m 0,0,1
 31 651 31 651 42 670.5 c 128,-1,2
 53 690 53 690 71.5 703.5 c 128,-1,3
 90 717 90 717 113.5 724 c 128,-1,4
 137 731 137 731 162 731 c 0,5,6
 188 731 188 731 212.5 723.5 c 128,-1,7
 237 716 237 716 256 702 c 128,-1,8
 275 688 275 688 286.5 666.5 c 128,-1,9
 298 645 298 645 298 618 c 0,10,11
 298 589 298 589 284.5 566 c 128,-1,12
 271 543 271 543 250.5 524.5 c 128,-1,13
 230 506 230 506 206 491.5 c 128,-1,14
 182 477 182 477 161.5 464 c 128,-1,15
 141 451 141 451 127.5 439.5 c 128,-1,16
 114 428 114 428 114 416 c 2,17,-1
 114 406 l 1,18,-1
 272 406 l 2,19,20
 283 406 283 406 290.5 395 c 128,-1,21
 298 384 298 384 298 369 c 0,22,23
 298 355 298 355 290.5 343 c 128,-1,24
 283 331 283 331 272 331 c 2,25,-1
 62 331 l 2,26,27
 50 331 50 331 37 338.5 c 128,-1,28
 24 346 24 346 24 358 c 2,29,-1
 24 411 l 2,30,31
 24 432 24 432 38 450.5 c 128,-1,32
 52 469 52 469 73 486 c 128,-1,33
 94 503 94 503 118 519 c 128,-1,34
 142 535 142 535 163 550.5 c 128,-1,35
 184 566 184 566 198 582 c 128,-1,36
 212 598 212 598 212 615 c 0,37,38
 212 628 212 628 200.5 641 c 128,-1,39
 189 654 189 654 163 654 c 0,40,41
 143 654 143 654 129.5 644.5 c 128,-1,42
 116 635 116 635 116 613 c 0,43,44
 116 601 116 601 103.5 591.5 c 128,-1,45
 91 582 91 582 70 582 c 0,46,47
 53 582 53 582 42 591 c 128,-1,48
 31 600 31 600 31 626 c 0,0,1
EndSplineSet
EndChar
StartChar: threesuperior
Encoding: 179 179 376
Width: 329
Flags: W
LayerCount: 2
Back
Fore
SplineSet
161 403 m 0,0,1
 193 403 193 403 206 414.5 c 128,-1,2
 219 426 219 426 219 452 c 2,3,-1
 219 462 l 2,4,5
 219 490 219 490 202 497.5 c 128,-1,6
 185 505 185 505 159 505 c 0,7,8
 144 505 144 505 138.5 515.5 c 128,-1,9
 133 526 133 526 133 538 c 0,10,11
 133 551 133 551 138.5 561 c 128,-1,12
 144 571 144 571 159 572 c 0,13,14
 168 572 168 572 177 573.5 c 128,-1,15
 186 575 186 575 193 579.5 c 128,-1,16
 200 584 200 584 204 593 c 128,-1,17
 208 602 208 602 208 618 c 0,18,19
 208 642 208 642 194.5 650 c 128,-1,20
 181 658 181 658 161 658 c 0,21,22
 136 658 136 658 124.5 652 c 128,-1,23
 113 646 113 646 113 630 c 0,24,25
 113 616 113 616 105 607.5 c 128,-1,26
 97 599 97 599 73 599 c 0,27,28
 44 599 44 599 36.5 606 c 128,-1,29
 29 613 29 613 29 633 c 0,30,31
 29 649 29 649 35.5 666.5 c 128,-1,32
 42 684 42 684 57 698 c 128,-1,33
 72 712 72 712 97.5 721.5 c 128,-1,34
 123 731 123 731 161 731 c 0,35,36
 189 731 189 731 212.5 726 c 128,-1,37
 236 721 236 721 253 709.5 c 128,-1,38
 270 698 270 698 280 679 c 128,-1,39
 290 660 290 660 290 632 c 0,40,41
 290 602 290 602 278.5 577 c 128,-1,42
 267 552 267 552 244 542 c 1,43,44
 271 533 271 533 287.5 514 c 128,-1,45
 304 495 304 495 304 462 c 2,46,-1
 304 452 l 2,47,48
 304 418 304 418 292.5 394.5 c 128,-1,49
 281 371 281 371 261.5 356 c 128,-1,50
 242 341 242 341 215 334.5 c 128,-1,51
 188 328 188 328 158 328 c 0,52,53
 121 328 121 328 94.5 338 c 128,-1,54
 68 348 68 348 51.5 363 c 128,-1,55
 35 378 35 378 27.5 396.5 c 128,-1,56
 20 415 20 415 20 432 c 0,57,58
 20 451 20 451 28.5 457 c 128,-1,59
 37 463 37 463 60 463 c 0,60,61
 87 463 87 463 95.5 456.5 c 128,-1,62
 104 450 104 450 104 435 c 0,63,64
 104 417 104 417 121 410 c 128,-1,65
 138 403 138 403 161 403 c 0,0,1
EndSplineSet
EndChar
StartChar: acute
Encoding: 180 180 136
Width: 202
Flags: W
LayerCount: 2
Back
Fore
SplineSet
54 572 m 2,0,1
 50 570 50 570 47 569 c 128,-1,2
 44 568 44 568 40 568 c 0,3,4
 23 568 23 568 11.5 584 c 128,-1,5
 0 600 0 600 0 617 c 0,6,7
 0 639 0 639 17 648 c 2,8,-1
 149 712 l 2,9,10
 153 713 153 713 156 713.5 c 128,-1,11
 159 714 159 714 162 714 c 0,12,13
 179 714 179 714 190.5 698 c 128,-1,14
 202 682 202 682 202 665 c 0,15,16
 202 656 202 656 198 648 c 128,-1,17
 194 640 194 640 184 635 c 2,18,-1
 54 572 l 2,0,1
EndSplineSet
EndChar
StartChar: mu
Encoding: 181 181 278
Width: 518
Flags: W
LayerCount: 2
Back
Fore
SplineSet
273 -9 m 0,0,1
 243 -9 243 -9 216.5 2 c 128,-1,2
 190 13 190 13 170 30 c 1,3,-1
 170 -180 l 2,4,5
 170 -196 170 -196 155 -208.5 c 128,-1,6
 140 -221 140 -221 119 -221 c 0,7,8
 92 -221 92 -221 74 -208.5 c 128,-1,9
 56 -196 56 -196 56 -180 c 2,10,-1
 56 434 l 2,11,12
 56 449 56 449 75 462 c 128,-1,13
 94 475 94 475 121 475 c 0,14,15
 147 475 147 475 166 462 c 128,-1,16
 185 449 185 449 185 434 c 2,17,-1
 185 189 l 2,18,19
 185 174 185 174 192 159 c 128,-1,20
 199 144 199 144 211.5 132 c 128,-1,21
 224 120 224 120 240 112 c 128,-1,22
 256 104 256 104 274 104 c 256,23,24
 292 104 292 104 307.5 111.5 c 128,-1,25
 323 119 323 119 334.5 132 c 128,-1,26
 346 145 346 145 352.5 161 c 128,-1,27
 359 177 359 177 359 194 c 2,28,-1
 359 434 l 2,29,30
 359 451 359 451 378.5 463 c 128,-1,31
 398 475 398 475 424 475 c 0,32,33
 452 475 452 475 470 463 c 128,-1,34
 488 451 488 451 488 434 c 2,35,-1
 488 194 l 2,36,37
 488 153 488 153 471 116 c 128,-1,38
 454 79 454 79 425 51.5 c 128,-1,39
 396 24 396 24 357 7.5 c 128,-1,40
 318 -9 318 -9 273 -9 c 0,0,1
EndSplineSet
EndChar
StartChar: paragraph
Encoding: 182 182 315
Width: 555
Flags: W
LayerCount: 2
Back
Fore
SplineSet
451 731 m 2,0,1
 467 731 467 731 479.5 720.5 c 128,-1,2
 492 710 492 710 492 690 c 2,3,-1
 492 40 l 2,4,5
 492 19 492 19 479.5 9.5 c 128,-1,6
 467 0 467 0 451 0 c 256,7,8
 435 0 435 0 422 9.5 c 128,-1,9
 409 19 409 19 409 40 c 2,10,-1
 409 672 l 1,11,-1
 327 672 l 1,12,-1
 327 41 l 2,13,14
 327 21 327 21 314 10.5 c 128,-1,15
 301 0 301 0 285 0 c 256,16,17
 269 0 269 0 256.5 10.5 c 128,-1,18
 244 21 244 21 244 41 c 2,19,-1
 244 306 l 1,20,-1
 219 306 l 2,21,22
 178 306 178 306 142 317 c 128,-1,23
 106 328 106 328 79.5 353 c 128,-1,24
 53 378 53 378 38 417.5 c 128,-1,25
 23 457 23 457 23 513 c 2,26,-1
 23 525 l 2,27,28
 23 581 23 581 38 620.5 c 128,-1,29
 53 660 53 660 79.5 684.5 c 128,-1,30
 106 709 106 709 142 720 c 128,-1,31
 178 731 178 731 219 731 c 2,32,-1
 451 731 l 2,0,1
EndSplineSet
EndChar
StartChar: periodcentered
Encoding: 183 183 321
Width: 206
Flags: W
LayerCount: 2
Back
Fore
SplineSet
103 363 m 256,0,1
 133 363 133 363 153.5 344.5 c 128,-1,2
 174 326 174 326 174 300 c 256,3,4
 174 274 174 274 153.5 255 c 128,-1,5
 133 236 133 236 103 236 c 256,6,7
 73 236 73 236 52 255 c 128,-1,8
 31 274 31 274 31 300 c 256,9,10
 31 326 31 326 52 344.5 c 128,-1,11
 73 363 73 363 103 363 c 256,0,1
EndSplineSet
EndChar
StartChar: cedilla
Encoding: 184 184 174
Width: 190
Flags: W
LayerCount: 2
Back
Fore
SplineSet
91 -51 m 1,0,1
 142 -53 142 -53 166 -75.5 c 128,-1,2
 190 -98 190 -98 190 -128 c 0,3,4
 190 -141 190 -141 185 -156.5 c 128,-1,5
 180 -172 180 -172 167.5 -185 c 128,-1,6
 155 -198 155 -198 135 -207 c 128,-1,7
 115 -216 115 -216 85 -216 c 0,8,9
 72 -216 72 -216 57 -214.5 c 128,-1,10
 42 -213 42 -213 29.5 -209 c 128,-1,11
 17 -205 17 -205 8.5 -200 c 128,-1,12
 0 -195 0 -195 0 -187 c 0,13,14
 0 -184 0 -184 1.5 -178 c 128,-1,15
 3 -172 3 -172 5.5 -165.5 c 128,-1,16
 8 -159 8 -159 12.5 -154.5 c 128,-1,17
 17 -150 17 -150 23 -150 c 0,18,19
 31 -150 31 -150 43.5 -157 c 128,-1,20
 56 -164 56 -164 81 -164 c 0,21,22
 128 -164 128 -164 128 -131 c 0,23,24
 128 -99 128 -99 80 -94 c 2,25,-1
 25 -89 l 1,26,-1
 53 9 l 1,27,-1
 110 9 l 1,28,-1
 91 -51 l 1,0,1
EndSplineSet
EndChar
StartChar: onesuperior
Encoding: 185 185 307
Width: 193
Flags: W
LayerCount: 2
Back
Fore
SplineSet
66 636 m 1,0,-1
 49 626 l 2,1,2
 42 622 42 622 34 622 c 0,3,4
 22 622 22 622 14.5 632.5 c 128,-1,5
 7 643 7 643 7 655 c 0,6,7
 7 676 7 676 22 685 c 2,8,-1
 98 729 l 2,9,10
 102 731 102 731 105.5 732 c 128,-1,11
 109 733 109 733 114 733 c 0,12,13
 128 733 128 733 140.5 725.5 c 128,-1,14
 153 718 153 718 153 705 c 2,15,-1
 153 358 l 2,16,17
 153 344 153 344 139.5 337.5 c 128,-1,18
 126 331 126 331 110 331 c 0,19,20
 93 331 93 331 79.5 337.5 c 128,-1,21
 66 344 66 344 66 358 c 2,22,-1
 66 636 l 1,0,-1
EndSplineSet
EndChar
StartChar: ordmasculine
Encoding: 186 186 310
Width: 344
Flags: W
LayerCount: 2
Back
Fore
SplineSet
171 760 m 0,0,1
 200 760 200 760 226.5 749.5 c 128,-1,2
 253 739 253 739 273 720.5 c 128,-1,3
 293 702 293 702 304.5 677 c 128,-1,4
 316 652 316 652 316 624 c 2,5,-1
 316 569 l 2,6,7
 316 542 316 542 304.5 517.5 c 128,-1,8
 293 493 293 493 273 474 c 128,-1,9
 253 455 253 455 226.5 443.5 c 128,-1,10
 200 432 200 432 171 432 c 256,11,12
 142 432 142 432 116 443.5 c 128,-1,13
 90 455 90 455 70 474 c 128,-1,14
 50 493 50 493 38.5 517.5 c 128,-1,15
 27 542 27 542 27 569 c 2,16,-1
 27 624 l 2,17,18
 27 651 27 651 38.5 676 c 128,-1,19
 50 701 50 701 69.5 719.5 c 128,-1,20
 89 738 89 738 115 749 c 128,-1,21
 141 760 141 760 171 760 c 0,0,1
230 624 m 2,22,23
 230 647 230 647 213 665.5 c 128,-1,24
 196 684 196 684 171 684 c 0,25,26
 147 684 147 684 130 665.5 c 128,-1,27
 113 647 113 647 113 624 c 2,28,-1
 113 569 l 2,29,30
 113 546 113 546 130 527 c 128,-1,31
 147 508 147 508 171 508 c 0,32,33
 196 508 196 508 213 527 c 128,-1,34
 230 546 230 546 230 569 c 2,35,-1
 230 624 l 2,22,23
EndSplineSet
EndChar
StartChar: guillemotright
Encoding: 187 187 239
Width: 500
Flags: W
LayerCount: 2
Back
Fore
SplineSet
332 277 m 1,0,-1
 265 403 l 2,1,2
 262 407 262 407 262 415 c 0,3,4
 262 425 262 425 268.5 436.5 c 128,-1,5
 275 448 275 448 286.5 457.5 c 128,-1,6
 298 467 298 467 312.5 473.5 c 128,-1,7
 327 480 327 480 343 480 c 0,8,9
 371 480 371 480 379 463 c 2,10,-1
 453 327 l 2,11,12
 463 308 463 308 469.5 298 c 128,-1,13
 476 288 476 288 476 276 c 0,14,15
 476 265 476 265 469.5 255.5 c 128,-1,16
 463 246 463 246 453 227 c 2,17,-1
 379 91 l 2,18,19
 371 74 371 74 343 74 c 0,20,21
 327 74 327 74 312.5 80.5 c 128,-1,22
 298 87 298 87 286.5 96.5 c 128,-1,23
 275 106 275 106 268.5 117.5 c 128,-1,24
 262 129 262 129 262 139 c 0,25,26
 262 146 262 146 265 152 c 2,27,-1
 332 277 l 1,0,-1
105 277 m 1,28,-1
 38 403 l 2,29,30
 35 407 35 407 35 415 c 0,31,32
 35 425 35 425 41.5 436.5 c 128,-1,33
 48 448 48 448 59 457.5 c 128,-1,34
 70 467 70 467 84.5 473.5 c 128,-1,35
 99 480 99 480 115 480 c 0,36,37
 143 480 143 480 152 463 c 2,38,-1
 225 327 l 2,39,40
 235 308 235 308 241.5 298 c 128,-1,41
 248 288 248 288 248 276 c 0,42,43
 248 265 248 265 241.5 255.5 c 128,-1,44
 235 246 235 246 225 227 c 2,45,-1
 152 91 l 2,46,47
 143 74 143 74 116 74 c 0,48,49
 100 74 100 74 85.5 80.5 c 128,-1,50
 71 87 71 87 59.5 96.5 c 128,-1,51
 48 106 48 106 41.5 117.5 c 128,-1,52
 35 129 35 129 35 139 c 0,53,54
 35 146 35 146 38 152 c 2,55,-1
 105 277 l 1,28,-1
EndSplineSet
EndChar
StartChar: onequarter
Encoding: 188 188 306
Width: 665
Flags: W
LayerCount: 2
Back
Fore
SplineSet
84 636 m 1,0,-1
 67 626 l 2,1,2
 60 622 60 622 52 622 c 0,3,4
 40 622 40 622 32.5 632.5 c 128,-1,5
 25 643 25 643 25 655 c 0,6,7
 25 676 25 676 40 685 c 2,8,-1
 116 729 l 2,9,10
 120 731 120 731 123.5 732 c 128,-1,11
 127 733 127 733 132 733 c 0,12,13
 146 733 146 733 158.5 725.5 c 128,-1,14
 171 718 171 718 171 705 c 2,15,-1
 171 358 l 2,16,17
 171 344 171 344 157.5 337.5 c 128,-1,18
 144 331 144 331 128 331 c 0,19,20
 111 331 111 331 97.5 337.5 c 128,-1,21
 84 344 84 344 84 358 c 2,22,-1
 84 636 l 1,0,-1
478 771 m 0,23,24
 495 771 495 771 511.5 758.5 c 128,-1,25
 528 746 528 746 528 726 c 0,26,27
 528 716 528 716 524 708 c 2,28,-1
 164 -18 l 2,29,30
 159 -29 159 -29 148.5 -34.5 c 128,-1,31
 138 -40 138 -40 125 -40 c 0,32,33
 104 -40 104 -40 91 -26 c 128,-1,34
 78 -12 78 -12 78 4 c 0,35,36
 78 11 78 11 82 21 c 2,37,-1
 442 750 l 2,38,39
 447 761 447 761 457 766 c 128,-1,40
 467 771 467 771 478 771 c 0,23,24
506 84 m 1,41,-1
 366 84 l 2,42,43
 354 84 354 84 346 91.5 c 128,-1,44
 338 99 338 99 338 114 c 0,45,46
 338 122 338 122 342 130 c 2,47,-1
 480 378 l 2,48,49
 487 389 487 389 496.5 394.5 c 128,-1,50
 506 400 506 400 516 400 c 0,51,52
 522 400 522 400 529 397.5 c 128,-1,53
 536 395 536 395 543 391 c 128,-1,54
 550 387 550 387 554.5 381 c 128,-1,55
 559 375 559 375 559 368 c 256,56,57
 559 361 559 361 556 357 c 2,58,-1
 448 163 l 1,59,-1
 506 163 l 1,60,-1
 506 201 l 2,61,62
 506 215 506 215 519.5 221 c 128,-1,63
 533 227 533 227 549 227 c 0,64,65
 566 227 566 227 579.5 221 c 128,-1,66
 593 215 593 215 593 201 c 2,67,-1
 593 163 l 1,68,-1
 619 163 l 2,69,70
 633 163 633 163 639 151 c 128,-1,71
 645 139 645 139 645 124 c 256,72,73
 645 109 645 109 637 96.5 c 128,-1,74
 629 84 629 84 619 84 c 2,75,-1
 593 84 l 1,76,-1
 593 26 l 2,77,78
 593 13 593 13 579.5 6.5 c 128,-1,79
 566 0 566 0 549 0 c 0,80,81
 533 0 533 0 519.5 6.5 c 128,-1,82
 506 13 506 13 506 26 c 2,83,-1
 506 84 l 1,41,-1
EndSplineSet
Ligature2: "'frac' Diagonal Fractions in Latin lookup 9 subtable" one slash four
EndChar
StartChar: onehalf
Encoding: 189 189 304
Width: 654
Flags: W
LayerCount: 2
Back
Fore
SplineSet
360 295 m 0,0,1
 360 320 360 320 371 339.5 c 128,-1,2
 382 359 382 359 400.5 372.5 c 128,-1,3
 419 386 419 386 442.5 393 c 128,-1,4
 466 400 466 400 491 400 c 0,5,6
 517 400 517 400 541.5 392.5 c 128,-1,7
 566 385 566 385 585 370.5 c 128,-1,8
 604 356 604 356 615.5 335 c 128,-1,9
 627 314 627 314 627 286 c 0,10,11
 627 257 627 257 613.5 234.5 c 128,-1,12
 600 212 600 212 579.5 193.5 c 128,-1,13
 559 175 559 175 535 160 c 128,-1,14
 511 145 511 145 490.5 132 c 128,-1,15
 470 119 470 119 456.5 107.5 c 128,-1,16
 443 96 443 96 443 84 c 2,17,-1
 443 75 l 1,18,-1
 601 75 l 2,19,20
 612 75 612 75 619.5 64 c 128,-1,21
 627 53 627 53 627 38 c 256,22,23
 627 23 627 23 619.5 11.5 c 128,-1,24
 612 0 612 0 601 0 c 2,25,-1
 391 0 l 2,26,27
 379 0 379 0 366 7 c 128,-1,28
 353 14 353 14 353 26 c 2,29,-1
 353 80 l 2,30,31
 353 101 353 101 367 119.5 c 128,-1,32
 381 138 381 138 402 155 c 128,-1,33
 423 172 423 172 447 188 c 128,-1,34
 471 204 471 204 492 219.5 c 128,-1,35
 513 235 513 235 527 251 c 128,-1,36
 541 267 541 267 541 284 c 0,37,38
 541 297 541 297 529.5 309.5 c 128,-1,39
 518 322 518 322 492 322 c 0,40,41
 472 322 472 322 458.5 313 c 128,-1,42
 445 304 445 304 445 281 c 0,43,44
 445 270 445 270 432.5 260 c 128,-1,45
 420 250 420 250 399 250 c 0,46,47
 382 250 382 250 371 259.5 c 128,-1,48
 360 269 360 269 360 295 c 0,0,1
81 636 m 1,49,-1
 64 626 l 2,50,51
 57 622 57 622 49 622 c 0,52,53
 37 622 37 622 29.5 632.5 c 128,-1,54
 22 643 22 643 22 655 c 0,55,56
 22 676 22 676 37 685 c 2,57,-1
 113 729 l 2,58,59
 117 731 117 731 120.5 732 c 128,-1,60
 124 733 124 733 129 733 c 0,61,62
 143 733 143 733 155.5 725.5 c 128,-1,63
 168 718 168 718 168 705 c 2,64,-1
 168 358 l 2,65,66
 168 344 168 344 154.5 337.5 c 128,-1,67
 141 331 141 331 125 331 c 0,68,69
 108 331 108 331 94.5 337.5 c 128,-1,70
 81 344 81 344 81 358 c 2,71,-1
 81 636 l 1,49,-1
459 771 m 0,72,73
 476 771 476 771 492.5 758.5 c 128,-1,74
 509 746 509 746 509 726 c 0,75,76
 509 716 509 716 505 708 c 2,77,-1
 145 -18 l 2,78,79
 140 -29 140 -29 129.5 -34.5 c 128,-1,80
 119 -40 119 -40 106 -40 c 0,81,82
 85 -40 85 -40 72 -26 c 128,-1,83
 59 -12 59 -12 59 4 c 0,84,85
 59 11 59 11 63 21 c 2,86,-1
 423 750 l 2,87,88
 428 761 428 761 438 766 c 128,-1,89
 448 771 448 771 459 771 c 0,72,73
EndSplineSet
Ligature2: "'frac' Diagonal Fractions in Latin lookup 9 subtable" one slash two
EndChar
StartChar: threequarters
Encoding: 190 190 375
Width: 799
Flags: W
LayerCount: 2
Back
Fore
SplineSet
169 403 m 0,0,1
 201 403 201 403 214 414.5 c 128,-1,2
 227 426 227 426 227 452 c 2,3,-1
 227 462 l 2,4,5
 227 490 227 490 210 497.5 c 128,-1,6
 193 505 193 505 167 505 c 0,7,8
 152 505 152 505 146.5 515.5 c 128,-1,9
 141 526 141 526 141 538 c 0,10,11
 141 551 141 551 146.5 561 c 128,-1,12
 152 571 152 571 167 572 c 0,13,14
 176 572 176 572 185 573.5 c 128,-1,15
 194 575 194 575 201 579.5 c 128,-1,16
 208 584 208 584 212 593 c 128,-1,17
 216 602 216 602 216 618 c 0,18,19
 216 642 216 642 202.5 650 c 128,-1,20
 189 658 189 658 169 658 c 0,21,22
 144 658 144 658 132.5 652 c 128,-1,23
 121 646 121 646 121 630 c 0,24,25
 121 616 121 616 113 607.5 c 128,-1,26
 105 599 105 599 81 599 c 0,27,28
 52 599 52 599 44.5 606 c 128,-1,29
 37 613 37 613 37 633 c 0,30,31
 37 649 37 649 43.5 666.5 c 128,-1,32
 50 684 50 684 65 698 c 128,-1,33
 80 712 80 712 105.5 721.5 c 128,-1,34
 131 731 131 731 169 731 c 0,35,36
 197 731 197 731 220.5 726 c 128,-1,37
 244 721 244 721 261 709.5 c 128,-1,38
 278 698 278 698 288 679 c 128,-1,39
 298 660 298 660 298 632 c 0,40,41
 298 602 298 602 286.5 577 c 128,-1,42
 275 552 275 552 252 542 c 1,43,44
 279 533 279 533 295.5 514 c 128,-1,45
 312 495 312 495 312 462 c 2,46,-1
 312 452 l 2,47,48
 312 418 312 418 300.5 394.5 c 128,-1,49
 289 371 289 371 269.5 356 c 128,-1,50
 250 341 250 341 223 334.5 c 128,-1,51
 196 328 196 328 166 328 c 0,52,53
 129 328 129 328 102.5 338 c 128,-1,54
 76 348 76 348 59.5 363 c 128,-1,55
 43 378 43 378 35.5 396.5 c 128,-1,56
 28 415 28 415 28 432 c 0,57,58
 28 451 28 451 36.5 457 c 128,-1,59
 45 463 45 463 68 463 c 0,60,61
 95 463 95 463 103.5 456.5 c 128,-1,62
 112 450 112 450 112 435 c 0,63,64
 112 417 112 417 129 410 c 128,-1,65
 146 403 146 403 169 403 c 0,0,1
640 84 m 1,66,-1
 500 84 l 2,67,68
 488 84 488 84 480 91.5 c 128,-1,69
 472 99 472 99 472 114 c 0,70,71
 472 122 472 122 476 130 c 2,72,-1
 614 378 l 2,73,74
 621 389 621 389 630.5 394.5 c 128,-1,75
 640 400 640 400 650 400 c 0,76,77
 656 400 656 400 663 397.5 c 128,-1,78
 670 395 670 395 677 391 c 128,-1,79
 684 387 684 387 688.5 381 c 128,-1,80
 693 375 693 375 693 368 c 256,81,82
 693 361 693 361 690 357 c 2,83,-1
 582 163 l 1,84,-1
 640 163 l 1,85,-1
 640 201 l 2,86,87
 640 215 640 215 653.5 221 c 128,-1,88
 667 227 667 227 683 227 c 0,89,90
 700 227 700 227 713.5 221 c 128,-1,91
 727 215 727 215 727 201 c 2,92,-1
 727 163 l 1,93,-1
 753 163 l 2,94,95
 767 163 767 163 773 151 c 128,-1,96
 779 139 779 139 779 124 c 256,97,98
 779 109 779 109 771 96.5 c 128,-1,99
 763 84 763 84 753 84 c 2,100,-1
 727 84 l 1,101,-1
 727 26 l 2,102,103
 727 13 727 13 713.5 6.5 c 128,-1,104
 700 0 700 0 683 0 c 0,105,106
 667 0 667 0 653.5 6.5 c 128,-1,107
 640 13 640 13 640 26 c 2,108,-1
 640 84 l 1,66,-1
605 771 m 0,109,110
 622 771 622 771 638.5 758.5 c 128,-1,111
 655 746 655 746 655 726 c 0,112,113
 655 716 655 716 651 708 c 2,114,-1
 291 -18 l 2,115,116
 286 -29 286 -29 275.5 -34.5 c 128,-1,117
 265 -40 265 -40 252 -40 c 0,118,119
 231 -40 231 -40 218 -26 c 128,-1,120
 205 -12 205 -12 205 4 c 0,121,122
 205 11 205 11 209 21 c 2,123,-1
 569 750 l 2,124,125
 574 761 574 761 584 766 c 128,-1,126
 594 771 594 771 605 771 c 0,109,110
EndSplineSet
Ligature2: "'frac' Diagonal Fractions in Latin lookup 9 subtable" three slash four
EndChar
StartChar: questiondown
Encoding: 191 191 330
Width: 436
Flags: W
LayerCount: 2
Back
Fore
SplineSet
25 163 m 0,0,1
 25 202 25 202 39 233.5 c 128,-1,2
 53 265 53 265 72.5 289.5 c 128,-1,3
 92 314 92 314 111.5 331.5 c 128,-1,4
 131 349 131 349 143 358 c 0,5,6
 161 372 161 372 171 386.5 c 128,-1,7
 181 401 181 401 186 416.5 c 128,-1,8
 191 432 191 432 192 450.5 c 128,-1,9
 193 469 193 469 193 491 c 0,10,11
 193 505 193 505 203 516 c 128,-1,12
 213 527 213 527 243 527 c 0,13,14
 269 527 269 527 279.5 515 c 128,-1,15
 290 503 290 503 290 471 c 0,16,17
 290 436 290 436 284.5 410.5 c 128,-1,18
 279 385 279 385 270 366 c 128,-1,19
 261 347 261 347 250 334.5 c 128,-1,20
 239 322 239 322 229 312 c 0,21,22
 216 300 216 300 199 286.5 c 128,-1,23
 182 273 182 273 167 257.5 c 128,-1,24
 152 242 152 242 141.5 222 c 128,-1,25
 131 202 131 202 131 176 c 0,26,27
 131 134 131 134 159.5 112.5 c 128,-1,28
 188 91 188 91 234 91 c 0,29,30
 271 91 271 91 289.5 102 c 128,-1,31
 308 113 308 113 319.5 125.5 c 128,-1,32
 331 138 331 138 339.5 149 c 128,-1,33
 348 160 348 160 365 160 c 256,34,35
 382 160 382 160 398.5 148 c 128,-1,36
 415 136 415 136 415 112 c 0,37,38
 415 94 415 94 403.5 73.5 c 128,-1,39
 392 53 392 53 368.5 35 c 128,-1,40
 345 17 345 17 310.5 5.5 c 128,-1,41
 276 -6 276 -6 231 -6 c 0,42,43
 183 -6 183 -6 145 7 c 128,-1,44
 107 20 107 20 80.5 42.5 c 128,-1,45
 54 65 54 65 39.5 96 c 128,-1,46
 25 127 25 127 25 163 c 0,0,1
242 598 m 256,47,48
 214 598 214 598 194 618 c 128,-1,49
 174 638 174 638 174 667 c 0,50,51
 174 694 174 694 193.5 714.5 c 128,-1,52
 213 735 213 735 242 735 c 256,53,54
 271 735 271 735 290 714.5 c 128,-1,55
 309 694 309 694 309 667 c 0,56,57
 309 638 309 638 289.5 618 c 128,-1,58
 270 598 270 598 242 598 c 256,47,48
EndSplineSet
EndChar
StartChar: Agrave
Encoding: 192 192 8
Width: 575
Flags: W
LayerCount: 2
Back
Fore
SplineSet
91 0 m 0,0,1
 78 0 78 0 63.5 4 c 128,-1,2
 49 8 49 8 37 15 c 128,-1,3
 25 22 25 22 17 32 c 128,-1,4
 9 42 9 42 9 54 c 0,5,6
 9 56 9 56 11 64 c 2,7,-1
 204 693 l 2,8,9
 211 716 211 716 235 726.5 c 128,-1,10
 259 737 259 737 287 737 c 0,11,12
 316 737 316 737 340 726.5 c 128,-1,13
 364 716 364 716 371 693 c 2,14,-1
 564 64 l 2,15,16
 566 56 566 56 566 54 c 0,17,18
 566 42 566 42 558 32.5 c 128,-1,19
 550 23 550 23 538 15.5 c 128,-1,20
 526 8 526 8 511.5 4 c 128,-1,21
 497 0 497 0 484 0 c 0,22,23
 467 0 467 0 455.5 6 c 128,-1,24
 444 12 444 12 440 26 c 2,25,-1
 402 159 l 1,26,-1
 173 159 l 1,27,-1
 135 26 l 2,28,29
 131 12 131 12 119.5 6 c 128,-1,30
 108 0 108 0 91 0 c 0,0,1
374 261 m 1,31,-1
 287 568 l 1,32,-1
 200 261 l 1,33,-1
 374 261 l 1,31,-1
190 878 m 2,34,35
 180 883 180 883 176 891 c 128,-1,36
 172 899 172 899 172 908 c 0,37,38
 172 925 172 925 183.5 941 c 128,-1,39
 195 957 195 957 212 957 c 0,40,41
 215 957 215 957 218 956.5 c 128,-1,42
 221 956 221 956 225 955 c 2,43,-1
 357 891 l 2,44,45
 374 882 374 882 374 860 c 0,46,47
 374 843 374 843 362.5 827 c 128,-1,48
 351 811 351 811 334 811 c 0,49,50
 330 811 330 811 327 812 c 128,-1,51
 324 813 324 813 320 815 c 2,52,-1
 190 878 l 2,34,35
EndSplineSet
EndChar
StartChar: Acircumflex
Encoding: 194 194 6
Width: 575
Flags: W
LayerCount: 2
Back
Fore
SplineSet
91 0 m 0,0,1
 78 0 78 0 63.5 4 c 128,-1,2
 49 8 49 8 37 15 c 128,-1,3
 25 22 25 22 17 32 c 128,-1,4
 9 42 9 42 9 54 c 0,5,6
 9 56 9 56 11 64 c 2,7,-1
 204 693 l 2,8,9
 211 716 211 716 235 726.5 c 128,-1,10
 259 737 259 737 287 737 c 0,11,12
 316 737 316 737 340 726.5 c 128,-1,13
 364 716 364 716 371 693 c 2,14,-1
 564 64 l 2,15,16
 566 56 566 56 566 54 c 0,17,18
 566 42 566 42 558 32.5 c 128,-1,19
 550 23 550 23 538 15.5 c 128,-1,20
 526 8 526 8 511.5 4 c 128,-1,21
 497 0 497 0 484 0 c 0,22,23
 467 0 467 0 455.5 6 c 128,-1,24
 444 12 444 12 440 26 c 2,25,-1
 402 159 l 1,26,-1
 173 159 l 1,27,-1
 135 26 l 2,28,29
 131 12 131 12 119.5 6 c 128,-1,30
 108 0 108 0 91 0 c 0,0,1
374 261 m 1,31,-1
 287 568 l 1,32,-1
 200 261 l 1,33,-1
 374 261 l 1,31,-1
183 822 m 2,34,35
 177 819 177 819 172 819 c 0,36,37
 160 819 160 819 152 831 c 128,-1,38
 144 843 144 843 144 859 c 0,39,40
 144 870 144 870 149 880 c 128,-1,41
 154 890 154 890 166 896 c 2,42,-1
 270 952 l 2,43,44
 278 957 278 957 287 957 c 0,45,46
 294 957 294 957 304 952 c 2,47,-1
 408 897 l 2,48,49
 419 890 419 890 424 879.5 c 128,-1,50
 429 869 429 869 429 858 c 0,51,52
 429 843 429 843 421 831 c 128,-1,53
 413 819 413 819 401 819 c 0,54,55
 395 819 395 819 391 822 c 2,56,-1
 287 878 l 1,57,-1
 183 822 l 2,34,35
EndSplineSet
EndChar
StartChar: Atilde
Encoding: 195 195 12
Width: 575
Flags: W
LayerCount: 2
Back
Fore
SplineSet
91 0 m 0,0,1
 78 0 78 0 63.5 4 c 128,-1,2
 49 8 49 8 37 15 c 128,-1,3
 25 22 25 22 17 32 c 128,-1,4
 9 42 9 42 9 54 c 0,5,6
 9 56 9 56 11 64 c 2,7,-1
 204 693 l 2,8,9
 211 716 211 716 235 726.5 c 128,-1,10
 259 737 259 737 287 737 c 0,11,12
 316 737 316 737 340 726.5 c 128,-1,13
 364 716 364 716 371 693 c 2,14,-1
 564 64 l 2,15,16
 566 56 566 56 566 54 c 0,17,18
 566 42 566 42 558 32.5 c 128,-1,19
 550 23 550 23 538 15.5 c 128,-1,20
 526 8 526 8 511.5 4 c 128,-1,21
 497 0 497 0 484 0 c 0,22,23
 467 0 467 0 455.5 6 c 128,-1,24
 444 12 444 12 440 26 c 2,25,-1
 402 159 l 1,26,-1
 173 159 l 1,27,-1
 135 26 l 2,28,29
 131 12 131 12 119.5 6 c 128,-1,30
 108 0 108 0 91 0 c 0,0,1
374 261 m 1,31,-1
 287 568 l 1,32,-1
 200 261 l 1,33,-1
 374 261 l 1,31,-1
231 860 m 0,34,35
 215 860 215 860 203.5 856 c 128,-1,36
 192 852 192 852 182.5 847.5 c 128,-1,37
 173 843 173 843 165 839.5 c 128,-1,38
 157 836 157 836 149 836 c 0,39,40
 139 836 139 836 132.5 841 c 128,-1,41
 126 846 126 846 122.5 853 c 128,-1,42
 119 860 119 860 117.5 867 c 128,-1,43
 116 874 116 874 116 878 c 0,44,45
 116 901 116 901 126 914.5 c 128,-1,46
 136 928 136 928 150 935 c 128,-1,47
 164 942 164 942 178.5 944 c 128,-1,48
 193 946 193 946 202 946 c 0,49,50
 224 946 224 946 241 941.5 c 128,-1,51
 258 937 258 937 274.5 931.5 c 128,-1,52
 291 926 291 926 307.5 921.5 c 128,-1,53
 324 917 324 917 344 917 c 0,54,55
 360 917 360 917 372 920.5 c 128,-1,56
 384 924 384 924 393 928.5 c 128,-1,57
 402 933 402 933 409.5 937 c 128,-1,58
 417 941 417 941 425 941 c 0,59,60
 435 941 435 941 441 936 c 128,-1,61
 447 931 447 931 451 924 c 128,-1,62
 455 917 455 917 456.5 910 c 128,-1,63
 458 903 458 903 458 899 c 0,64,65
 458 876 458 876 448 862.5 c 128,-1,66
 438 849 438 849 424 842 c 128,-1,67
 410 835 410 835 395.5 833 c 128,-1,68
 381 831 381 831 373 831 c 0,69,70
 348 831 348 831 330 835.5 c 128,-1,71
 312 840 312 840 296 845.5 c 128,-1,72
 280 851 280 851 265 855.5 c 128,-1,73
 250 860 250 860 231 860 c 0,34,35
EndSplineSet
EndChar
StartChar: Adieresis
Encoding: 196 196 7
Width: 575
Flags: W
LayerCount: 2
Back
Fore
SplineSet
91 0 m 0,0,1
 78 0 78 0 63.5 4 c 128,-1,2
 49 8 49 8 37 15 c 128,-1,3
 25 22 25 22 17 32 c 128,-1,4
 9 42 9 42 9 54 c 0,5,6
 9 56 9 56 11 64 c 2,7,-1
 204 693 l 2,8,9
 211 716 211 716 235 726.5 c 128,-1,10
 259 737 259 737 287 737 c 0,11,12
 316 737 316 737 340 726.5 c 128,-1,13
 364 716 364 716 371 693 c 2,14,-1
 564 64 l 2,15,16
 566 56 566 56 566 54 c 0,17,18
 566 42 566 42 558 32.5 c 128,-1,19
 550 23 550 23 538 15.5 c 128,-1,20
 526 8 526 8 511.5 4 c 128,-1,21
 497 0 497 0 484 0 c 0,22,23
 467 0 467 0 455.5 6 c 128,-1,24
 444 12 444 12 440 26 c 2,25,-1
 402 159 l 1,26,-1
 173 159 l 1,27,-1
 135 26 l 2,28,29
 131 12 131 12 119.5 6 c 128,-1,30
 108 0 108 0 91 0 c 0,0,1
374 261 m 1,31,-1
 287 568 l 1,32,-1
 200 261 l 1,33,-1
 374 261 l 1,31,-1
214 925 m 256,34,35
 235 925 235 925 249.5 909.5 c 128,-1,36
 264 894 264 894 264 873 c 256,37,38
 264 852 264 852 249.5 836 c 128,-1,39
 235 820 235 820 214 820 c 256,40,41
 193 820 193 820 178 836 c 128,-1,42
 163 852 163 852 163 873 c 256,43,44
 163 894 163 894 178 909.5 c 128,-1,45
 193 925 193 925 214 925 c 256,34,35
364 925 m 0,46,47
 384 925 384 925 399 909.5 c 128,-1,48
 414 894 414 894 414 873 c 256,49,50
 414 852 414 852 399 836 c 128,-1,51
 384 820 384 820 364 820 c 0,52,53
 342 820 342 820 327 836 c 128,-1,54
 312 852 312 852 312 873 c 256,55,56
 312 894 312 894 327 909.5 c 128,-1,57
 342 925 342 925 364 925 c 0,46,47
EndSplineSet
EndChar
StartChar: Aring
Encoding: 197 197 11
Width: 575
Flags: W
LayerCount: 2
Back
Fore
SplineSet
91 0 m 0,0,1
 78 0 78 0 63.5 4 c 128,-1,2
 49 8 49 8 37 15 c 128,-1,3
 25 22 25 22 17 32 c 128,-1,4
 9 42 9 42 9 54 c 0,5,6
 9 56 9 56 11 64 c 2,7,-1
 204 693 l 2,8,9
 211 716 211 716 235 726.5 c 128,-1,10
 259 737 259 737 287 737 c 0,11,12
 316 737 316 737 340 726.5 c 128,-1,13
 364 716 364 716 371 693 c 2,14,-1
 564 64 l 2,15,16
 566 56 566 56 566 54 c 0,17,18
 566 42 566 42 558 32.5 c 128,-1,19
 550 23 550 23 538 15.5 c 128,-1,20
 526 8 526 8 511.5 4 c 128,-1,21
 497 0 497 0 484 0 c 0,22,23
 467 0 467 0 455.5 6 c 128,-1,24
 444 12 444 12 440 26 c 2,25,-1
 402 159 l 1,26,-1
 173 159 l 1,27,-1
 135 26 l 2,28,29
 131 12 131 12 119.5 6 c 128,-1,30
 108 0 108 0 91 0 c 0,0,1
374 261 m 1,31,-1
 287 568 l 1,32,-1
 200 261 l 1,33,-1
 374 261 l 1,31,-1
286 1012 m 256,34,35
 306 1012 306 1012 324 1004 c 128,-1,36
 342 996 342 996 355.5 982 c 128,-1,37
 369 968 369 968 377 950 c 128,-1,38
 385 932 385 932 385 913 c 0,39,40
 385 893 385 893 377 875 c 128,-1,41
 369 857 369 857 355 843 c 128,-1,42
 341 829 341 829 323 820.5 c 128,-1,43
 305 812 305 812 286 812 c 0,44,45
 266 812 266 812 248.5 820.5 c 128,-1,46
 231 829 231 829 218 843 c 128,-1,47
 205 857 205 857 197 875 c 128,-1,48
 189 893 189 893 189 913 c 0,49,50
 189 932 189 932 196.5 950 c 128,-1,51
 204 968 204 968 217 981.5 c 128,-1,52
 230 995 230 995 248 1003.5 c 128,-1,53
 266 1012 266 1012 286 1012 c 256,34,35
331 912 m 0,54,55
 331 929 331 929 318.5 943 c 128,-1,56
 306 957 306 957 287 957 c 0,57,58
 267 957 267 957 253.5 943 c 128,-1,59
 240 929 240 929 240 912 c 256,60,61
 240 895 240 895 253.5 879.5 c 128,-1,62
 267 864 267 864 287 864 c 0,63,64
 306 864 306 864 318.5 879 c 128,-1,65
 331 894 331 894 331 912 c 0,54,55
EndSplineSet
EndChar
StartChar: AE
Encoding: 198 198 2
Width: 787
Flags: W
LayerCount: 2
Back
Fore
SplineSet
502 417 m 1,0,-1
 621 417 l 2,1,2
 641 417 641 417 651.5 401 c 128,-1,3
 662 385 662 385 662 365 c 0,4,5
 662 348 662 348 652 331.5 c 128,-1,6
 642 315 642 315 621 315 c 2,7,-1
 502 315 l 1,8,-1
 502 114 l 1,9,-1
 730 114 l 2,10,11
 750 114 750 114 760.5 96.5 c 128,-1,12
 771 79 771 79 771 56 c 0,13,14
 771 36 771 36 761.5 18 c 128,-1,15
 752 0 752 0 730 0 c 2,16,-1
 429 0 l 2,17,18
 407 0 407 0 389.5 10.5 c 128,-1,19
 372 21 372 21 372 41 c 2,20,-1
 372 315 l 1,21,-1
 180 315 l 1,22,-1
 180 46 l 2,23,24
 180 36 180 36 178 27.5 c 128,-1,25
 176 19 176 19 169 13 c 128,-1,26
 162 7 162 7 149 3.5 c 128,-1,27
 136 0 136 0 115 0 c 0,28,29
 83 0 83 0 70 13 c 128,-1,30
 57 26 57 26 57 46 c 2,31,-1
 57 502 l 2,32,33
 57 565 57 565 75 608.5 c 128,-1,34
 93 652 93 652 123.5 679 c 128,-1,35
 154 706 154 706 195.5 718.5 c 128,-1,36
 237 731 237 731 285 731 c 2,37,-1
 730 731 l 2,38,39
 752 731 752 731 761.5 713 c 128,-1,40
 771 695 771 695 771 675 c 0,41,42
 771 652 771 652 760.5 634.5 c 128,-1,43
 750 617 750 617 730 617 c 2,44,-1
 502 617 l 1,45,-1
 502 417 l 1,0,-1
180 417 m 1,46,-1
 372 417 l 1,47,-1
 372 617 l 1,48,-1
 285 617 l 2,49,50
 235 617 235 617 207.5 589 c 128,-1,51
 180 561 180 561 180 502 c 2,52,-1
 180 417 l 1,46,-1
EndSplineSet
EndChar
StartChar: Ccedilla
Encoding: 199 199 18
Width: 550
Flags: W
LayerCount: 2
Back
Fore
SplineSet
392 518 m 0,0,1
 391 530 391 530 388 546.5 c 128,-1,2
 385 563 385 563 374.5 579 c 128,-1,3
 364 595 364 595 344 606 c 128,-1,4
 324 617 324 617 288 617 c 0,5,6
 237 617 237 617 210 589 c 128,-1,7
 183 561 183 561 183 502 c 2,8,-1
 183 223 l 2,9,10
 183 164 183 164 210.5 136 c 128,-1,11
 238 108 238 108 290 108 c 0,12,13
 324 108 324 108 344 119 c 128,-1,14
 364 130 364 130 374 146 c 128,-1,15
 384 162 384 162 387.5 180.5 c 128,-1,16
 391 199 391 199 392 215 c 0,17,18
 394 238 394 238 412 247 c 128,-1,19
 430 256 430 256 456 256 c 0,20,21
 490 256 490 256 506 243 c 128,-1,22
 522 230 522 230 522 192 c 0,23,24
 522 151 522 151 507.5 117 c 128,-1,25
 493 83 493 83 466 57.5 c 128,-1,26
 439 32 439 32 402 16 c 128,-1,27
 365 0 365 0 320 -4 c 1,28,-1
 305 -51 l 1,29,30
 356 -53 356 -53 380 -75.5 c 128,-1,31
 404 -98 404 -98 404 -128 c 0,32,33
 404 -141 404 -141 399 -156.5 c 128,-1,34
 394 -172 394 -172 381.5 -185 c 128,-1,35
 369 -198 369 -198 349 -207 c 128,-1,36
 329 -216 329 -216 299 -216 c 0,37,38
 286 -216 286 -216 271 -214.5 c 128,-1,39
 256 -213 256 -213 243.5 -209 c 128,-1,40
 231 -205 231 -205 222.5 -200 c 128,-1,41
 214 -195 214 -195 214 -187 c 0,42,43
 214 -184 214 -184 215.5 -178 c 128,-1,44
 217 -172 217 -172 219.5 -165.5 c 128,-1,45
 222 -159 222 -159 226.5 -154.5 c 128,-1,46
 231 -150 231 -150 237 -150 c 0,47,48
 245 -150 245 -150 257.5 -157 c 128,-1,49
 270 -164 270 -164 295 -164 c 0,50,51
 342 -164 342 -164 342 -131 c 0,52,53
 342 -99 342 -99 294 -94 c 2,54,-1
 239 -89 l 1,55,-1
 263 -5 l 1,56,57
 219 -3 219 -3 181 11 c 128,-1,58
 143 25 143 25 114.5 52 c 128,-1,59
 86 79 86 79 69.5 121.5 c 128,-1,60
 53 164 53 164 53 223 c 2,61,-1
 53 502 l 2,62,63
 53 565 53 565 71.5 608.5 c 128,-1,64
 90 652 90 652 121.5 679 c 128,-1,65
 153 706 153 706 195 718.5 c 128,-1,66
 237 731 237 731 284 731 c 0,67,68
 336 731 336 731 380 717.5 c 128,-1,69
 424 704 424 704 455.5 679.5 c 128,-1,70
 487 655 487 655 504.5 619.5 c 128,-1,71
 522 584 522 584 522 541 c 0,72,73
 522 502 522 502 506 489.5 c 128,-1,74
 490 477 490 477 457 477 c 0,75,76
 429 477 429 477 411 486 c 128,-1,77
 393 495 393 495 392 518 c 0,0,1
EndSplineSet
EndChar
StartChar: Egrave
Encoding: 200 200 32
Width: 529
Flags: W
LayerCount: 2
Back
Fore
SplineSet
190 417 m 1,0,-1
 342 417 l 2,1,2
 362 417 362 417 372.5 401 c 128,-1,3
 383 385 383 385 383 365 c 0,4,5
 383 348 383 348 373 331.5 c 128,-1,6
 363 315 363 315 342 315 c 2,7,-1
 190 315 l 1,8,-1
 190 114 l 1,9,-1
 473 114 l 2,10,11
 493 114 493 114 503.5 96.5 c 128,-1,12
 514 79 514 79 514 56 c 0,13,14
 514 36 514 36 504 18 c 128,-1,15
 494 0 494 0 473 0 c 2,16,-1
 117 0 l 2,17,18
 95 0 95 0 77.5 10.5 c 128,-1,19
 60 21 60 21 60 41 c 2,20,-1
 60 690 l 2,21,22
 60 710 60 710 77.5 720.5 c 128,-1,23
 95 731 95 731 117 731 c 2,24,-1
 473 731 l 2,25,26
 494 731 494 731 504 713 c 128,-1,27
 514 695 514 695 514 675 c 0,28,29
 514 652 514 652 503.5 634.5 c 128,-1,30
 493 617 493 617 473 617 c 2,31,-1
 190 617 l 1,32,-1
 190 417 l 1,0,-1
199 878 m 2,33,34
 189 883 189 883 185 891 c 128,-1,35
 181 899 181 899 181 908 c 0,36,37
 181 925 181 925 192.5 941 c 128,-1,38
 204 957 204 957 221 957 c 0,39,40
 224 957 224 957 227 956.5 c 128,-1,41
 230 956 230 956 234 955 c 2,42,-1
 366 891 l 2,43,44
 383 882 383 882 383 860 c 0,45,46
 383 843 383 843 371.5 827 c 128,-1,47
 360 811 360 811 343 811 c 0,48,49
 339 811 339 811 336 812 c 128,-1,50
 333 813 333 813 329 815 c 2,51,-1
 199 878 l 2,33,34
EndSplineSet
EndChar
StartChar: Eacute
Encoding: 201 201 26
Width: 529
Flags: W
LayerCount: 2
Back
Fore
SplineSet
259 815 m 2,0,1
 255 813 255 813 252 812 c 128,-1,2
 249 811 249 811 245 811 c 0,3,4
 228 811 228 811 216.5 827 c 128,-1,5
 205 843 205 843 205 860 c 0,6,7
 205 882 205 882 222 891 c 2,8,-1
 354 955 l 2,9,10
 358 956 358 956 361 956.5 c 128,-1,11
 364 957 364 957 367 957 c 0,12,13
 384 957 384 957 395.5 941 c 128,-1,14
 407 925 407 925 407 908 c 0,15,16
 407 899 407 899 403 891 c 128,-1,17
 399 883 399 883 389 878 c 2,18,-1
 259 815 l 2,0,1
190 417 m 1,19,-1
 342 417 l 2,20,21
 362 417 362 417 372.5 401 c 128,-1,22
 383 385 383 385 383 365 c 0,23,24
 383 348 383 348 373 331.5 c 128,-1,25
 363 315 363 315 342 315 c 2,26,-1
 190 315 l 1,27,-1
 190 114 l 1,28,-1
 473 114 l 2,29,30
 493 114 493 114 503.5 96.5 c 128,-1,31
 514 79 514 79 514 56 c 0,32,33
 514 36 514 36 504 18 c 128,-1,34
 494 0 494 0 473 0 c 2,35,-1
 117 0 l 2,36,37
 95 0 95 0 77.5 10.5 c 128,-1,38
 60 21 60 21 60 41 c 2,39,-1
 60 690 l 2,40,41
 60 710 60 710 77.5 720.5 c 128,-1,42
 95 731 95 731 117 731 c 2,43,-1
 473 731 l 2,44,45
 494 731 494 731 504 713 c 128,-1,46
 514 695 514 695 514 675 c 0,47,48
 514 652 514 652 503.5 634.5 c 128,-1,49
 493 617 493 617 473 617 c 2,50,-1
 190 617 l 1,51,-1
 190 417 l 1,19,-1
EndSplineSet
EndChar
StartChar: Ecircumflex
Encoding: 202 202 29
Width: 530
Flags: W
LayerCount: 2
Back
Fore
SplineSet
191 822 m 2,0,1
 185 819 185 819 180 819 c 0,2,3
 168 819 168 819 160 831 c 128,-1,4
 152 843 152 843 152 859 c 0,5,6
 152 870 152 870 157 880 c 128,-1,7
 162 890 162 890 174 896 c 2,8,-1
 278 952 l 2,9,10
 286 957 286 957 295 957 c 0,11,12
 302 957 302 957 312 952 c 2,13,-1
 416 897 l 2,14,15
 427 890 427 890 432 879.5 c 128,-1,16
 437 869 437 869 437 858 c 0,17,18
 437 843 437 843 429 831 c 128,-1,19
 421 819 421 819 409 819 c 0,20,21
 403 819 403 819 399 822 c 2,22,-1
 295 878 l 1,23,-1
 191 822 l 2,0,1
190 417 m 1,24,-1
 342 417 l 2,25,26
 362 417 362 417 372.5 401 c 128,-1,27
 383 385 383 385 383 365 c 0,28,29
 383 348 383 348 373 331.5 c 128,-1,30
 363 315 363 315 342 315 c 2,31,-1
 190 315 l 1,32,-1
 190 114 l 1,33,-1
 473 114 l 2,34,35
 493 114 493 114 503.5 96.5 c 128,-1,36
 514 79 514 79 514 56 c 0,37,38
 514 36 514 36 504 18 c 128,-1,39
 494 0 494 0 473 0 c 2,40,-1
 117 0 l 2,41,42
 95 0 95 0 77.5 10.5 c 128,-1,43
 60 21 60 21 60 41 c 2,44,-1
 60 690 l 2,45,46
 60 710 60 710 77.5 720.5 c 128,-1,47
 95 731 95 731 117 731 c 2,48,-1
 473 731 l 2,49,50
 494 731 494 731 504 713 c 128,-1,51
 514 695 514 695 514 675 c 0,52,53
 514 652 514 652 503.5 634.5 c 128,-1,54
 493 617 493 617 473 617 c 2,55,-1
 190 617 l 1,56,-1
 190 417 l 1,24,-1
EndSplineSet
EndChar
StartChar: Edieresis
Encoding: 203 203 30
Width: 530
Flags: W
LayerCount: 2
Back
Fore
SplineSet
215 925 m 256,0,1
 236 925 236 925 250.5 909.5 c 128,-1,2
 265 894 265 894 265 873 c 256,3,4
 265 852 265 852 250.5 836 c 128,-1,5
 236 820 236 820 215 820 c 256,6,7
 194 820 194 820 179 836 c 128,-1,8
 164 852 164 852 164 873 c 256,9,10
 164 894 164 894 179 909.5 c 128,-1,11
 194 925 194 925 215 925 c 256,0,1
365 925 m 0,12,13
 385 925 385 925 400 909.5 c 128,-1,14
 415 894 415 894 415 873 c 256,15,16
 415 852 415 852 400 836 c 128,-1,17
 385 820 385 820 365 820 c 0,18,19
 343 820 343 820 328 836 c 128,-1,20
 313 852 313 852 313 873 c 256,21,22
 313 894 313 894 328 909.5 c 128,-1,23
 343 925 343 925 365 925 c 0,12,13
190 417 m 1,24,-1
 342 417 l 2,25,26
 362 417 362 417 372.5 401 c 128,-1,27
 383 385 383 385 383 365 c 0,28,29
 383 348 383 348 373 331.5 c 128,-1,30
 363 315 363 315 342 315 c 2,31,-1
 190 315 l 1,32,-1
 190 114 l 1,33,-1
 473 114 l 2,34,35
 493 114 493 114 503.5 96.5 c 128,-1,36
 514 79 514 79 514 56 c 0,37,38
 514 36 514 36 504 18 c 128,-1,39
 494 0 494 0 473 0 c 2,40,-1
 117 0 l 2,41,42
 95 0 95 0 77.5 10.5 c 128,-1,43
 60 21 60 21 60 41 c 2,44,-1
 60 690 l 2,45,46
 60 710 60 710 77.5 720.5 c 128,-1,47
 95 731 95 731 117 731 c 2,48,-1
 473 731 l 2,49,50
 494 731 494 731 504 713 c 128,-1,51
 514 695 514 695 514 675 c 0,52,53
 514 652 514 652 503.5 634.5 c 128,-1,54
 493 617 493 617 473 617 c 2,55,-1
 190 617 l 1,56,-1
 190 417 l 1,24,-1
EndSplineSet
EndChar
StartChar: Igrave
Encoding: 204 204 54
Width: 250
Flags: W
LayerCount: 2
Back
Fore
SplineSet
60 691 m 2,0,1
 60 712 60 712 80 721.5 c 128,-1,2
 100 731 100 731 125 731 c 0,3,4
 149 731 149 731 169.5 721.5 c 128,-1,5
 190 712 190 712 190 691 c 2,6,-1
 190 41 l 2,7,8
 190 21 190 21 169.5 10.5 c 128,-1,9
 149 0 149 0 125 0 c 0,10,11
 100 0 100 0 80 10.5 c 128,-1,12
 60 21 60 21 60 41 c 2,13,-1
 60 691 l 2,0,1
35 878 m 2,14,15
 25 883 25 883 21 891 c 128,-1,16
 17 899 17 899 17 908 c 0,17,18
 17 925 17 925 28.5 941 c 128,-1,19
 40 957 40 957 57 957 c 0,20,21
 60 957 60 957 63 956.5 c 128,-1,22
 66 956 66 956 70 955 c 2,23,-1
 202 891 l 2,24,25
 219 882 219 882 219 860 c 0,26,27
 219 843 219 843 207.5 827 c 128,-1,28
 196 811 196 811 179 811 c 0,29,30
 175 811 175 811 172 812 c 128,-1,31
 169 813 169 813 165 815 c 2,32,-1
 35 878 l 2,14,15
EndSplineSet
EndChar
StartChar: Iacute
Encoding: 205 205 49
Width: 250
Flags: W
LayerCount: 2
Back
Fore
SplineSet
60 691 m 2,0,1
 60 712 60 712 80 721.5 c 128,-1,2
 100 731 100 731 125 731 c 0,3,4
 149 731 149 731 169.5 721.5 c 128,-1,5
 190 712 190 712 190 691 c 2,6,-1
 190 41 l 2,7,8
 190 21 190 21 169.5 10.5 c 128,-1,9
 149 0 149 0 125 0 c 0,10,11
 100 0 100 0 80 10.5 c 128,-1,12
 60 21 60 21 60 41 c 2,13,-1
 60 691 l 2,0,1
85 815 m 2,14,15
 81 813 81 813 78 812 c 128,-1,16
 75 811 75 811 71 811 c 0,17,18
 54 811 54 811 42.5 827 c 128,-1,19
 31 843 31 843 31 860 c 0,20,21
 31 882 31 882 48 891 c 2,22,-1
 180 955 l 2,23,24
 184 956 184 956 187 956.5 c 128,-1,25
 190 957 190 957 193 957 c 0,26,27
 210 957 210 957 221.5 941 c 128,-1,28
 233 925 233 925 233 908 c 0,29,30
 233 899 233 899 229 891 c 128,-1,31
 225 883 225 883 215 878 c 2,32,-1
 85 815 l 2,14,15
EndSplineSet
EndChar
StartChar: Icircumflex
Encoding: 206 206 51
Width: 250
Flags: W
LayerCount: 2
Back
Fore
SplineSet
60 691 m 2,0,1
 60 712 60 712 80 721.5 c 128,-1,2
 100 731 100 731 125 731 c 0,3,4
 149 731 149 731 169.5 721.5 c 128,-1,5
 190 712 190 712 190 691 c 2,6,-1
 190 41 l 2,7,8
 190 21 190 21 169.5 10.5 c 128,-1,9
 149 0 149 0 125 0 c 0,10,11
 100 0 100 0 80 10.5 c 128,-1,12
 60 21 60 21 60 41 c 2,13,-1
 60 691 l 2,0,1
23 822 m 2,14,15
 17 819 17 819 12 819 c 0,16,17
 0 819 0 819 -8 831 c 128,-1,18
 -16 843 -16 843 -16 859 c 0,19,20
 -16 870 -16 870 -11 880 c 128,-1,21
 -6 890 -6 890 6 896 c 2,22,-1
 110 952 l 2,23,24
 118 957 118 957 127 957 c 0,25,26
 134 957 134 957 144 952 c 2,27,-1
 248 897 l 2,28,29
 259 890 259 890 264 879.5 c 128,-1,30
 269 869 269 869 269 858 c 0,31,32
 269 843 269 843 261 831 c 128,-1,33
 253 819 253 819 241 819 c 0,34,35
 235 819 235 819 231 822 c 2,36,-1
 127 878 l 1,37,-1
 23 822 l 2,14,15
EndSplineSet
EndChar
StartChar: Idieresis
Encoding: 207 207 52
Width: 250
Flags: W
LayerCount: 2
Back
Fore
SplineSet
60 691 m 2,0,1
 60 712 60 712 80 721.5 c 128,-1,2
 100 731 100 731 125 731 c 0,3,4
 149 731 149 731 169.5 721.5 c 128,-1,5
 190 712 190 712 190 691 c 2,6,-1
 190 41 l 2,7,8
 190 21 190 21 169.5 10.5 c 128,-1,9
 149 0 149 0 125 0 c 0,10,11
 100 0 100 0 80 10.5 c 128,-1,12
 60 21 60 21 60 41 c 2,13,-1
 60 691 l 2,0,1
52 925 m 256,14,15
 73 925 73 925 87.5 909.5 c 128,-1,16
 102 894 102 894 102 873 c 256,17,18
 102 852 102 852 87.5 836 c 128,-1,19
 73 820 73 820 52 820 c 256,20,21
 31 820 31 820 16 836 c 128,-1,22
 1 852 1 852 1 873 c 256,23,24
 1 894 1 894 16 909.5 c 128,-1,25
 31 925 31 925 52 925 c 256,14,15
202 925 m 0,26,27
 222 925 222 925 237 909.5 c 128,-1,28
 252 894 252 894 252 873 c 256,29,30
 252 852 252 852 237 836 c 128,-1,31
 222 820 222 820 202 820 c 0,32,33
 180 820 180 820 165 836 c 128,-1,34
 150 852 150 852 150 873 c 256,35,36
 150 894 150 894 165 909.5 c 128,-1,37
 180 925 180 925 202 925 c 0,26,27
EndSplineSet
EndChar
StartChar: Eth
Encoding: 208 208 36
Width: 587
Flags: W
LayerCount: 2
Back
Fore
SplineSet
301 731 m 2,0,1
 350 731 350 731 393 718.5 c 128,-1,2
 436 706 436 706 468 679 c 128,-1,3
 500 652 500 652 518 608.5 c 128,-1,4
 536 565 536 565 536 502 c 2,5,-1
 536 229 l 2,6,7
 536 166 536 166 518 122.5 c 128,-1,8
 500 79 500 79 468 52 c 128,-1,9
 436 25 436 25 393 12.5 c 128,-1,10
 350 0 350 0 301 0 c 2,11,-1
 124 0 l 2,12,13
 98 0 98 0 82.5 12 c 128,-1,14
 67 24 67 24 67 40 c 2,15,-1
 67 336 l 1,16,-1
 26 336 l 2,17,18
 10 336 10 336 1.5 350 c 128,-1,19
 -7 364 -7 364 -7 382 c 256,20,21
 -7 400 -7 400 1.5 414.5 c 128,-1,22
 10 429 10 429 26 429 c 2,23,-1
 67 429 l 1,24,-1
 67 691 l 2,25,26
 67 707 67 707 82.5 719 c 128,-1,27
 98 731 98 731 124 731 c 2,28,-1
 301 731 l 2,0,1
197 617 m 1,29,-1
 197 429 l 1,30,-1
 274 429 l 2,31,32
 291 429 291 429 299.5 414.5 c 128,-1,33
 308 400 308 400 308 382 c 256,34,35
 308 364 308 364 299.5 350 c 128,-1,36
 291 336 291 336 274 336 c 2,37,-1
 197 336 l 1,38,-1
 197 114 l 1,39,-1
 301 114 l 2,40,41
 351 114 351 114 378.5 142 c 128,-1,42
 406 170 406 170 406 229 c 2,43,-1
 406 502 l 2,44,45
 406 561 406 561 378.5 589 c 128,-1,46
 351 617 351 617 301 617 c 2,47,-1
 197 617 l 1,29,-1
EndSplineSet
EndChar
StartChar: Ntilde
Encoding: 209 209 73
Width: 605
Flags: W
LayerCount: 2
Back
Fore
SplineSet
480 0 m 0,0,1
 457 0 457 0 437.5 9 c 128,-1,2
 418 18 418 18 405 41 c 2,3,-1
 190 443 l 1,4,-1
 190 41 l 2,5,6
 190 21 190 21 169.5 10.5 c 128,-1,7
 149 0 149 0 125 0 c 0,8,9
 100 0 100 0 80 10.5 c 128,-1,10
 60 21 60 21 60 41 c 2,11,-1
 60 690 l 2,12,13
 60 711 60 711 80 721 c 128,-1,14
 100 731 100 731 125 731 c 0,15,16
 143 731 143 731 156 728.5 c 128,-1,17
 169 726 169 726 179.5 718.5 c 128,-1,18
 190 711 190 711 200 697.5 c 128,-1,19
 210 684 210 684 222 662 c 2,20,-1
 415 289 l 1,21,-1
 415 691 l 2,22,23
 415 712 415 712 435 721.5 c 128,-1,24
 455 731 455 731 480 731 c 0,25,26
 504 731 504 731 524.5 721.5 c 128,-1,27
 545 712 545 712 545 691 c 2,28,-1
 545 41 l 2,29,30
 545 21 545 21 524.5 10.5 c 128,-1,31
 504 0 504 0 480 0 c 0,0,1
239 860 m 0,32,33
 223 860 223 860 211.5 856 c 128,-1,34
 200 852 200 852 190.5 847.5 c 128,-1,35
 181 843 181 843 173 839.5 c 128,-1,36
 165 836 165 836 157 836 c 0,37,38
 147 836 147 836 140.5 841 c 128,-1,39
 134 846 134 846 130.5 853 c 128,-1,40
 127 860 127 860 125.5 867 c 128,-1,41
 124 874 124 874 124 878 c 0,42,43
 124 901 124 901 134 914.5 c 128,-1,44
 144 928 144 928 158 935 c 128,-1,45
 172 942 172 942 186.5 944 c 128,-1,46
 201 946 201 946 210 946 c 0,47,48
 232 946 232 946 249 941.5 c 128,-1,49
 266 937 266 937 282.5 931.5 c 128,-1,50
 299 926 299 926 315.5 921.5 c 128,-1,51
 332 917 332 917 352 917 c 0,52,53
 368 917 368 917 380 920.5 c 128,-1,54
 392 924 392 924 401 928.5 c 128,-1,55
 410 933 410 933 417.5 937 c 128,-1,56
 425 941 425 941 433 941 c 0,57,58
 443 941 443 941 449 936 c 128,-1,59
 455 931 455 931 459 924 c 128,-1,60
 463 917 463 917 464.5 910 c 128,-1,61
 466 903 466 903 466 899 c 0,62,63
 466 876 466 876 456 862.5 c 128,-1,64
 446 849 446 849 432 842 c 128,-1,65
 418 835 418 835 403.5 833 c 128,-1,66
 389 831 389 831 381 831 c 0,67,68
 356 831 356 831 338 835.5 c 128,-1,69
 320 840 320 840 304 845.5 c 128,-1,70
 288 851 288 851 273 855.5 c 128,-1,71
 258 860 258 860 239 860 c 0,32,33
EndSplineSet
EndChar
StartChar: Ograve
Encoding: 210 210 80
Width: 572
Flags: W
LayerCount: 2
Back
Fore
SplineSet
286 -6 m 0,0,1
 236 -6 236 -6 193.5 6.5 c 128,-1,2
 151 19 151 19 119.5 46 c 128,-1,3
 88 73 88 73 70 116.5 c 128,-1,4
 52 160 52 160 52 223 c 2,5,-1
 52 502 l 2,6,7
 52 565 52 565 70 608.5 c 128,-1,8
 88 652 88 652 119.5 679 c 128,-1,9
 151 706 151 706 193.5 718.5 c 128,-1,10
 236 731 236 731 286 731 c 0,11,12
 335 731 335 731 378 718.5 c 128,-1,13
 421 706 421 706 453 679 c 128,-1,14
 485 652 485 652 503 608.5 c 128,-1,15
 521 565 521 565 521 502 c 2,16,-1
 521 223 l 2,17,18
 521 160 521 160 503 116.5 c 128,-1,19
 485 73 485 73 453 46 c 128,-1,20
 421 19 421 19 378 6.5 c 128,-1,21
 335 -6 335 -6 286 -6 c 0,0,1
391 502 m 2,22,23
 391 562 391 562 363 589.5 c 128,-1,24
 335 617 335 617 286 617 c 0,25,26
 236 617 236 617 209 589.5 c 128,-1,27
 182 562 182 562 182 502 c 2,28,-1
 182 223 l 2,29,30
 182 163 182 163 209 135.5 c 128,-1,31
 236 108 236 108 286 108 c 0,32,33
 335 108 335 108 363 135.5 c 128,-1,34
 391 163 391 163 391 223 c 2,35,-1
 391 502 l 2,22,23
191 878 m 2,36,37
 181 883 181 883 177 891 c 128,-1,38
 173 899 173 899 173 908 c 0,39,40
 173 925 173 925 184.5 941 c 128,-1,41
 196 957 196 957 213 957 c 0,42,43
 216 957 216 957 219 956.5 c 128,-1,44
 222 956 222 956 226 955 c 2,45,-1
 358 891 l 2,46,47
 375 882 375 882 375 860 c 0,48,49
 375 843 375 843 363.5 827 c 128,-1,50
 352 811 352 811 335 811 c 0,51,52
 331 811 331 811 328 812 c 128,-1,53
 325 813 325 813 321 815 c 2,54,-1
 191 878 l 2,36,37
EndSplineSet
EndChar
StartChar: Oacute
Encoding: 211 211 76
Width: 572
Flags: W
LayerCount: 2
Back
Fore
SplineSet
274 815 m 2,0,1
 270 813 270 813 267 812 c 128,-1,2
 264 811 264 811 260 811 c 0,3,4
 243 811 243 811 231.5 827 c 128,-1,5
 220 843 220 843 220 860 c 0,6,7
 220 882 220 882 237 891 c 2,8,-1
 369 955 l 2,9,10
 373 956 373 956 376 956.5 c 128,-1,11
 379 957 379 957 382 957 c 0,12,13
 399 957 399 957 410.5 941 c 128,-1,14
 422 925 422 925 422 908 c 0,15,16
 422 899 422 899 418 891 c 128,-1,17
 414 883 414 883 404 878 c 2,18,-1
 274 815 l 2,0,1
286 -6 m 0,19,20
 236 -6 236 -6 193.5 6.5 c 128,-1,21
 151 19 151 19 119.5 46 c 128,-1,22
 88 73 88 73 70 116.5 c 128,-1,23
 52 160 52 160 52 223 c 2,24,-1
 52 502 l 2,25,26
 52 565 52 565 70 608.5 c 128,-1,27
 88 652 88 652 119.5 679 c 128,-1,28
 151 706 151 706 193.5 718.5 c 128,-1,29
 236 731 236 731 286 731 c 0,30,31
 335 731 335 731 378 718.5 c 128,-1,32
 421 706 421 706 453 679 c 128,-1,33
 485 652 485 652 503 608.5 c 128,-1,34
 521 565 521 565 521 502 c 2,35,-1
 521 223 l 2,36,37
 521 160 521 160 503 116.5 c 128,-1,38
 485 73 485 73 453 46 c 128,-1,39
 421 19 421 19 378 6.5 c 128,-1,40
 335 -6 335 -6 286 -6 c 0,19,20
391 502 m 2,41,42
 391 562 391 562 363 589.5 c 128,-1,43
 335 617 335 617 286 617 c 0,44,45
 236 617 236 617 209 589.5 c 128,-1,46
 182 562 182 562 182 502 c 2,47,-1
 182 223 l 2,48,49
 182 163 182 163 209 135.5 c 128,-1,50
 236 108 236 108 286 108 c 0,51,52
 335 108 335 108 363 135.5 c 128,-1,53
 391 163 391 163 391 223 c 2,54,-1
 391 502 l 2,41,42
EndSplineSet
EndChar
StartChar: Ocircumflex
Encoding: 212 212 78
Width: 572
Flags: W
LayerCount: 2
Back
Fore
SplineSet
182 822 m 2,0,1
 176 819 176 819 171 819 c 0,2,3
 159 819 159 819 151 831 c 128,-1,4
 143 843 143 843 143 859 c 0,5,6
 143 870 143 870 148 880 c 128,-1,7
 153 890 153 890 165 896 c 2,8,-1
 269 952 l 2,9,10
 277 957 277 957 286 957 c 0,11,12
 293 957 293 957 303 952 c 2,13,-1
 407 897 l 2,14,15
 418 890 418 890 423 879.5 c 128,-1,16
 428 869 428 869 428 858 c 0,17,18
 428 843 428 843 420 831 c 128,-1,19
 412 819 412 819 400 819 c 0,20,21
 394 819 394 819 390 822 c 2,22,-1
 286 878 l 1,23,-1
 182 822 l 2,0,1
286 -6 m 0,24,25
 236 -6 236 -6 193.5 6.5 c 128,-1,26
 151 19 151 19 119.5 46 c 128,-1,27
 88 73 88 73 70 116.5 c 128,-1,28
 52 160 52 160 52 223 c 2,29,-1
 52 502 l 2,30,31
 52 565 52 565 70 608.5 c 128,-1,32
 88 652 88 652 119.5 679 c 128,-1,33
 151 706 151 706 193.5 718.5 c 128,-1,34
 236 731 236 731 286 731 c 0,35,36
 335 731 335 731 378 718.5 c 128,-1,37
 421 706 421 706 453 679 c 128,-1,38
 485 652 485 652 503 608.5 c 128,-1,39
 521 565 521 565 521 502 c 2,40,-1
 521 223 l 2,41,42
 521 160 521 160 503 116.5 c 128,-1,43
 485 73 485 73 453 46 c 128,-1,44
 421 19 421 19 378 6.5 c 128,-1,45
 335 -6 335 -6 286 -6 c 0,24,25
391 502 m 2,46,47
 391 562 391 562 363 589.5 c 128,-1,48
 335 617 335 617 286 617 c 0,49,50
 236 617 236 617 209 589.5 c 128,-1,51
 182 562 182 562 182 502 c 2,52,-1
 182 223 l 2,53,54
 182 163 182 163 209 135.5 c 128,-1,55
 236 108 236 108 286 108 c 0,56,57
 335 108 335 108 363 135.5 c 128,-1,58
 391 163 391 163 391 223 c 2,59,-1
 391 502 l 2,46,47
EndSplineSet
EndChar
StartChar: Otilde
Encoding: 213 213 86
Width: 572
Flags: W
LayerCount: 2
Back
Fore
SplineSet
286 -6 m 0,0,1
 236 -6 236 -6 193.5 6.5 c 128,-1,2
 151 19 151 19 119.5 46 c 128,-1,3
 88 73 88 73 70 116.5 c 128,-1,4
 52 160 52 160 52 223 c 2,5,-1
 52 502 l 2,6,7
 52 565 52 565 70 608.5 c 128,-1,8
 88 652 88 652 119.5 679 c 128,-1,9
 151 706 151 706 193.5 718.5 c 128,-1,10
 236 731 236 731 286 731 c 0,11,12
 335 731 335 731 378 718.5 c 128,-1,13
 421 706 421 706 453 679 c 128,-1,14
 485 652 485 652 503 608.5 c 128,-1,15
 521 565 521 565 521 502 c 2,16,-1
 521 223 l 2,17,18
 521 160 521 160 503 116.5 c 128,-1,19
 485 73 485 73 453 46 c 128,-1,20
 421 19 421 19 378 6.5 c 128,-1,21
 335 -6 335 -6 286 -6 c 0,0,1
391 502 m 2,22,23
 391 562 391 562 363 589.5 c 128,-1,24
 335 617 335 617 286 617 c 0,25,26
 236 617 236 617 209 589.5 c 128,-1,27
 182 562 182 562 182 502 c 2,28,-1
 182 223 l 2,29,30
 182 163 182 163 209 135.5 c 128,-1,31
 236 108 236 108 286 108 c 0,32,33
 335 108 335 108 363 135.5 c 128,-1,34
 391 163 391 163 391 223 c 2,35,-1
 391 502 l 2,22,23
230 860 m 0,36,37
 214 860 214 860 202.5 856 c 128,-1,38
 191 852 191 852 181.5 847.5 c 128,-1,39
 172 843 172 843 164 839.5 c 128,-1,40
 156 836 156 836 148 836 c 0,41,42
 138 836 138 836 131.5 841 c 128,-1,43
 125 846 125 846 121.5 853 c 128,-1,44
 118 860 118 860 116.5 867 c 128,-1,45
 115 874 115 874 115 878 c 0,46,47
 115 901 115 901 125 914.5 c 128,-1,48
 135 928 135 928 149 935 c 128,-1,49
 163 942 163 942 177.5 944 c 128,-1,50
 192 946 192 946 201 946 c 0,51,52
 223 946 223 946 240 941.5 c 128,-1,53
 257 937 257 937 273.5 931.5 c 128,-1,54
 290 926 290 926 306.5 921.5 c 128,-1,55
 323 917 323 917 343 917 c 0,56,57
 359 917 359 917 371 920.5 c 128,-1,58
 383 924 383 924 392 928.5 c 128,-1,59
 401 933 401 933 408.5 937 c 128,-1,60
 416 941 416 941 424 941 c 0,61,62
 434 941 434 941 440 936 c 128,-1,63
 446 931 446 931 450 924 c 128,-1,64
 454 917 454 917 455.5 910 c 128,-1,65
 457 903 457 903 457 899 c 0,66,67
 457 876 457 876 447 862.5 c 128,-1,68
 437 849 437 849 423 842 c 128,-1,69
 409 835 409 835 394.5 833 c 128,-1,70
 380 831 380 831 372 831 c 0,71,72
 347 831 347 831 329 835.5 c 128,-1,73
 311 840 311 840 295 845.5 c 128,-1,74
 279 851 279 851 264 855.5 c 128,-1,75
 249 860 249 860 230 860 c 0,36,37
EndSplineSet
EndChar
StartChar: Odieresis
Encoding: 214 214 79
Width: 572
Flags: W
LayerCount: 2
Back
Fore
SplineSet
213 925 m 256,0,1
 234 925 234 925 248.5 909.5 c 128,-1,2
 263 894 263 894 263 873 c 256,3,4
 263 852 263 852 248.5 836 c 128,-1,5
 234 820 234 820 213 820 c 256,6,7
 192 820 192 820 177 836 c 128,-1,8
 162 852 162 852 162 873 c 256,9,10
 162 894 162 894 177 909.5 c 128,-1,11
 192 925 192 925 213 925 c 256,0,1
363 925 m 0,12,13
 383 925 383 925 398 909.5 c 128,-1,14
 413 894 413 894 413 873 c 256,15,16
 413 852 413 852 398 836 c 128,-1,17
 383 820 383 820 363 820 c 0,18,19
 341 820 341 820 326 836 c 128,-1,20
 311 852 311 852 311 873 c 256,21,22
 311 894 311 894 326 909.5 c 128,-1,23
 341 925 341 925 363 925 c 0,12,13
286 -6 m 0,24,25
 236 -6 236 -6 193.5 6.5 c 128,-1,26
 151 19 151 19 119.5 46 c 128,-1,27
 88 73 88 73 70 116.5 c 128,-1,28
 52 160 52 160 52 223 c 2,29,-1
 52 502 l 2,30,31
 52 565 52 565 70 608.5 c 128,-1,32
 88 652 88 652 119.5 679 c 128,-1,33
 151 706 151 706 193.5 718.5 c 128,-1,34
 236 731 236 731 286 731 c 0,35,36
 335 731 335 731 378 718.5 c 128,-1,37
 421 706 421 706 453 679 c 128,-1,38
 485 652 485 652 503 608.5 c 128,-1,39
 521 565 521 565 521 502 c 2,40,-1
 521 223 l 2,41,42
 521 160 521 160 503 116.5 c 128,-1,43
 485 73 485 73 453 46 c 128,-1,44
 421 19 421 19 378 6.5 c 128,-1,45
 335 -6 335 -6 286 -6 c 0,24,25
391 502 m 2,46,47
 391 562 391 562 363 589.5 c 128,-1,48
 335 617 335 617 286 617 c 0,49,50
 236 617 236 617 209 589.5 c 128,-1,51
 182 562 182 562 182 502 c 2,52,-1
 182 223 l 2,53,54
 182 163 182 163 209 135.5 c 128,-1,55
 236 108 236 108 286 108 c 0,56,57
 335 108 335 108 363 135.5 c 128,-1,58
 391 163 391 163 391 223 c 2,59,-1
 391 502 l 2,46,47
EndSplineSet
EndChar
StartChar: multiply
Encoding: 215 215 279
Width: 407
Flags: W
LayerCount: 2
Back
Fore
SplineSet
365 173 m 0,0,1
 365 162 365 162 359.5 151.5 c 128,-1,2
 354 141 354 141 345.5 132.5 c 128,-1,3
 337 124 337 124 326.5 118.5 c 128,-1,4
 316 113 316 113 305 113 c 0,5,6
 289 113 289 113 279 123 c 2,7,-1
 203 199 l 1,8,-1
 128 123 l 2,9,10
 118 113 118 113 102 113 c 0,11,12
 92 113 92 113 81.5 118.5 c 128,-1,13
 71 124 71 124 62 132.5 c 128,-1,14
 53 141 53 141 47.5 152 c 128,-1,15
 42 163 42 163 42 174 c 0,16,17
 42 189 42 189 52 199 c 2,18,-1
 136 275 l 1,19,-1
 53 349 l 2,20,21
 43 361 43 361 43 375 c 0,22,23
 43 398 43 398 61.5 416.5 c 128,-1,24
 80 435 80 435 103 435 c 0,25,26
 117 435 117 435 129 425 c 2,27,-1
 203 350 l 1,28,-1
 278 425 l 2,29,30
 288 435 288 435 304 435 c 0,31,32
 327 435 327 435 345.5 416.5 c 128,-1,33
 364 398 364 398 364 376 c 0,34,35
 364 361 364 361 354 349 c 2,36,-1
 271 275 l 1,37,-1
 355 199 l 2,38,39
 365 189 365 189 365 173 c 0,0,1
EndSplineSet
EndChar
StartChar: Oslash
Encoding: 216 216 84
Width: 573
Flags: W
LayerCount: 2
Back
Fore
SplineSet
463 771 m 0,0,1
 481 771 481 771 497 758.5 c 128,-1,2
 513 746 513 746 513 726 c 0,3,4
 513 716 513 716 509 708 c 2,5,-1
 480 650 l 1,6,7
 500 623 500 623 510.5 586.5 c 128,-1,8
 521 550 521 550 521 502 c 2,9,-1
 521 223 l 2,10,11
 521 160 521 160 503 116.5 c 128,-1,12
 485 73 485 73 453 46 c 128,-1,13
 421 19 421 19 378 6.5 c 128,-1,14
 335 -6 335 -6 286 -6 c 0,15,16
 253 -6 253 -6 223 -1 c 128,-1,17
 193 4 193 4 167 16 c 1,18,-1
 150 -18 l 2,19,20
 145 -29 145 -29 134 -34.5 c 128,-1,21
 123 -40 123 -40 111 -40 c 0,22,23
 89 -40 89 -40 76 -26 c 128,-1,24
 63 -12 63 -12 63 4 c 0,25,26
 63 13 63 13 68 21 c 2,27,-1
 94 73 l 1,28,29
 74 100 74 100 63 137 c 128,-1,30
 52 174 52 174 52 223 c 2,31,-1
 52 502 l 2,32,33
 52 565 52 565 70 608.5 c 128,-1,34
 88 652 88 652 119.5 679 c 128,-1,35
 151 706 151 706 193.5 718.5 c 128,-1,36
 236 731 236 731 286 731 c 0,37,38
 319 731 319 731 349.5 725.5 c 128,-1,39
 380 720 380 720 406 708 c 1,40,-1
 427 750 l 2,41,42
 432 761 432 761 442 766 c 128,-1,43
 452 771 452 771 463 771 c 0,0,1
182 252 m 1,44,-1
 352 598 l 1,45,46
 327 617 327 617 286 617 c 0,47,48
 236 617 236 617 209 589.5 c 128,-1,49
 182 562 182 562 182 502 c 2,50,-1
 182 252 l 1,44,-1
391 469 m 1,51,-1
 221 125 l 1,52,53
 245 108 245 108 286 108 c 0,54,55
 335 108 335 108 363 135.5 c 128,-1,56
 391 163 391 163 391 223 c 2,57,-1
 391 469 l 1,51,-1
EndSplineSet
EndChar
StartChar: Ugrave
Encoding: 217 217 109
Width: 594
Flags: W
LayerCount: 2
Back
Fore
SplineSet
407 691 m 2,0,1
 407 712 407 712 427 721.5 c 128,-1,2
 447 731 447 731 472 731 c 0,3,4
 496 731 496 731 516.5 721.5 c 128,-1,5
 537 712 537 712 537 691 c 2,6,-1
 537 223 l 2,7,8
 537 160 537 160 518.5 116.5 c 128,-1,9
 500 73 500 73 467.5 46 c 128,-1,10
 435 19 435 19 391 6.5 c 128,-1,11
 347 -6 347 -6 297 -6 c 0,12,13
 246 -6 246 -6 202.5 6.5 c 128,-1,14
 159 19 159 19 126.5 46 c 128,-1,15
 94 73 94 73 75.5 116.5 c 128,-1,16
 57 160 57 160 57 223 c 2,17,-1
 57 691 l 2,18,19
 57 712 57 712 77 721.5 c 128,-1,20
 97 731 97 731 122 731 c 0,21,22
 146 731 146 731 166.5 721.5 c 128,-1,23
 187 712 187 712 187 691 c 2,24,-1
 187 223 l 2,25,26
 187 164 187 164 216 136 c 128,-1,27
 245 108 245 108 297 108 c 256,28,29
 349 108 349 108 378 136 c 128,-1,30
 407 164 407 164 407 223 c 2,31,-1
 407 691 l 2,0,1
197 878 m 2,32,33
 187 883 187 883 183 891 c 128,-1,34
 179 899 179 899 179 908 c 0,35,36
 179 925 179 925 190.5 941 c 128,-1,37
 202 957 202 957 219 957 c 0,38,39
 222 957 222 957 225 956.5 c 128,-1,40
 228 956 228 956 232 955 c 2,41,-1
 364 891 l 2,42,43
 381 882 381 882 381 860 c 0,44,45
 381 843 381 843 369.5 827 c 128,-1,46
 358 811 358 811 341 811 c 0,47,48
 337 811 337 811 334 812 c 128,-1,49
 331 813 331 813 327 815 c 2,50,-1
 197 878 l 2,32,33
EndSplineSet
EndChar
StartChar: Uacute
Encoding: 218 218 105
Width: 594
Flags: W
LayerCount: 2
Back
Fore
SplineSet
272 815 m 2,0,1
 268 813 268 813 265 812 c 128,-1,2
 262 811 262 811 258 811 c 0,3,4
 241 811 241 811 229.5 827 c 128,-1,5
 218 843 218 843 218 860 c 0,6,7
 218 882 218 882 235 891 c 2,8,-1
 367 955 l 2,9,10
 371 956 371 956 374 956.5 c 128,-1,11
 377 957 377 957 380 957 c 0,12,13
 397 957 397 957 408.5 941 c 128,-1,14
 420 925 420 925 420 908 c 0,15,16
 420 899 420 899 416 891 c 128,-1,17
 412 883 412 883 402 878 c 2,18,-1
 272 815 l 2,0,1
407 691 m 2,19,20
 407 712 407 712 427 721.5 c 128,-1,21
 447 731 447 731 472 731 c 0,22,23
 496 731 496 731 516.5 721.5 c 128,-1,24
 537 712 537 712 537 691 c 2,25,-1
 537 223 l 2,26,27
 537 160 537 160 518.5 116.5 c 128,-1,28
 500 73 500 73 467.5 46 c 128,-1,29
 435 19 435 19 391 6.5 c 128,-1,30
 347 -6 347 -6 297 -6 c 0,31,32
 246 -6 246 -6 202.5 6.5 c 128,-1,33
 159 19 159 19 126.5 46 c 128,-1,34
 94 73 94 73 75.5 116.5 c 128,-1,35
 57 160 57 160 57 223 c 2,36,-1
 57 691 l 2,37,38
 57 712 57 712 77 721.5 c 128,-1,39
 97 731 97 731 122 731 c 0,40,41
 146 731 146 731 166.5 721.5 c 128,-1,42
 187 712 187 712 187 691 c 2,43,-1
 187 223 l 2,44,45
 187 164 187 164 216 136 c 128,-1,46
 245 108 245 108 297 108 c 256,47,48
 349 108 349 108 378 136 c 128,-1,49
 407 164 407 164 407 223 c 2,50,-1
 407 691 l 2,19,20
EndSplineSet
EndChar
StartChar: Ucircumflex
Encoding: 219 219 107
Width: 594
Flags: W
LayerCount: 2
Back
Fore
SplineSet
188 822 m 2,0,1
 182 819 182 819 177 819 c 0,2,3
 165 819 165 819 157 831 c 128,-1,4
 149 843 149 843 149 859 c 0,5,6
 149 870 149 870 154 880 c 128,-1,7
 159 890 159 890 171 896 c 2,8,-1
 275 952 l 2,9,10
 283 957 283 957 292 957 c 0,11,12
 299 957 299 957 309 952 c 2,13,-1
 413 897 l 2,14,15
 424 890 424 890 429 879.5 c 128,-1,16
 434 869 434 869 434 858 c 0,17,18
 434 843 434 843 426 831 c 128,-1,19
 418 819 418 819 406 819 c 0,20,21
 400 819 400 819 396 822 c 2,22,-1
 292 878 l 1,23,-1
 188 822 l 2,0,1
407 691 m 2,24,25
 407 712 407 712 427 721.5 c 128,-1,26
 447 731 447 731 472 731 c 0,27,28
 496 731 496 731 516.5 721.5 c 128,-1,29
 537 712 537 712 537 691 c 2,30,-1
 537 223 l 2,31,32
 537 160 537 160 518.5 116.5 c 128,-1,33
 500 73 500 73 467.5 46 c 128,-1,34
 435 19 435 19 391 6.5 c 128,-1,35
 347 -6 347 -6 297 -6 c 0,36,37
 246 -6 246 -6 202.5 6.5 c 128,-1,38
 159 19 159 19 126.5 46 c 128,-1,39
 94 73 94 73 75.5 116.5 c 128,-1,40
 57 160 57 160 57 223 c 2,41,-1
 57 691 l 2,42,43
 57 712 57 712 77 721.5 c 128,-1,44
 97 731 97 731 122 731 c 0,45,46
 146 731 146 731 166.5 721.5 c 128,-1,47
 187 712 187 712 187 691 c 2,48,-1
 187 223 l 2,49,50
 187 164 187 164 216 136 c 128,-1,51
 245 108 245 108 297 108 c 256,52,53
 349 108 349 108 378 136 c 128,-1,54
 407 164 407 164 407 223 c 2,55,-1
 407 691 l 2,24,25
EndSplineSet
EndChar
StartChar: Udieresis
Encoding: 220 220 108
Width: 594
Flags: W
LayerCount: 2
Back
Fore
SplineSet
222 925 m 256,0,1
 243 925 243 925 257.5 909.5 c 128,-1,2
 272 894 272 894 272 873 c 256,3,4
 272 852 272 852 257.5 836 c 128,-1,5
 243 820 243 820 222 820 c 256,6,7
 201 820 201 820 186 836 c 128,-1,8
 171 852 171 852 171 873 c 256,9,10
 171 894 171 894 186 909.5 c 128,-1,11
 201 925 201 925 222 925 c 256,0,1
372 925 m 0,12,13
 392 925 392 925 407 909.5 c 128,-1,14
 422 894 422 894 422 873 c 256,15,16
 422 852 422 852 407 836 c 128,-1,17
 392 820 392 820 372 820 c 0,18,19
 350 820 350 820 335 836 c 128,-1,20
 320 852 320 852 320 873 c 256,21,22
 320 894 320 894 335 909.5 c 128,-1,23
 350 925 350 925 372 925 c 0,12,13
407 691 m 2,24,25
 407 712 407 712 427 721.5 c 128,-1,26
 447 731 447 731 472 731 c 0,27,28
 496 731 496 731 516.5 721.5 c 128,-1,29
 537 712 537 712 537 691 c 2,30,-1
 537 223 l 2,31,32
 537 160 537 160 518.5 116.5 c 128,-1,33
 500 73 500 73 467.5 46 c 128,-1,34
 435 19 435 19 391 6.5 c 128,-1,35
 347 -6 347 -6 297 -6 c 0,36,37
 246 -6 246 -6 202.5 6.5 c 128,-1,38
 159 19 159 19 126.5 46 c 128,-1,39
 94 73 94 73 75.5 116.5 c 128,-1,40
 57 160 57 160 57 223 c 2,41,-1
 57 691 l 2,42,43
 57 712 57 712 77 721.5 c 128,-1,44
 97 731 97 731 122 731 c 0,45,46
 146 731 146 731 166.5 721.5 c 128,-1,47
 187 712 187 712 187 691 c 2,48,-1
 187 223 l 2,49,50
 187 164 187 164 216 136 c 128,-1,51
 245 108 245 108 297 108 c 256,52,53
 349 108 349 108 378 136 c 128,-1,54
 407 164 407 164 407 223 c 2,55,-1
 407 691 l 2,24,25
EndSplineSet
EndChar
StartChar: Yacute
Encoding: 221 221 123
Width: 574
Flags: W
LayerCount: 2
Back
Fore
SplineSet
222 293 m 2,0,1
 222 301 222 301 219 306 c 2,2,-1
 12 664 l 2,3,4
 9 671 9 671 9 677 c 0,5,6
 9 689 9 689 17.5 699 c 128,-1,7
 26 709 26 709 39 716 c 128,-1,8
 52 723 52 723 67 727 c 128,-1,9
 82 731 82 731 95 731 c 0,10,11
 111 731 111 731 119.5 725 c 128,-1,12
 128 719 128 719 135 705 c 2,13,-1
 287 416 l 1,14,-1
 440 705 l 2,15,16
 447 718 447 718 455 724.5 c 128,-1,17
 463 731 463 731 479 731 c 0,18,19
 492 731 492 731 507 727 c 128,-1,20
 522 723 522 723 535 716 c 128,-1,21
 548 709 548 709 556.5 699 c 128,-1,22
 565 689 565 689 565 677 c 0,23,24
 565 675 565 675 564.5 671.5 c 128,-1,25
 564 668 564 668 562 664 c 2,26,-1
 356 306 l 2,27,28
 352 300 352 300 352 293 c 2,29,-1
 352 41 l 2,30,31
 352 21 352 21 332 10.5 c 128,-1,32
 312 0 312 0 287 0 c 0,33,34
 263 0 263 0 242.5 10.5 c 128,-1,35
 222 21 222 21 222 41 c 2,36,-1
 222 293 l 2,0,1
256 815 m 2,37,38
 252 813 252 813 249 812 c 128,-1,39
 246 811 246 811 242 811 c 0,40,41
 225 811 225 811 213.5 827 c 128,-1,42
 202 843 202 843 202 860 c 0,43,44
 202 882 202 882 219 891 c 2,45,-1
 351 955 l 2,46,47
 355 956 355 956 358 956.5 c 128,-1,48
 361 957 361 957 364 957 c 0,49,50
 381 957 381 957 392.5 941 c 128,-1,51
 404 925 404 925 404 908 c 0,52,53
 404 899 404 899 400 891 c 128,-1,54
 396 883 396 883 386 878 c 2,55,-1
 256 815 l 2,37,38
EndSplineSet
EndChar
StartChar: Thorn
Encoding: 222 222 103
Width: 520
Flags: W
LayerCount: 2
Back
Fore
SplineSet
122 744 m 0,0,1
 151 744 151 744 170.5 733 c 128,-1,2
 190 722 190 722 190 704 c 2,3,-1
 190 546 l 1,4,5
 206 575 206 575 239 598.5 c 128,-1,6
 272 622 272 622 319 622 c 0,7,8
 355 622 355 622 387.5 607 c 128,-1,9
 420 592 420 592 444 565.5 c 128,-1,10
 468 539 468 539 482 503.5 c 128,-1,11
 496 468 496 468 496 426 c 2,12,-1
 496 330 l 2,13,14
 496 289 496 289 481.5 253 c 128,-1,15
 467 217 467 217 443 190 c 128,-1,16
 419 163 419 163 388 147.5 c 128,-1,17
 357 132 357 132 324 132 c 0,18,19
 301 132 301 132 280 138.5 c 128,-1,20
 259 145 259 145 241 156 c 128,-1,21
 223 167 223 167 210 181 c 128,-1,22
 197 195 197 195 190 211 c 1,23,-1
 190 41 l 2,24,25
 190 26 190 26 170.5 13 c 128,-1,26
 151 0 151 0 124 0 c 0,27,28
 96 0 96 0 78.5 13 c 128,-1,29
 61 26 61 26 61 41 c 2,30,-1
 61 704 l 2,31,32
 61 722 61 722 78.5 733 c 128,-1,33
 96 744 96 744 122 744 c 0,0,1
367 426 m 2,34,35
 367 443 367 443 360 458 c 128,-1,36
 353 473 353 473 340.5 484.5 c 128,-1,37
 328 496 328 496 312 502.5 c 128,-1,38
 296 509 296 509 278 509 c 0,39,40
 261 509 261 509 245 503 c 128,-1,41
 229 497 229 497 217 486.5 c 128,-1,42
 205 476 205 476 197.5 460.5 c 128,-1,43
 190 445 190 445 190 426 c 2,44,-1
 190 319 l 2,45,46
 190 310 190 310 196.5 297 c 128,-1,47
 203 284 203 284 215 272.5 c 128,-1,48
 227 261 227 261 243.5 253 c 128,-1,49
 260 245 260 245 280 245 c 0,50,51
 297 245 297 245 312.5 251.5 c 128,-1,52
 328 258 328 258 340 269.5 c 128,-1,53
 352 281 352 281 359.5 296.5 c 128,-1,54
 367 312 367 312 367 330 c 2,55,-1
 367 426 l 2,34,35
EndSplineSet
EndChar
StartChar: germandbls
Encoding: 223 223 234
Width: 600
Flags: W
LayerCount: 2
Back
Fore
SplineSet
352 -20 m 0,0,1
 335 -20 335 -20 317.5 -18.5 c 128,-1,2
 300 -17 300 -17 285.5 -11 c 128,-1,3
 271 -5 271 -5 262 7 c 128,-1,4
 253 19 253 19 253 40 c 0,5,6
 253 49 253 49 254.5 59.5 c 128,-1,7
 256 70 256 70 260 79 c 128,-1,8
 264 88 264 88 270 94.5 c 128,-1,9
 276 101 276 101 284 101 c 0,10,11
 295 101 295 101 310.5 95 c 128,-1,12
 326 89 326 89 351 89 c 0,13,14
 396 89 396 89 421 117.5 c 128,-1,15
 446 146 446 146 446 199 c 2,16,-1
 446 212 l 2,17,18
 446 247 446 247 437 272 c 128,-1,19
 428 297 428 297 412 314.5 c 128,-1,20
 396 332 396 332 373.5 342.5 c 128,-1,21
 351 353 351 353 325 359 c 0,22,23
 307 364 307 364 296 373.5 c 128,-1,24
 285 383 285 383 285 412 c 0,25,26
 285 440 285 440 295.5 447.5 c 128,-1,27
 306 455 306 455 326 460 c 0,28,29
 343 463 343 463 353 473.5 c 128,-1,30
 363 484 363 484 368.5 497.5 c 128,-1,31
 374 511 374 511 376 526 c 128,-1,32
 378 541 378 541 378 554 c 0,33,34
 378 598 378 598 359.5 626.5 c 128,-1,35
 341 655 341 655 297 655 c 0,36,37
 275 655 275 655 260.5 647.5 c 128,-1,38
 246 640 246 640 237 628 c 128,-1,39
 228 616 228 616 224.5 600 c 128,-1,40
 221 584 221 584 221 567 c 2,41,-1
 221 40 l 2,42,43
 221 22 221 22 201 11 c 128,-1,44
 181 0 181 0 155 0 c 256,45,46
 129 0 129 0 110.5 11 c 128,-1,47
 92 22 92 22 92 40 c 2,48,-1
 92 381 l 1,49,-1
 36 381 l 2,50,51
 19 381 19 381 11 395.5 c 128,-1,52
 3 410 3 410 3 428 c 0,53,54
 3 445 3 445 11 460 c 128,-1,55
 19 475 19 475 36 475 c 2,56,-1
 92 475 l 1,57,-1
 92 567 l 2,58,59
 92 607 92 607 102.5 643.5 c 128,-1,60
 113 680 113 680 136 707.5 c 128,-1,61
 159 735 159 735 196.5 751.5 c 128,-1,62
 234 768 234 768 287 768 c 0,63,64
 328 768 328 768 364 757 c 128,-1,65
 400 746 400 746 426.5 723.5 c 128,-1,66
 453 701 453 701 468.5 666 c 128,-1,67
 484 631 484 631 484 584 c 0,68,69
 484 534 484 534 466 489 c 128,-1,70
 448 444 448 444 416 427 c 1,71,72
 443 422 443 422 470.5 405.5 c 128,-1,73
 498 389 498 389 520.5 362.5 c 128,-1,74
 543 336 543 336 557.5 300.5 c 128,-1,75
 572 265 572 265 572 223 c 2,76,-1
 572 210 l 2,77,78
 572 154 572 154 554 111 c 128,-1,79
 536 68 536 68 506 39 c 128,-1,80
 476 10 476 10 436 -5 c 128,-1,81
 396 -20 396 -20 352 -20 c 0,0,1
EndSplineSet
EndChar
StartChar: acircumflex
Encoding: 226 226 135
Width: 471
Flags: W
LayerCount: 2
Back
Fore
SplineSet
117 579 m 2,0,1
 111 576 111 576 106 576 c 0,2,3
 94 576 94 576 86 588 c 128,-1,4
 78 600 78 600 78 616 c 0,5,6
 78 627 78 627 83 637 c 128,-1,7
 88 647 88 647 100 653 c 2,8,-1
 204 709 l 2,9,10
 212 714 212 714 221 714 c 0,11,12
 228 714 228 714 238 709 c 2,13,-1
 342 654 l 2,14,15
 353 647 353 647 358 636.5 c 128,-1,16
 363 626 363 626 363 615 c 0,17,18
 363 600 363 600 355 588 c 128,-1,19
 347 576 347 576 335 576 c 0,20,21
 329 576 329 576 325 579 c 2,22,-1
 221 635 l 1,23,-1
 117 579 l 2,0,1
210 481 m 0,24,25
 268 481 268 481 309 464.5 c 128,-1,26
 350 448 350 448 376 421 c 128,-1,27
 402 394 402 394 413.5 359 c 128,-1,28
 425 324 425 324 425 286 c 2,29,-1
 425 41 l 2,30,31
 425 24 425 24 407 12 c 128,-1,32
 389 0 389 0 362 0 c 0,33,34
 337 0 337 0 320.5 12 c 128,-1,35
 304 24 304 24 304 41 c 2,36,-1
 304 70 l 1,37,38
 277 39 277 39 240.5 15 c 128,-1,39
 204 -9 204 -9 152 -9 c 0,40,41
 125 -9 125 -9 101.5 -1 c 128,-1,42
 78 7 78 7 60.5 23.5 c 128,-1,43
 43 40 43 40 32.5 65 c 128,-1,44
 22 90 22 90 22 124 c 0,45,46
 22 167 22 167 39 195.5 c 128,-1,47
 56 224 56 224 86.5 240.5 c 128,-1,48
 117 257 117 257 160 264 c 128,-1,49
 203 271 203 271 255 271 c 2,50,-1
 296 271 l 1,51,-1
 296 284 l 2,52,53
 296 300 296 300 291.5 316.5 c 128,-1,54
 287 333 287 333 276.5 346 c 128,-1,55
 266 359 266 359 249.5 367.5 c 128,-1,56
 233 376 233 376 208 376 c 0,57,58
 179 376 179 376 161 371 c 128,-1,59
 143 366 143 366 131 360.5 c 128,-1,60
 119 355 119 355 111 350 c 128,-1,61
 103 345 103 345 94 345 c 0,62,63
 72 345 72 345 61 366 c 128,-1,64
 50 387 50 387 50 409 c 0,65,66
 50 424 50 424 65 437.5 c 128,-1,67
 80 451 80 451 103.5 460.5 c 128,-1,68
 127 470 127 470 155 475.5 c 128,-1,69
 183 481 183 481 210 481 c 0,24,25
296 204 m 1,70,-1
 281 204 l 2,71,72
 256 204 256 204 232.5 202 c 128,-1,73
 209 200 209 200 191 193.5 c 128,-1,74
 173 187 173 187 162 174.5 c 128,-1,75
 151 162 151 162 151 141 c 0,76,77
 151 113 151 113 166 100 c 128,-1,78
 181 87 181 87 204 87 c 0,79,80
 219 87 219 87 235.5 95 c 128,-1,81
 252 103 252 103 265.5 116.5 c 128,-1,82
 279 130 279 130 287.5 147.5 c 128,-1,83
 296 165 296 165 296 183 c 2,84,-1
 296 204 l 1,70,-1
EndSplineSet
EndChar
StartChar: atilde
Encoding: 227 227 154
Width: 471
Flags: W
LayerCount: 2
Back
Fore
SplineSet
210 481 m 0,0,1
 268 481 268 481 309 464.5 c 128,-1,2
 350 448 350 448 376 421 c 128,-1,3
 402 394 402 394 413.5 359 c 128,-1,4
 425 324 425 324 425 286 c 2,5,-1
 425 41 l 2,6,7
 425 24 425 24 407 12 c 128,-1,8
 389 0 389 0 362 0 c 0,9,10
 337 0 337 0 320.5 12 c 128,-1,11
 304 24 304 24 304 41 c 2,12,-1
 304 70 l 1,13,14
 277 39 277 39 240.5 15 c 128,-1,15
 204 -9 204 -9 152 -9 c 0,16,17
 125 -9 125 -9 101.5 -1 c 128,-1,18
 78 7 78 7 60.5 23.5 c 128,-1,19
 43 40 43 40 32.5 65 c 128,-1,20
 22 90 22 90 22 124 c 0,21,22
 22 167 22 167 39 195.5 c 128,-1,23
 56 224 56 224 86.5 240.5 c 128,-1,24
 117 257 117 257 160 264 c 128,-1,25
 203 271 203 271 255 271 c 2,26,-1
 296 271 l 1,27,-1
 296 284 l 2,28,29
 296 300 296 300 291.5 316.5 c 128,-1,30
 287 333 287 333 276.5 346 c 128,-1,31
 266 359 266 359 249.5 367.5 c 128,-1,32
 233 376 233 376 208 376 c 0,33,34
 179 376 179 376 161 371 c 128,-1,35
 143 366 143 366 131 360.5 c 128,-1,36
 119 355 119 355 111 350 c 128,-1,37
 103 345 103 345 94 345 c 0,38,39
 72 345 72 345 61 366 c 128,-1,40
 50 387 50 387 50 409 c 0,41,42
 50 424 50 424 65 437.5 c 128,-1,43
 80 451 80 451 103.5 460.5 c 128,-1,44
 127 470 127 470 155 475.5 c 128,-1,45
 183 481 183 481 210 481 c 0,0,1
296 204 m 1,46,-1
 281 204 l 2,47,48
 256 204 256 204 232.5 202 c 128,-1,49
 209 200 209 200 191 193.5 c 128,-1,50
 173 187 173 187 162 174.5 c 128,-1,51
 151 162 151 162 151 141 c 0,52,53
 151 113 151 113 166 100 c 128,-1,54
 181 87 181 87 204 87 c 0,55,56
 219 87 219 87 235.5 95 c 128,-1,57
 252 103 252 103 265.5 116.5 c 128,-1,58
 279 130 279 130 287.5 147.5 c 128,-1,59
 296 165 296 165 296 183 c 2,60,-1
 296 204 l 1,46,-1
171 617 m 0,61,62
 155 617 155 617 143.5 613 c 128,-1,63
 132 609 132 609 122.5 604.5 c 128,-1,64
 113 600 113 600 105 596.5 c 128,-1,65
 97 593 97 593 89 593 c 0,66,67
 79 593 79 593 72.5 598 c 128,-1,68
 66 603 66 603 62.5 610 c 128,-1,69
 59 617 59 617 57.5 624 c 128,-1,70
 56 631 56 631 56 635 c 0,71,72
 56 658 56 658 66 671.5 c 128,-1,73
 76 685 76 685 90 692 c 128,-1,74
 104 699 104 699 118.5 701 c 128,-1,75
 133 703 133 703 142 703 c 0,76,77
 164 703 164 703 181 698.5 c 128,-1,78
 198 694 198 694 214.5 688.5 c 128,-1,79
 231 683 231 683 247.5 678.5 c 128,-1,80
 264 674 264 674 284 674 c 0,81,82
 300 674 300 674 312 677.5 c 128,-1,83
 324 681 324 681 333 685.5 c 128,-1,84
 342 690 342 690 349.5 694 c 128,-1,85
 357 698 357 698 365 698 c 0,86,87
 375 698 375 698 381 693 c 128,-1,88
 387 688 387 688 391 681 c 128,-1,89
 395 674 395 674 396.5 667 c 128,-1,90
 398 660 398 660 398 656 c 0,91,92
 398 633 398 633 388 619.5 c 128,-1,93
 378 606 378 606 364 599 c 128,-1,94
 350 592 350 592 335.5 590 c 128,-1,95
 321 588 321 588 313 588 c 0,96,97
 288 588 288 588 270 592.5 c 128,-1,98
 252 597 252 597 236 602.5 c 128,-1,99
 220 608 220 608 205 612.5 c 128,-1,100
 190 617 190 617 171 617 c 0,61,62
EndSplineSet
EndChar
StartChar: adieresis
Encoding: 228 228 137
Width: 471
Flags: W
LayerCount: 2
Back
Fore
SplineSet
151 682 m 256,0,1
 172 682 172 682 186.5 666.5 c 128,-1,2
 201 651 201 651 201 630 c 256,3,4
 201 609 201 609 186.5 593 c 128,-1,5
 172 577 172 577 151 577 c 256,6,7
 130 577 130 577 115 593 c 128,-1,8
 100 609 100 609 100 630 c 256,9,10
 100 651 100 651 115 666.5 c 128,-1,11
 130 682 130 682 151 682 c 256,0,1
301 682 m 0,12,13
 321 682 321 682 336 666.5 c 128,-1,14
 351 651 351 651 351 630 c 256,15,16
 351 609 351 609 336 593 c 128,-1,17
 321 577 321 577 301 577 c 0,18,19
 279 577 279 577 264 593 c 128,-1,20
 249 609 249 609 249 630 c 256,21,22
 249 651 249 651 264 666.5 c 128,-1,23
 279 682 279 682 301 682 c 0,12,13
210 481 m 0,24,25
 268 481 268 481 309 464.5 c 128,-1,26
 350 448 350 448 376 421 c 128,-1,27
 402 394 402 394 413.5 359 c 128,-1,28
 425 324 425 324 425 286 c 2,29,-1
 425 41 l 2,30,31
 425 24 425 24 407 12 c 128,-1,32
 389 0 389 0 362 0 c 0,33,34
 337 0 337 0 320.5 12 c 128,-1,35
 304 24 304 24 304 41 c 2,36,-1
 304 70 l 1,37,38
 277 39 277 39 240.5 15 c 128,-1,39
 204 -9 204 -9 152 -9 c 0,40,41
 125 -9 125 -9 101.5 -1 c 128,-1,42
 78 7 78 7 60.5 23.5 c 128,-1,43
 43 40 43 40 32.5 65 c 128,-1,44
 22 90 22 90 22 124 c 0,45,46
 22 167 22 167 39 195.5 c 128,-1,47
 56 224 56 224 86.5 240.5 c 128,-1,48
 117 257 117 257 160 264 c 128,-1,49
 203 271 203 271 255 271 c 2,50,-1
 296 271 l 1,51,-1
 296 284 l 2,52,53
 296 300 296 300 291.5 316.5 c 128,-1,54
 287 333 287 333 276.5 346 c 128,-1,55
 266 359 266 359 249.5 367.5 c 128,-1,56
 233 376 233 376 208 376 c 0,57,58
 179 376 179 376 161 371 c 128,-1,59
 143 366 143 366 131 360.5 c 128,-1,60
 119 355 119 355 111 350 c 128,-1,61
 103 345 103 345 94 345 c 0,62,63
 72 345 72 345 61 366 c 128,-1,64
 50 387 50 387 50 409 c 0,65,66
 50 424 50 424 65 437.5 c 128,-1,67
 80 451 80 451 103.5 460.5 c 128,-1,68
 127 470 127 470 155 475.5 c 128,-1,69
 183 481 183 481 210 481 c 0,24,25
296 204 m 1,70,-1
 281 204 l 2,71,72
 256 204 256 204 232.5 202 c 128,-1,73
 209 200 209 200 191 193.5 c 128,-1,74
 173 187 173 187 162 174.5 c 128,-1,75
 151 162 151 162 151 141 c 0,76,77
 151 113 151 113 166 100 c 128,-1,78
 181 87 181 87 204 87 c 0,79,80
 219 87 219 87 235.5 95 c 128,-1,81
 252 103 252 103 265.5 116.5 c 128,-1,82
 279 130 279 130 287.5 147.5 c 128,-1,83
 296 165 296 165 296 183 c 2,84,-1
 296 204 l 1,70,-1
EndSplineSet
EndChar
